<svg viewBox="0 0 745 745" xmlns="http://www.w3.org/2000/svg"><path d="M21.75 197.5c115.84-57.18 231.8-114.1 347.62-171.31C486.98 83.32 604.67 140.3 722.24 197.5c.02 26.91.01 53.83.01 80.75h-46.5c0 80.42.01 160.84 0 241.25H60.5V278.26c-12.92-.02-25.83 0-38.75-.01 0-26.92-.01-53.84 0-80.75m347.62-90.44c-77.79 39.71-155.51 79.54-233.33 119.19-.09 73.42-.02 146.83-.04 220.25h464.25c.01-73.39-.02-146.78.01-220.18-76.97-39.73-153.88-79.6-230.89-119.26z"/><path d="M260.24 226H476v78H260.24c.01-26 .01-52 0-78zM260.25 337.5H476v78.26c-71.92-.01-143.84 0-215.75-.01 0-26.08-.01-52.17 0-78.25zM118 569.95c9.63-9.62 27.32-9.64 36.69.36 5.59 6.05 6.79 14.76 6.31 22.68-.2 5.54-1.91 11.03-5.13 15.58 1.89 1.74 3.81 3.47 5.61 5.31-1.97 2-3.97 3.99-5.96 5.98-2-1.95-4.06-3.83-6.07-5.76-9.36 4.93-21.88 4.49-30.04-2.58-5.36-4.51-7.67-11.61-8.07-18.41-.52-8.11.88-17.03 6.66-23.16m11.92 3.83c-4.65 2.25-6.76 7.51-7.39 12.35-.71 5.75-.14 12.12 3.39 16.93 3.53 4.77 10.41 6.16 15.74 3.78a91.807 91.807 0 0 0-5.1-4.96c1.95-1.97 3.89-3.94 5.67-6.07 1.9 1.71 3.8 3.42 5.69 5.14 2.83-7.06 3.18-15.58-.51-22.39-3.3-5.99-11.61-8.16-17.49-4.78zM409.45 563.7c8.75-2.31 18.99-.26 25.37 6.39 5.29 5.57 6.81 13.6 6.68 21.04-.25 6-1.44 12.27-5.14 17.15-9.85 13.03-33.2 12.04-41.25-2.42-4.16-7.94-4.33-17.54-2.22-26.1 1.97-7.92 8.62-14.29 16.56-16.06m3.99 8.84c-5.88 1.18-9.65 6.89-10.41 12.54-.72 6.19-.61 13.23 3.51 18.31 4.04 5.06 12.03 6.09 17.31 2.41 3.34-2.27 5.35-6.08 6.02-10 1-5.79.79-12.14-2.17-17.35-2.8-4.84-8.88-7.26-14.26-5.91zM510.47 565.51c6.54-3.31 14.46-3.48 21.38-1.35 6.67 2.1 11.3 8.63 11.39 15.59H532.7c-.86-7.98-11.18-9.6-17.03-6.14-3.18 1.74-3.33 7.02.03 8.63 7.67 3.04 16.44 3.07 23.66 7.31 5.97 3.65 6.58 11.93 4.09 17.87-2.46 6.01-9.07 8.99-15.17 9.68-6.69.7-14 .15-19.72-3.72-4.36-2.95-6.4-8.26-6.53-13.37 3.51-.02 7.02-.01 10.53-.01.41 3.09 2.12 6.15 5.18 7.25 4.41 1.51 9.64 1.47 13.77-.81 3.03-1.65 3.81-6.54.68-8.49-7.39-3.82-16.33-3.32-23.62-7.47-8.71-5.5-7.08-20.5 1.9-24.97zM643.28 564.12c8.46-2.5 18.56-1.73 25.5 4.13 3.67 3.04 5.66 7.6 6.38 12.24-3.65.02-7.28 0-10.92.02-.93-2.19-2.05-4.4-3.99-5.86-5.48-4.63-14.67-2.96-18.62 2.89-3 4.11-3.62 9.44-3.43 14.4.12 4.64 1.42 9.6 5.01 12.79 4.73 3.89 12.27 4.57 17.22.68 2.64-2.08 4.01-5.26 4.99-8.38-3.98-.05-7.95-.03-11.92-.03-.01-3.01-.01-6 0-8.99 7.25-.02 14.5-.01 21.75-.01v28c-2.5-.01-5-.01-7.49 0-.35-2.02-.69-4.05-1.01-6.07-8.2 10.65-25.95 9.53-33.97-.71-5.94-7.41-6.81-17.66-5.1-26.69 1.64-8.24 7.38-15.91 15.6-18.41zM64 564.24c12.75.01 25.5 0 38.25.01v9.25c-9.08.01-18.17 0-27.25 0v10.75c8.33-.01 16.66 0 25-.01 0 3.09 0 6.17-.01 9.26H75v13.25c9.5-.01 19 0 28.5 0V616H64v-51.76zM170 564.25c3.75-.01 7.5-.01 11.25 0 .02 11.25-.02 22.5.01 33.75 0 3.67 1.55 7.84 5.23 9.25 5.26 2.15 13.3.03 13.9-6.48.82-12.14.13-24.35.36-36.52 3.75-.01 7.5-.01 11.25-.01-.01 10.62.01 21.24-.01 31.86-.09 5.33-.65 11.25-4.5 15.31-3.6 4.14-9.26 5.63-14.54 5.9-6.34.46-13.19-.82-18.02-5.21-3.83-3.56-4.93-9.07-4.94-14.09.02-11.26 0-22.51.01-33.76zM234.47 564.25c4.24-.01 8.48 0 12.72-.01 6.18 17.23 12.12 34.53 18.3 51.76h-12.14c-1.01-3.52-2.14-7-3.22-10.5h-18.91c-1.18 3.5-2.34 7-3.51 10.5h-11.7c6.15-17.25 12.29-34.51 18.46-51.75m6.24 12.02c-2.16 6.66-4.27 13.34-6.51 19.97 4.28.01 8.55 0 12.83.01-2.15-6.65-4.15-13.34-6.32-19.98zM273.5 564.25c3.67-.01 7.33-.01 11 0 .01 14.08-.01 28.16.01 42.25 8.58 0 17.16-.01 25.74 0v9.5H273.5c0-17.25-.01-34.5 0-51.75zM340.25 564.25c3.66-.01 7.33-.01 11 0v19.5c6.58 0 13.16-.01 19.75 0 0-6.5-.01-13.01 0-19.51h11V616h-11v-23c-6.59 0-13.17-.01-19.75 0v23h-11.01c.01-17.25 0-34.5.01-51.75zM451 564.24c3.75 0 7.5 0 11.25.01.02 11.26-.04 22.52.02 33.78.02 3.96 2 8.43 6.14 9.5 4.03 1.13 9.31.41 11.8-3.31 1.36-2.12 1.52-4.74 1.55-7.18-.02-10.93-.01-21.86-.01-32.79 3.75-.01 7.49-.01 11.25-.01-.01 11.3.02 22.59-.01 33.88-.06 5.39-1.56 11.25-5.91 14.78-4.72 3.86-11.09 4.67-16.99 4.45-5.52-.24-11.34-2.04-15.1-6.29-3.36-3.84-3.96-9.16-3.99-14.06v-32.76zM553.5 564.24c3.66 0 7.33.01 10.99 0 .02 17.25.01 34.5.01 51.76h-11c0-17.25-.01-34.5 0-51.76zM575.25 564.25c3.86-.01 7.73.01 11.6-.03 6.88 11.86 13.52 23.85 20.39 35.71.01-11.9 0-23.79.01-35.68 3.41-.01 6.83-.01 10.25 0V616c-3.69 0-7.38.03-11.07-.06-6.92-12.22-13.91-24.41-20.9-36.59-.07 12.21-.01 24.43-.03 36.65h-10.26c.01-17.25 0-34.5.01-51.75zM81.53 641.73c8.85-1.69 18.91.99 24.68 8.18 4.61 5.85 5.74 13.64 5.38 20.88-.28 6.69-2.29 13.72-7.24 18.48-8.87 8.21-23.66 8.75-33.32 1.62-5.28-3.88-8.11-10.27-8.88-16.63-.98-7.78-.28-16.25 4.1-22.97 3.35-5.26 9.25-8.47 15.28-9.56m1.72 9.34c-5.82 1.35-9.35 7.1-10.05 12.73-.76 5.96-.48 12.63 3.24 17.64 3.8 5.21 11.7 6.59 17.12 3.14 4.37-2.59 6.4-7.76 6.85-12.61.41-5.49.09-11.49-3.24-16.11-3-4.38-8.89-6.08-13.92-4.79zM263.49 641.78c8.83-1.76 18.94.77 24.8 7.91 4.6 5.63 5.78 13.2 5.64 20.27-.22 6.82-2.06 14-6.99 18.98-7.76 7.61-20.45 8.84-30.04 4.16-6.34-2.94-10.6-9.23-11.98-15.97-1.66-8.36-1.24-17.57 3.11-25.08 3.22-5.6 9.26-9.03 15.46-10.27m.87 9.66c-5.61 1.9-8.51 7.85-9.02 13.41-.48 5.61-.17 11.8 3.3 16.51 3.57 4.96 10.86 6.56 16.24 3.73 4.62-2.17 7.05-7.25 7.68-12.1.62-5.87.4-12.37-3.22-17.31-3.29-4.61-9.77-6.12-14.98-4.24zM312.5 642.5c8.44.02 16.88-.05 25.33.03 4.68.09 9.83.87 13.14 4.52 6.35 6.25 5.29 18.94-3.39 22.59 1.74 1.05 3.78 2.01 4.63 4.01 3.03 6.62-.93 14.92 4.13 20.8-4.24.1-8.49.03-12.74.05-1.19-5.01-.91-10.18-1.27-15.26-.14-2.38-2.04-4.46-4.44-4.64-4.84-.74-9.77-.19-14.64-.35v20.25H312.5c-.01-17.33 0-34.67 0-52m10.75 9.25v13.5c5.49-.26 11.06.53 16.49-.45 5.8-1.44 5.6-10.97.01-12.61-5.43-.97-11.01-.19-16.5-.44zM426.75 642.5c3.74-.01 7.49-.01 11.24-.01.02 10.85.01 21.69 0 32.53-.06 3.45.64 7.29 3.47 9.59 3.77 2.72 9.24 2.39 12.99-.2 2.5-1.96 3.03-5.34 3.05-8.32 0-11.2-.01-22.4 0-33.59 3.75-.01 7.5-.01 11.25 0-.01 11.2.01 22.41 0 33.61-.07 4.96-1.04 10.34-4.67 14-4.28 4.67-11.02 5.85-17.08 5.68-6.45.12-13.38-2.25-17.25-7.65-2.63-3.83-2.9-8.65-3-13.14-.01-10.83 0-21.67 0-32.5zM488.75 642.5c3.81-.01 7.63-.01 11.45 0 6.87 11.97 13.65 24.01 20.56 35.96-.03-11.99 0-23.97-.01-35.96 3.41-.01 6.83-.01 10.24 0 .01 17.33.01 34.67 0 52.01-3.69-.01-7.38-.01-11.07-.01-6.94-12.23-14-24.38-20.88-36.65-.1 12.22-.01 24.44-.05 36.65h-10.24v-52zM577.01 642.49c14.08.01 28.16 0 42.24.01v9.5c-5.25 0-10.5-.01-15.75 0 0 14.17.01 28.33 0 42.5h-11c-.01-14.17 0-28.33 0-42.5H577c0-3.17-.01-6.34.01-9.51zM630.84 642.5c4.35-.01 8.71 0 13.06-.01 3.63 7.4 7.15 14.85 10.65 22.31 3.43-7.41 6.82-14.85 10.17-22.3 4.21-.01 8.42 0 12.64-.01-5.71 10.88-11.78 21.6-17.26 32.58-.27 6.47-.01 12.96-.11 19.44-3.75-.01-7.5-.01-11.24-.01-.11-6.6.21-13.22-.13-19.81-5.79-10.8-11.91-21.43-17.78-32.19zM130.25 694.5c-.01-17.33-.01-34.67 0-52 7.88.05 15.76-.1 23.63.06 4.83.04 9.97 1.68 12.9 5.73 5.37 7.49 4.13 19.5-3.61 24.92-6.51 4.25-14.65 1.96-21.91 2.54-.02 6.25 0 12.5-.01 18.75h-11m11-42.74v14.99c4.27-.16 8.62.43 12.84-.45 5.6-1.18 6.68-9.76 2.47-13.02-4.69-2.51-10.23-1.23-15.31-1.52zM188.25 642.5c8.19.07 16.39-.15 24.57.11 5.57 0 11.31 2.95 13.59 8.2 3.59 7.9 1.58 19.04-6.58 23.26-6.41 3.05-13.75 1.16-20.58 1.68v18.75h-11c-.01-17.33 0-34.66 0-52m11 9.26v14.99c4.18-.14 8.4.35 12.54-.35 6.75-.88 7.36-12.63.66-14.07-4.31-1.06-8.81-.41-13.2-.57zM368.5 642.5c14.08 0 28.17-.01 42.25 0 0 3.16 0 6.33.01 9.5-5.18 0-10.34-.01-15.51 0v42.5h-11c-.01-14.16 0-28.33 0-42.5-5.25-.01-10.5 0-15.75 0 0-3.17-.01-6.34 0-9.5zM550.25 642.5c3.74-.01 7.49-.01 11.25 0v52h-11.25c-.01-17.33 0-34.66 0-52z"/></svg>