<?xml version="1.0" encoding="iso-8859-1"?>
<!-- Generator: Adobe Illustrator 19.0.0, SVG Export Plug-In . SVG Version: 6.00 Build 0)  -->
<svg version="1.1" id="Capa_1" xmlns="http://www.w3.org/2000/svg" xmlns:xlink="http://www.w3.org/1999/xlink" x="0px" y="0px"
	 viewBox="0 0 512 512" style="enable-background:new 0 0 512 512;" xml:space="preserve">
<g>
	<g>
		<path d="M367.361,80.911C331.836,29.494,275.532,0,212.899,0C150.238,0,93.94,29.407,58.453,80.689
			c-35.341,51.054-43.515,115.894-21.896,173.364c5.787,15.626,14.986,30.807,27.292,45.055l136.678,160
			c3.086,3.612,7.599,5.7,12.35,5.706c0.011,0,0.016,0,0.022,0c4.746,0,9.253-2.072,12.339-5.668l36.339-42.305l-24.689-21.207
			l-23.957,27.9L88.533,277.906c-9.812-11.363-17.031-23.186-21.494-35.233c-17.887-47.55-11.102-101.185,18.164-143.463
			c29.332-42.37,75.873-66.669,127.696-66.669c51.786,0,98.327,24.374,127.685,66.869c29.272,42.365,36.068,95.913,18.072,143.523
			c-2.376,6.666-5.906,13.055-9.036,18.424l28.106,16.396c3.889-6.66,8.304-14.709,11.471-23.599
			C410.876,196.833,402.713,132.068,367.361,80.911z"/>
	</g>
</g>
<g>
	<g>
		<path d="M212.899,96.542c-50.24,0-91.119,40.879-91.119,91.119c0,50.24,40.873,91.119,91.119,91.119s91.119-40.879,91.119-91.119
			S263.139,96.542,212.899,96.542z M212.899,246.237c-32.298,0-58.576-26.278-58.576-58.576c0-32.298,26.278-58.576,58.576-58.576
			s58.576,26.278,58.576,58.576S245.197,246.237,212.899,246.237z"/>
	</g>
</g>
<g>
	<g>
		<path d="M341.441,250.034c-64.298,0-116.61,52.312-116.61,116.61s52.312,116.61,116.61,116.61
			c64.304,0,116.61-52.312,116.61-116.61S405.739,250.034,341.441,250.034z M341.441,450.712c-46.351,0-84.068-37.711-84.068-84.068
			c0-46.357,37.711-84.068,84.068-84.068s84.068,37.711,84.068,84.068C425.509,413.001,387.792,450.712,341.441,450.712z"/>
	</g>
</g>
<g>
	<g>
		<path d="M482.518,484.171l-58.034-57.497c-6.389-6.329-16.694-6.275-23.007,0.108c-6.324,6.384-6.275,16.683,0.108,23.007
			l58.034,57.497c3.173,3.146,7.311,4.713,11.449,4.713c4.187,0,8.38-1.605,11.558-4.822
			C488.95,500.795,488.901,490.495,482.518,484.171z"/>
	</g>
</g>
<g>
</g>
<g>
</g>
<g>
</g>
<g>
</g>
<g>
</g>
<g>
</g>
<g>
</g>
<g>
</g>
<g>
</g>
<g>
</g>
<g>
</g>
<g>
</g>
<g>
</g>
<g>
</g>
<g>
</g>
</svg>
