<svg viewBox="0 0 693 288" xmlns="http://www.w3.org/2000/svg"><path d="M306.4 0h6.23c2.76.59 6.05 1.38 7.3 4.24.68 2.08.49 4.31.61 6.47-1.48.02-2.94.03-4.41.05-.64-2.11-.6-4.93-2.96-5.94-5.33-2.49-14.06.35-13.66 7.25 4.91 3.84 12.41 2.08 16.94 6.56 2.89 4.84-.37 11.33-4.92 13.93-5.43 3-12.46 3.77-18.2 1.23-3.98-1.92-4.04-6.73-3.58-10.53 1.49-.01 2.98-.03 4.48-.05.36 2.25-.12 5.12 2.13 6.53 3.03 1.91 6.96 1.6 10.3.77 3.32-.81 6.42-3.89 5.8-7.52-4.2-4.77-11.93-2.77-16.64-6.79-2.44-2.8-1.1-6.91.66-9.69 2.15-3.55 6.04-5.46 9.92-6.51zM419.41 0h5.3c2.71.72 5.61 1.65 7.39 3.96 1.61 2.05 1.51 4.81 1.98 7.25-1.51.01-3 .03-4.5.04-.99-2.14-1.49-4.95-3.85-6.05-4.13-1.95-9.27-1.03-12.82 1.71-4.99 3.76-7.55 10.03-7.86 16.14-.23 3.03 1.3 6.41 4.34 7.43 4.5 1.51 9.72.34 13.28-2.75 2.24-1.88 3.37-4.64 4.63-7.2-3.64-.04-7.28-.04-10.92-.05.37-1.41.74-2.82 1.12-4.22 5.13-.01 10.25-.01 15.38 0-1.66 6.01-3.3 12.01-4.98 18-.79 0-2.38-.01-3.17-.02l.12-3.72c-3.32 2.18-6.85 4.35-10.9 4.64-4.24.45-9.3-.35-11.82-4.17-3.39-4.71-2.31-11.05-.35-16.13 2.85-7.53 9.55-13.62 17.63-14.86zM466.54 0h6.11c2.69.65 5.99 1.4 7.2 4.23.7 2.08.48 4.33.57 6.5l-4.4.03c-.65-2.09-.5-4.97-2.93-5.89-3.5-1.52-7.9-1.09-10.98 1.19-1.87 1.52-3.54 4.4-2.02 6.69 4.58 2.37 10.06 2.09 14.62 4.52 3.06 1.65 3.27 5.71 2.12 8.62-1.75 5.45-7.39 8.59-12.82 9.15-4.4.48-9.82.58-12.96-3.1-2.24-2.35-1.46-5.77-1.35-8.68l4.4-.03c.27 1.84.18 3.81 1.03 5.51 2.19 2.48 5.87 2.56 8.91 2.25 3.22-.31 6.9-1.76 7.99-5.11.77-1.59.48-3.96-1.42-4.54-4.94-2.84-12.32-1.39-15.8-6.48-1.83-7.28 4.92-13.8 11.73-14.86zM613.47 0h5.32c2.49.57 5.17 1.31 6.88 3.37 1.78 2.09 1.67 5.01 2.13 7.57-1.5.02-2.99.03-4.48.04-.99-2.23-1.54-5.24-4.16-6.14-4.1-1.45-8.85-.44-12.23 2.22-4.6 3.54-6.85 9.37-7.4 15.01-.26 2.72.34 5.94 2.79 7.54 3.55 2.17 8.27 1.69 11.69-.52 2.8-1.73 4.48-4.65 6.25-7.33l4.86.06c-2.51 4.67-5.65 9.42-10.72 11.57-5.43 2.44-12.83 3.06-17.38-1.44-3.92-4.46-2.9-11.03-1.22-16.23 2.49-7.94 9.28-14.54 17.67-15.72zM9.64.74c2.28.01 4.55.01 6.83.02.75 9.31 1.36 18.64 2.05 27.96C24.33 19.4 30.12 10.08 35.9.75c2.29 0 4.58 0 6.87.01-3 11.16-6.17 22.28-9.16 33.45-1.62.02-3.24.03-4.85.05 2.45-8.97 4.97-17.93 7.43-26.89-5.67 8.93-11.12 17.99-16.79 26.92l-4.83-.06c-.67-9.1-1.21-18.21-1.96-27.31-1.55 5.43-2.6 11.01-4.34 16.38-1.49 3.26-1.76 6.9-2.75 10.28-1.64 1.06-3.71.17-5.52.17v-.53c.2-.26.59-.78.79-1.04C4.1 21.81 6.62 11.2 9.64.74zM43.63 23.47c1.99-7.59 4.21-15.13 6.21-22.72 1.66 0 3.31.01 4.97.01-1.91 7.08-3.97 14.12-5.83 21.22-.8 2.74-.99 6.54 1.92 8.12 5.56 2.65 12.9-.56 14.84-6.41 2.43-7.55 4.27-15.28 6.44-22.92 1.65 0 3.3-.01 4.96-.02-2.15 7.66-4.1 15.37-6.4 22.98-2.91 9.46-14.83 14.2-23.63 10.11-3.77-1.87-4.55-6.65-3.48-10.37zM84.31.76h4.95c-2.71 9.74-5.37 19.5-8.07 29.24h17.36c-.38 1.42-.77 2.84-1.15 4.25-7.43 0-14.87-.02-22.3.01 3.02-11.18 6.14-22.34 9.21-33.5zM108.09.75c9.35.01 18.71-.01 28.06.01-.37 1.41-.73 2.82-1.1 4.24-3.88 0-7.77-.01-11.65.04-2.65 9.75-5.34 19.49-8.04 29.23-1.65-.02-3.29-.03-4.94-.04 2.72-9.74 5.35-19.5 8.08-29.23h-11.63c.4-1.42.81-2.84 1.22-4.25zM140.97.75c1.64.01 3.28.01 4.92.02-3.03 11.17-6.15 22.31-9.2 33.47h-4.95c3.08-11.16 6.16-22.32 9.23-33.49zM154.1.75c5.61.1 11.24-.21 16.85.12 3.06.07 6.22 2.04 6.7 5.24.68 5.78-3.24 11.72-8.77 13.49-4.97 1.26-10.17.42-15.24.67-1.23 4.66-2.55 9.29-3.79 13.95l-4.97.03c3.06-11.17 6.16-22.33 9.22-33.5m3.77 4.26c-1.03 3.74-2.06 7.48-3.07 11.23 4.52-.18 9.28.7 13.61-.96 3.34-1.56 6.18-7.54 2.22-9.8-4.16-.99-8.52-.31-12.76-.47zM185.6.74c1.63.01 3.28.02 4.92.02-2.66 9.75-5.36 19.49-8.04 29.24 5.78.01 11.57-.01 17.36.01-.39 1.41-.77 2.82-1.15 4.23-7.43 0-14.87.02-22.31-.01 3.05-11.17 6.15-22.32 9.22-33.49zM203.54 34.25c3.08-11.17 6.13-22.34 9.24-33.5 8.43.01 16.86 0 25.29.01-.41 1.41-.8 2.83-1.2 4.24-6.8.02-13.6-.05-20.4.05-.85 3.33-1.77 6.63-2.68 9.95h18.79c-.42 1.42-.83 2.84-1.24 4.26-6.24-.02-12.48-.01-18.72-.01-1 3.57-1.98 7.16-2.95 10.74 6.89.02 13.77 0 20.66.02-.4 1.41-.78 2.82-1.17 4.24h-25.62zM257.6.74c1.63.01 3.27.01 4.91.02-2.65 9.75-5.37 19.48-8.04 29.23 5.79.02 11.57 0 17.36.02-.39 1.41-.78 2.82-1.16 4.23-7.43 0-14.87.02-22.3-.01 3.05-11.17 6.13-22.33 9.23-33.49zM284.95.75c1.64 0 3.27.01 4.91.02-3.02 11.17-6.15 22.31-9.19 33.48-1.65 0-3.3-.01-4.94-.01 3.05-11.17 6.14-22.33 9.22-33.49zM325.49 5c.38-1.42.77-2.84 1.17-4.26 9.36.02 18.72.01 28.09.01-.37 1.41-.73 2.82-1.08 4.22-3.89.04-7.77.03-11.65.03-2.69 9.75-5.38 19.49-8.05 29.24-1.66.01-3.32.01-4.97.01 2.73-9.74 5.37-19.5 8.09-29.25h-11.6zM359.59.74c1.64.01 3.27.01 4.92.02-3.08 11.16-6.15 22.32-9.23 33.48-1.65 0-3.3.01-4.94.03 3.07-11.19 6.13-22.37 9.25-33.53zM372.2.78c1.9-.02 3.81-.03 5.72-.04 3.22 8.91 6.48 17.81 9.64 26.75 2.5-8.9 4.91-17.83 7.39-26.73 1.59-.01 3.19-.01 4.79-.01-3.08 11.18-6.11 22.39-9.28 33.55-1.83-.03-3.66-.05-5.48-.08-3.27-8.86-6.6-17.7-9.86-26.56-2.42 8.85-4.89 17.7-7.3 26.56-1.62.01-3.23.03-4.84.04 3.09-11.16 6.18-22.31 9.22-33.48zM489.95.75c8.43 0 16.87 0 25.3.01-.41 1.41-.8 2.82-1.2 4.24h-20.3c-.93 3.33-1.86 6.66-2.78 9.99 6.26.02 12.51.02 18.77 0-.39 1.41-.76 2.82-1.13 4.23-6.25.04-12.5.04-18.75 0a453.34 453.34 0 0 0-3 10.78c6.89 0 13.77-.01 20.65 0-.4 1.42-.78 2.84-1.17 4.26-8.53-.03-17.07 0-25.6-.02 3.05-11.17 6.16-22.32 9.21-33.49zM522.08.75c5.96.11 11.93-.22 17.88.14 3.03.15 7.02 1.55 7.28 5.09.67 4.85-2.31 9.29-6.37 11.66 3.77 4.16.21 9.68-.28 14.39.38.53 1.15 1.59 1.53 2.12-2.24.06-4.47.1-6.69.13.49-3.82 1.72-7.51 2.02-11.35.07-1.71-1.87-2.63-3.33-2.74-4.12-.42-8.27-.13-12.4-.19-1.35 4.74-2.63 9.49-3.95 14.23-1.65.01-3.29.01-4.93.02 3.05-11.18 6.11-22.35 9.24-33.5m3.75 4.26c-1.02 3.66-2.03 7.32-3.03 10.98 5.05-.26 10.37.8 15.24-.92 3.41-1.43 6.08-7.91 1.93-9.81-4.69-.6-9.43-.14-14.14-.25zM553.41.75l5.47.03c.68 9.22.98 18.48 2.11 27.66 5.92-9.12 11.46-18.5 17.23-27.72 1.84.03 3.67.05 5.53.08-7.21 11.18-14.51 22.29-21.74 33.45-1.75 0-3.49-.01-5.22-.01-1.2-11.15-2.27-22.32-3.38-33.49zM579.55 34.24c3.07-11.16 6.12-22.33 9.23-33.48 1.64-.01 3.28-.01 4.93-.02-3.1 11.17-6.11 22.37-9.27 33.53l-4.89-.03zM627.31 34.26c3.08-11.18 6.12-22.36 9.25-33.52 8.41.03 16.82 0 25.23.02-.38 1.41-.75 2.82-1.11 4.24-6.8.01-13.6-.02-20.39.02-.9 3.33-1.82 6.65-2.74 9.98h18.75c-.39 1.41-.76 2.83-1.14 4.25-6.26-.01-12.52 0-18.78-.01-.99 3.59-1.97 7.17-2.96 10.76 6.89.01 13.77-.01 20.66 0-.4 1.42-.79 2.83-1.17 4.25-8.54 0-17.07-.01-25.6.01zM507.78 82.76c21.19-11.89 46.22-15.34 70.2-13.81 15.69 1.13 32.44 5.48 43.35 17.55 9.95 10.86 12.11 26.56 10.37 40.69-19.18.13-38.36.01-57.54.06.14-4.14-.47-8.78-4-11.48-5.39-4.19-12.68-4.6-19.24-4.36-5.43.38-11.31 1.21-15.5 4.99-3.53 3.09-4.99 9.07-1.72 12.85 3.45 4.05 8.72 5.79 13.59 7.5 17.51 5.67 36.23 8.31 52.47 17.45 8.47 4.64 15.94 12.05 18.53 21.58 2.95 10.97.29 22.51-3.69 32.86-6.25 16.28-18.53 29.93-33.6 38.58-19.29 11.28-41.92 15.33-64.02 15.77-15.68.15-31.95-2.2-45.68-10.23-10.42-6.04-18.95-15.83-22.07-27.61-2.26-7.86-1.94-16.19-.38-24.15h57.99c.2 4.53.91 9.48 4.32 12.81 5.14 5.13 12.85 6.61 19.86 6.4 7.34-.39 15.11-1.52 21.18-5.98 3.2-2.43 5.8-6.18 5.64-10.35-.03-3.33-2.58-5.96-5.25-7.59-5.31-3.28-11.43-4.87-17.38-6.52-14.27-3.86-29.03-6.7-42.27-13.53-9.3-4.63-17.84-12.16-20.91-22.38-3.32-11.17-1.09-23.18 2.91-33.87 5.96-15.89 18.1-29.02 32.84-37.23zM89.99 73h82.28c-.62 28.97-1.16 57.95-2.07 86.9 18.85-28.95 37.52-58.03 56.44-86.94 25.48.09 50.97.01 76.45.04-19.14 61.99-38.41 123.94-57.48 185.94-18.38.13-36.76.02-55.14.06 10.82-32.7 22.09-65.26 32.58-98.07-20.74 32.73-41.83 65.23-62.54 97.98-14.26.21-28.53.04-42.79.09.88-32.9 1.83-65.79 2.81-98.68-11.15 32.8-21.98 65.72-32.93 98.59-18.38.21-36.76.04-55.14.08C51.6 196.98 70.8 134.99 89.99 73zM336.96 73.24c20.4.03 40.8 0 61.2.02-13.27 42.59-26.73 85.13-40.04 127.71 23.36.06 46.71.01 70.06.03-5.74 19.52-11.7 38.98-17.49 58.48-43.78.02-87.56.04-131.34-.01 19.14-62.09 38.36-124.17 57.61-186.23zM653.32 237.32c8.84-5 20.5-4.41 28.77 1.51 5.57 3.8 9.37 9.83 10.91 16.36V267c-2.32 11.15-12.17 20-23.53 21h-6c-9.34-1.07-17.9-7.18-21.7-15.8-5.79-12.35-.63-28.55 11.55-34.88m8.16 1.31c-9.54 2.05-17.14 10.71-17.88 20.46-1.08 11.21 7.46 22.18 18.43 24.36 7.02 1.6 14.66-.68 19.92-5.53 6.59-5.92 9.27-15.83 6.27-24.21-3.45-10.8-15.67-17.88-26.74-15.08z"/><path d="M649.23 252.26c4.09-.02 8.19-.02 12.29 0-.01.56-.02 1.67-.03 2.23-1.59 0-3.17.01-4.74.02 0 5.16-.01 10.32 0 15.48-.69.01-2.06.01-2.75.01v-15.5c-1.59 0-3.17-.01-4.74 0-.01-.56-.02-1.68-.03-2.24zM664.25 252.24c1.37.01 2.74.01 4.12.02 1.66 4.55 3.29 9.1 4.95 13.64 1.6-4.56 3.19-9.13 4.83-13.68 1.35.01 2.72.03 4.09.04.01 5.91 0 11.82.01 17.74h-2.75c-.01-4.97.01-9.94 0-14.91-1.96 4.92-3.33 10.07-5.47 14.91-.45-.01-1.35-.02-1.8-.03-1.99-4.13-3.22-8.57-4.79-12.86l-.72.1c.03 4.26.03 8.53.03 12.79h-2.5v-17.76z"/></svg>