<svg viewBox="0 0 541 643" xmlns="http://www.w3.org/2000/svg"><path d="M27.09 0h480.56c.23 55.01.03 110.02.1 165.04v323.71H27c.05-162.92-.11-325.83.09-488.75m69.16 62.25c-.01 120.25 0 240.5-.01 360.74 44.51.01 89.01.01 133.52.01-.01-120.25 0-240.5-.01-360.75H96.25m188 0v180c14.59-.02 29.19.05 43.78-.03 13.02-.12 26.03-2.85 37.84-8.38 18.96-8.78 34.73-24.33 43.6-43.26 9.89-20.48 11.31-44.79 4.21-66.36-6.14-18.87-18.82-35.5-35.3-46.56-14.43-9.87-31.83-15.15-49.29-15.38-14.95-.08-29.9-.01-44.84-.03m0 191.87c0 56.38-.01 112.76 0 169.13 57.46-.01 114.91.02 172.37-.01-57.46-56.37-114.99-112.67-172.37-169.12zM361.12 578.09c5.45-7.58 14.72-11.57 23.86-12.13 10.88-.93 22.94 2.2 29.99 11.04 12.12 15.37 12.36 38.89.68 54.58-4.55 6.23-11.77 10.02-19.25 11.42h-15.91c-7.45-1.45-14.64-5.18-19.18-11.4-11.44-15.31-11.46-38.1-.19-53.51m21.18 2.16c-5.48 1.52-9.92 5.78-12.04 11-4 9.74-3.61 21.51 1.95 30.57 6.88 10.8 24.94 11.08 32.16.51 5.01-7.54 5.93-17.24 3.98-25.94-1.29-5.38-3.94-10.84-8.77-13.86-5.04-3.34-11.55-3.81-17.28-2.28zM0 567.21c8.33-.47 16.67-.1 25.01-.21 6.34.13 12.7-.34 19.02.28 5.65.61 11.37 3.7 13.76 9.06 2.98 6.75 3.61 14.95.09 21.61-1.75 3.37-5.02 5.51-8.09 7.55 2.99 2.15 6.61 4.34 7.42 8.25 1.2 6.01.75 12.2 1.05 18.3-.03 3.4 2.31 6.11 3.53 9.12-5.83.14-11.66.04-17.5.11-3.18-7.51-1.03-15.75-2.03-23.57-.56-3.42-4.02-5.31-7.22-5.53-6.41-.47-12.86-.05-19.29-.18-.01 9.75.01 19.5-.01 29.25-5.24 0-10.49 0-15.74-.02v-74.02M15.75 580v19c7.21-.09 14.43.17 21.63-.1 5.5-.62 9.19-6.63 7.93-11.9.06-3.91-3.39-6.88-7.16-6.89-7.46-.3-14.93-.02-22.4-.11zM77.25 567c17.92-.01 35.83 0 53.75 0v13c-12.83 0-25.67-.01-38.5 0 0 5.5-.01 11 0 16.5 11.83 0 23.66.01 35.49 0 .01 4.33.01 8.66.01 13-11.84 0-23.67-.01-35.5 0 0 6.25-.01 12.5 0 18.75 13.42.01 26.83 0 40.25 0v12.99c-18.5.02-36.99 0-55.48.01-.04-24.75 0-49.5-.02-74.25zM168.88 567c5.94-.01 11.88 0 17.83 0 8.4 24.77 16.93 49.5 25.42 74.24-5.29.01-10.59.01-15.89 0-1.66-4.92-3.33-9.83-5.04-14.73-9.04-.04-18.08 0-27.13-.02-1.78 4.91-3.45 9.85-5.21 14.77-5.27-.03-10.55-.02-15.83 0 8.59-24.76 17.26-49.5 25.85-74.26m8.92 18.41c-3.13 9.38-6.32 18.73-9.52 28.08 6.4.02 12.8.01 19.2.01-3.29-9.35-6.4-18.75-9.68-28.09zM225.5 567H241c0 20.42-.01 40.83 0 61.25 11.84.01 23.67-.01 35.5.01 0 4.32 0 8.65-.01 12.98-16.99.01-33.99.01-50.98 0-.01-24.74-.01-49.49-.01-74.24zM284.5 567H344v13c-7.25 0-14.5-.01-21.76 0 .01 20.42.01 40.83 0 61.24-5.16.01-10.32.01-15.48 0-.01-20.41-.01-40.82 0-61.24-7.42-.01-14.84 0-22.26 0v-13zM439.25 567c13.61.02 27.22-.04 40.83.02 6.59.03 13.85 2.92 16.75 9.21 2.93 6.78 3.63 14.99.1 21.69-1.69 3.47-5.03 5.6-8.16 7.64 3.2 1.91 6.62 4.31 7.5 8.19 1.35 6.64.6 13.48 1.2 20.2.02 1.94 1.52 3.29 2.67 4.69.04.65.11 1.95.15 2.6-5.61.02-11.22-.02-16.82.03-3.61-7.63-1.03-16.2-2.29-24.21-.96-3.41-4.69-4.91-7.93-4.99-6.17-.22-12.34 0-18.5-.07-.01 9.75.01 19.5-.01 29.25-5.16-.01-10.32-.01-15.48 0-.02-24.75 0-49.5-.01-74.25m15.5 13v19c7.42-.12 14.86.23 22.28-.14 7.14-1.4 9.83-11.07 5.51-16.49-1.88-2.07-4.84-2.36-7.46-2.38-6.78-.02-13.55.03-20.33.01zM514.69 590.37c-3.96-7.45.31-17.68 8.46-19.96 7.14-2.47 15.28 1.75 17.85 8.75v9.63c-1.39 3.08-3.44 6.01-6.49 7.65-6.79 4.01-16.47 1.11-19.82-6.07m8.68-17.88c-6.09 2.03-9.8 9.39-7.44 15.44 1.94 6.28 9.53 10.04 15.68 7.59 6.12-2.07 9.78-9.45 7.44-15.54-2.04-6.2-9.55-9.98-15.68-7.49z"/><path d="M522.25 576.01c4 .47 9.63-1.6 12.3 2.37 1.35 3.3-1.1 6.09-4.27 6.71 1.56 2.36 3.11 4.73 4.59 7.15-4.23.15-5.11-4.82-7.26-7.52-1.13.02-2.25.05-3.37.08 0 2.39 0 4.79.01 7.19-.5.01-1.5.01-2 .02v-16m2 1.72c-.01 1.76-.01 3.53 0 5.31 2.62-.17 5.58.48 7.9-1.09 1-1.38.6-3.62-1.21-4-2.22-.35-4.47-.21-6.69-.22z"/></svg>