<svg xmlns="http://www.w3.org/2000/svg" viewBox="0 0 512 512"><path d="M501.801 0H10.199C4.566 0 0 4.566 0 10.199v491.602C0 507.434 4.566 512 10.199 512h491.602c5.633 0 10.199-4.566 10.199-10.199V10.199C512 4.566 507.434 0 501.801 0zm-10.199 491.602H20.398V20.398h471.203v471.204z"></path><path d="M451.453 50.348H278.217a10.198 10.198 0 0 0-7.212 17.411l44.922 44.922-71.219 71.219a10.2 10.2 0 0 0 0 14.424l68.968 68.968a10.2 10.2 0 0 0 14.425.001l71.218-71.219 44.922 44.922a10.2 10.2 0 0 0 17.411-7.212V60.548c.001-5.633-4.566-10.2-10.199-10.2zm-10.2 158.812l-34.723-34.723a10.2 10.2 0 0 0-14.424 0l-71.218 71.219-54.544-54.544 71.219-71.219a10.2 10.2 0 0 0 0-14.424L302.84 70.746h138.413V209.16zM270.986 309.981l-68.968-68.968c-3.984-3.982-10.442-3.982-14.425 0l-71.204 71.204-44.922-44.922a10.199 10.199 0 0 0-17.411 7.213v173.238c0 5.633 4.566 10.199 10.199 10.199h173.238a10.2 10.2 0 0 0 7.212-17.412l-44.922-44.922 71.204-71.204c3.982-3.985 3.982-10.443-.001-14.426zm-92.841 78.417c-3.983 3.984-3.983 10.442 0 14.425l34.723 34.723H74.454V299.131l34.722 34.723c3.984 3.983 10.442 3.983 14.425 0l71.204-71.204 54.544 54.544-71.204 71.204zM64.255 96.892c-5.633 0-10.199 4.566-10.199 10.199v54.056c0 5.633 4.566 10.199 10.199 10.199s10.199-4.566 10.199-10.199v-54.056c0-5.632-4.566-10.199-10.199-10.199zM64.255 56.879c-5.633 0-10.199 4.566-10.199 10.199v4.316c0 5.633 4.566 10.199 10.199 10.199s10.199-4.567 10.199-10.199v-4.316c0-5.633-4.566-10.199-10.199-10.199z"></path></svg>