<?xml version="1.0" encoding="UTF-8" ?>
<!DOCTYPE svg PUBLIC "-//W3C//DTD SVG 1.1//EN" "http://www.w3.org/Graphics/SVG/1.1/DTD/svg11.dtd">
<svg width="525pt" height="318pt" viewBox="0 0 525 318" version="1.1" xmlns="http://www.w3.org/2000/svg">
<g id="#ffffffff">
<path fill="#ffffff" opacity="1.00" d=" M 70.92 233.82 C 74.31 232.04 78.28 232.10 81.99 231.62 C 81.97 234.69 82.16 237.78 81.87 240.85 C 78.97 243.83 74.04 244.93 70.32 242.89 C 67.44 240.78 67.75 235.55 70.92 233.82 Z" />
</g>
<g id="#013a63ff">
<path fill="#013a63" opacity="1.00" d=" M 255.33 0.00 L 268.64 0.00 C 289.32 1.42 308.75 12.12 321.77 28.12 C 343.81 53.77 344.89 94.68 324.73 121.72 C 314.10 136.14 298.75 147.42 281.18 151.59 C 262.80 155.89 242.69 154.10 225.96 145.07 C 211.92 137.33 200.16 125.37 192.88 111.07 C 185.41 96.31 183.71 79.13 186.27 62.93 C 188.80 46.87 197.23 32.05 209.06 21.01 C 221.37 8.78 238.08 1.42 255.33 0.00 M 250.66 10.84 C 233.91 13.37 219.03 23.49 208.88 36.82 C 191.40 59.42 191.33 93.73 208.64 116.44 C 217.62 128.46 230.42 137.94 245.07 141.65 C 262.67 146.12 282.28 143.65 297.56 133.55 C 309.75 125.45 319.75 113.67 324.69 99.80 C 329.69 85.62 329.80 69.81 325.30 55.49 C 319.98 39.45 308.18 25.82 293.46 17.62 C 280.53 10.47 265.15 8.54 250.66 10.84 Z" />
<path fill="#013a63" opacity="1.00" d=" M 224.32 38.31 C 231.88 29.79 242.66 24.42 253.95 23.13 C 268.20 21.06 282.76 24.48 295.53 30.86 C 295.42 37.88 295.64 44.91 295.39 51.93 C 292.46 50.98 290.19 48.83 287.61 47.25 C 279.91 42.61 271.15 39.07 262.01 39.47 C 252.06 39.31 242.17 44.76 237.46 53.59 C 232.79 62.55 232.34 72.99 232.90 82.88 C 233.59 91.91 236.29 101.48 243.27 107.69 C 249.58 113.53 258.68 115.18 267.00 114.30 C 275.88 113.45 284.08 109.29 291.25 104.16 C 292.49 103.21 293.92 102.56 295.41 102.10 C 295.58 109.05 295.53 116.00 295.44 122.95 C 286.90 126.45 278.28 130.40 268.94 131.05 C 254.21 132.30 238.06 129.55 226.96 119.07 C 216.28 109.54 212.08 94.85 211.69 80.95 C 210.98 65.97 213.88 49.72 224.32 38.31 Z" />
<path fill="#013a63" opacity="1.00" d=" M 192.50 189.98 C 197.26 190.01 202.02 189.97 206.77 190.04 C 206.71 210.94 206.78 231.84 206.74 252.75 C 201.97 252.74 197.20 252.83 192.43 252.63 C 192.59 231.75 192.44 210.86 192.50 189.98 Z" />
<path fill="#013a63" opacity="1.00" d=" M 216.99 189.99 C 221.99 189.99 226.99 190.00 232.00 190.00 C 232.00 193.75 232.00 197.49 232.00 201.24 C 227.00 201.25 222.00 201.24 217.01 201.25 C 216.99 197.50 217.00 193.74 216.99 189.99 Z" />
<path fill="#013a63" opacity="1.00" d=" M 16.11 194.11 C 26.80 189.68 39.17 191.36 49.40 196.28 C 49.54 201.41 49.61 206.55 49.34 211.68 C 45.15 209.25 41.66 205.62 37.00 204.03 C 31.72 202.02 25.15 203.00 21.15 207.15 C 16.94 211.23 15.57 217.33 15.55 223.00 C 15.61 228.14 16.72 233.65 20.35 237.52 C 24.16 241.85 30.59 243.44 36.06 241.82 C 41.18 240.52 45.01 236.68 49.35 233.94 C 49.60 238.92 49.53 243.91 49.43 248.89 C 38.92 254.21 25.97 255.89 15.01 250.97 C 6.03 246.84 0.85 237.31 0.00 227.73 L 0.00 218.28 C 0.82 208.19 6.58 198.20 16.11 194.11 Z" />
<path fill="#013a63" opacity="1.00" d=" M 387.07 192.13 C 396.24 190.49 406.65 191.79 413.77 198.26 C 420.40 204.16 423.11 213.32 423.04 221.98 C 423.24 229.64 421.67 237.73 416.85 243.88 C 412.62 249.41 406.02 252.89 399.13 253.63 C 389.74 254.95 379.10 252.84 372.61 245.44 C 366.60 238.89 364.72 229.63 365.02 220.99 C 365.32 213.82 367.14 206.39 371.89 200.82 C 375.67 196.18 381.23 193.21 387.07 192.13 M 390.40 203.57 C 383.32 205.98 381.00 214.24 380.76 220.97 C 380.47 227.29 381.38 234.30 385.91 239.09 C 390.12 243.49 397.88 243.53 402.14 239.17 C 405.97 235.16 407.37 229.41 407.28 223.99 C 407.46 218.60 406.85 212.92 403.81 208.32 C 401.13 203.90 395.25 201.97 390.40 203.57 Z" />
<path fill="#013a63" opacity="1.00" d=" M 57.80 208.27 C 67.06 206.16 76.95 205.06 86.21 207.70 C 91.76 209.14 96.11 214.22 96.18 220.03 C 96.32 230.94 96.26 241.86 96.19 252.77 C 91.49 252.74 86.78 252.72 82.07 252.80 C 82.03 251.31 81.99 249.83 81.96 248.35 C 78.37 251.49 73.97 253.98 69.06 253.94 C 62.82 254.55 56.42 250.58 54.62 244.50 C 53.04 238.82 53.92 231.73 59.10 228.14 C 65.86 223.39 74.56 223.68 82.43 222.85 C 81.78 220.90 81.47 218.35 79.21 217.60 C 72.12 214.54 64.58 217.44 57.77 219.76 C 57.73 215.93 57.74 212.10 57.80 208.27 M 70.92 233.82 C 67.75 235.55 67.44 240.78 70.32 242.89 C 74.04 244.93 78.97 243.83 81.87 240.85 C 82.16 237.78 81.97 234.69 81.99 231.62 C 78.28 232.10 74.31 232.04 70.92 233.82 Z" />
<path fill="#013a63" opacity="1.00" d=" M 159.06 206.11 C 166.26 205.51 174.36 206.94 179.41 212.54 C 185.23 218.76 186.20 227.97 184.91 236.04 C 183.87 243.29 179.02 250.12 171.96 252.54 C 165.94 254.56 159.22 254.59 153.13 252.86 C 145.62 250.70 140.28 243.67 139.16 236.08 C 138.10 228.91 138.57 221.01 142.76 214.85 C 146.35 209.46 152.74 206.57 159.06 206.11 M 158.12 217.23 C 154.82 219.22 153.79 223.26 153.45 226.85 C 153.03 231.42 153.15 236.40 155.54 240.47 C 158.30 244.90 165.75 244.87 168.54 240.48 C 170.67 237.09 170.84 232.92 170.77 229.03 C 170.60 225.34 170.11 221.29 167.57 218.40 C 165.12 216.02 161.09 215.74 158.12 217.23 Z" />
<path fill="#013a63" opacity="1.00" d=" M 256.23 212.10 C 261.43 207.78 268.31 204.61 275.13 206.86 C 281.34 208.44 284.27 215.14 284.42 221.04 C 284.66 231.57 284.34 242.10 284.58 252.63 C 279.74 252.85 274.90 252.70 270.06 252.79 C 269.88 243.88 270.10 234.95 269.96 226.04 C 269.79 223.48 269.72 220.20 267.13 218.82 C 263.62 217.18 259.51 218.56 256.48 220.62 C 255.88 231.31 256.50 242.06 256.18 252.77 C 251.47 252.73 246.76 252.74 242.04 252.78 C 241.94 237.69 242.04 222.60 241.99 207.51 C 246.74 207.48 251.50 207.50 256.25 207.51 C 256.24 209.04 256.23 210.57 256.23 212.10 Z" />
<path fill="#013a63" opacity="1.00" d=" M 295.07 208.25 C 304.47 206.20 314.53 204.96 323.88 207.83 C 329.28 209.34 333.45 214.42 333.46 220.10 C 333.62 230.93 333.37 241.77 333.57 252.61 C 328.88 252.86 324.18 252.74 319.49 252.73 C 319.49 251.25 319.49 249.77 319.49 248.30 C 313.94 253.31 305.54 255.85 298.53 252.42 C 289.32 247.85 288.45 232.71 297.39 227.44 C 304.12 223.47 312.23 223.60 319.77 222.84 C 319.12 220.86 318.69 218.37 316.45 217.59 C 309.36 214.55 301.85 217.43 295.04 219.75 C 294.96 215.91 294.97 212.08 295.07 208.25 M 308.05 233.94 C 304.52 235.90 304.78 242.66 309.07 243.51 C 312.63 244.68 316.54 243.33 319.27 240.93 C 319.77 237.85 319.43 234.71 319.47 231.60 C 315.63 232.10 311.51 231.99 308.05 233.94 Z" />
<path fill="#013a63" opacity="1.00" d=" M 445.23 211.94 C 448.53 209.68 451.82 207.02 455.91 206.43 C 460.46 205.79 465.73 206.34 469.05 209.88 C 472.59 213.61 473.33 219.03 473.27 223.96 C 473.20 233.56 473.32 243.17 473.20 252.77 C 468.48 252.73 463.76 252.74 459.04 252.77 C 458.80 243.47 459.35 234.15 458.68 224.87 C 458.52 222.53 458.02 219.56 455.52 218.62 C 452.12 217.40 448.32 218.49 445.48 220.54 C 444.88 231.26 445.51 242.04 445.17 252.78 C 440.46 252.74 435.74 252.73 431.03 252.77 C 430.95 237.68 431.03 222.59 430.99 207.51 C 435.74 207.49 440.50 207.49 445.25 207.51 C 445.24 208.99 445.23 210.46 445.23 211.94 Z" />
<path fill="#013a63" opacity="1.00" d=" M 496.08 207.03 C 503.12 205.31 511.21 205.39 517.45 209.48 C 522.08 212.53 524.17 218.05 525.00 223.32 L 525.00 232.77 C 514.73 232.74 504.46 232.72 494.19 232.79 C 494.79 237.26 497.42 241.81 502.15 242.77 C 509.90 245.20 517.59 241.68 524.20 237.86 C 524.28 241.98 524.25 246.10 524.27 250.22 C 517.59 253.14 510.22 254.45 502.95 253.79 C 496.33 253.38 489.43 251.10 485.04 245.89 C 479.93 239.85 479.32 231.22 480.71 223.73 C 482.14 215.85 488.21 208.91 496.08 207.03 M 495.95 218.96 C 494.89 220.51 494.68 222.43 494.27 224.22 C 499.93 224.26 505.58 224.26 511.25 224.22 C 510.71 221.61 510.37 218.56 508.12 216.79 C 504.41 214.09 498.43 215.00 495.95 218.96 Z" />
<path fill="#013a63" opacity="1.00" d=" M 106.49 207.48 C 111.22 207.51 115.96 207.52 120.69 207.47 C 120.73 209.42 120.76 211.37 120.81 213.33 C 125.28 209.64 130.63 206.48 136.68 207.21 C 136.80 211.79 136.72 216.38 136.79 220.96 C 131.52 220.33 125.36 219.75 120.84 222.92 C 120.60 232.85 120.82 242.80 120.75 252.74 C 116.03 252.75 111.31 252.73 106.58 252.79 C 106.38 237.69 106.56 222.59 106.49 207.48 Z" />
<path fill="#013a63" opacity="1.00" d=" M 217.25 252.74 C 217.31 237.64 217.12 222.53 217.36 207.43 C 222.07 207.54 226.79 207.49 231.50 207.50 C 231.54 222.55 231.43 237.60 231.56 252.65 C 226.79 252.81 222.02 252.74 217.25 252.74 Z" />
<path fill="#013a63" opacity="1.00" d=" M 214.02 267.75 C 216.09 267.75 218.17 267.76 220.24 267.76 C 220.26 284.34 220.25 300.92 220.25 317.50 C 218.15 317.50 216.06 317.42 213.98 317.27 C 214.03 300.76 213.96 284.25 214.02 267.75 Z" />
<path fill="#013a63" opacity="1.00" d=" M 107.52 269.73 C 114.05 269.94 120.66 269.25 127.14 270.36 C 133.00 271.37 137.77 276.93 137.13 283.00 C 137.48 289.12 133.16 294.36 127.74 296.66 C 133.03 303.63 138.85 310.19 144.22 317.10 C 141.32 317.55 138.06 318.17 135.41 316.59 C 130.41 310.86 126.06 304.57 121.02 298.87 C 118.90 298.03 116.37 298.66 114.09 298.44 C 113.91 304.71 114.03 310.98 114.02 317.25 C 111.85 317.35 109.67 317.40 107.50 317.41 C 107.51 301.51 107.48 285.62 107.52 269.73 M 113.99 275.51 C 114.00 281.35 114.00 287.18 114.02 293.02 C 117.50 292.98 121.05 293.19 124.47 292.37 C 131.03 290.62 132.71 279.76 126.57 276.53 C 122.60 274.86 118.17 275.66 113.99 275.51 Z" />
<path fill="#013a63" opacity="1.00" d=" M 249.45 269.91 C 259.41 269.55 269.37 269.84 279.34 269.76 C 279.25 271.69 279.17 273.62 279.06 275.56 C 271.37 275.45 263.69 275.51 256.00 275.51 C 256.00 279.75 256.00 284.00 256.00 288.24 C 263.16 288.28 270.33 288.20 277.49 288.28 C 277.51 290.15 277.54 292.02 277.58 293.90 C 270.39 294.13 263.20 293.93 256.00 294.00 C 255.99 299.74 256.01 305.49 256.00 311.24 C 263.73 311.26 271.46 311.27 279.20 311.23 C 279.23 313.27 279.25 315.32 279.26 317.37 C 269.34 317.53 259.29 318.27 249.42 316.90 C 249.57 301.24 249.52 285.57 249.45 269.91 Z" />
<path fill="#013a63" opacity="1.00" d=" M 314.49 271.51 C 316.56 271.50 318.63 271.49 320.70 271.47 C 320.75 274.81 320.75 278.14 320.75 281.48 C 324.40 281.51 328.06 281.51 331.72 281.45 C 331.73 283.21 331.75 284.97 331.77 286.73 C 328.10 286.75 324.43 286.76 320.76 286.74 C 320.75 292.82 320.72 298.89 320.74 304.96 C 320.85 307.35 320.78 310.43 323.16 311.80 C 325.97 312.91 328.98 311.91 331.76 311.21 C 331.75 313.12 331.75 315.03 331.75 316.95 C 327.89 316.95 324.01 317.13 320.16 316.88 C 316.38 315.67 314.74 311.47 314.61 307.82 C 314.34 300.90 314.53 293.96 314.55 287.04 C 313.18 286.87 311.82 286.73 310.46 286.59 C 310.48 284.89 310.50 283.19 310.52 281.50 C 311.84 281.49 313.16 281.49 314.49 281.50 C 314.50 278.17 314.50 274.84 314.49 271.51 Z" />
<path fill="#013a63" opacity="1.00" d=" M 370.19 271.58 C 372.29 271.52 374.39 271.50 376.50 271.48 C 376.50 274.82 376.50 278.15 376.50 281.49 C 380.08 281.50 383.66 281.50 387.24 281.51 C 387.24 283.24 387.25 284.98 387.27 286.72 C 383.69 286.77 380.11 286.75 376.53 286.74 C 376.50 293.48 376.45 300.22 376.52 306.96 C 376.50 308.85 377.13 311.12 379.07 311.89 C 381.76 312.85 384.61 311.87 387.29 311.35 C 387.26 313.26 387.24 315.18 387.22 317.10 C 383.24 316.79 379.21 317.28 375.25 316.77 C 371.88 315.24 370.38 311.45 370.28 307.94 C 370.15 300.88 370.31 293.81 370.23 286.75 C 368.90 286.75 367.58 286.75 366.26 286.76 C 366.25 285.00 366.25 283.25 366.26 281.50 C 367.59 281.48 368.92 281.47 370.26 281.46 C 370.25 278.17 370.25 274.87 370.19 271.58 Z" />
<path fill="#013a63" opacity="1.00" d=" M 145.84 288.85 C 149.86 280.39 162.14 277.85 169.38 283.55 C 174.17 287.55 174.43 294.25 174.31 300.00 C 166.06 300.02 157.80 299.98 149.55 300.02 C 150.06 304.15 151.07 308.91 155.12 311.01 C 161.11 314.36 168.21 311.65 173.51 308.21 C 173.51 310.51 173.50 312.81 173.50 315.12 C 170.32 316.30 167.10 317.41 163.75 318.00 L 159.24 318.00 C 154.15 317.49 148.91 315.28 146.21 310.71 C 142.51 304.14 142.58 295.58 145.84 288.85 M 153.08 288.16 C 150.96 289.90 150.35 292.71 149.63 295.22 C 155.88 295.27 162.14 295.26 168.40 295.23 C 167.88 292.13 167.36 288.33 164.24 286.72 C 160.69 285.01 156.02 285.41 153.08 288.16 Z" />
<path fill="#013a63" opacity="1.00" d=" M 180.55 282.12 C 186.89 280.85 193.76 279.65 199.97 282.09 C 203.94 283.58 205.87 287.89 205.90 291.91 C 206.17 300.35 205.91 308.80 206.01 317.25 C 203.93 317.24 201.85 317.24 199.77 317.23 C 199.77 316.38 199.79 314.68 199.79 313.83 C 197.27 315.49 194.65 317.08 191.75 318.00 L 186.20 318.00 C 177.33 316.45 174.51 303.69 181.11 298.07 C 186.49 293.92 193.68 294.26 200.09 293.56 C 199.46 291.27 199.43 288.15 196.85 287.13 C 191.50 285.00 185.69 286.94 180.50 288.60 C 180.50 286.43 180.52 284.27 180.55 282.12 M 186.51 301.47 C 182.86 303.65 183.09 309.98 186.98 311.76 C 191.39 313.60 196.21 311.39 199.52 308.40 C 200.01 305.17 199.69 301.88 199.68 298.63 C 195.26 299.26 190.39 298.94 186.51 301.47 Z" />
<path fill="#013a63" opacity="1.00" d=" M 287.38 283.33 C 293.37 279.12 301.33 280.61 307.72 283.08 C 307.75 285.42 307.78 287.75 307.84 290.09 C 304.53 288.14 301.02 286.11 297.07 286.00 C 294.43 285.85 291.33 286.54 289.90 289.00 C 289.40 290.88 289.56 293.34 291.42 294.44 C 295.82 296.96 301.42 296.32 305.62 299.28 C 309.42 302.10 309.80 307.80 307.79 311.80 C 305.83 315.50 301.72 317.36 297.75 318.00 L 292.28 318.00 C 289.15 317.42 286.16 316.35 283.22 315.17 C 283.23 312.77 283.23 310.37 283.21 307.97 C 287.04 310.48 291.29 312.97 296.04 312.71 C 298.30 312.56 300.90 312.00 302.21 309.94 C 302.83 308.05 302.87 305.31 300.91 304.18 C 296.49 301.73 290.90 302.34 286.75 299.28 C 281.77 295.46 282.18 286.80 287.38 283.33 Z" />
<path fill="#013a63" opacity="1.00" d=" M 336.25 282.23 C 342.45 280.85 349.13 279.73 355.30 281.86 C 359.13 283.20 361.58 287.09 361.67 291.08 C 361.90 299.78 361.65 308.50 361.77 317.20 C 359.71 317.23 357.65 317.25 355.60 317.28 C 355.53 316.14 355.46 315.01 355.39 313.89 C 353.00 315.50 350.53 317.03 347.80 318.00 L 341.38 318.00 C 333.30 315.69 330.71 304.31 336.47 298.48 C 341.79 293.92 349.27 294.30 355.82 293.57 C 355.33 291.27 355.27 288.27 352.75 287.18 C 347.38 284.97 341.50 286.95 336.29 288.68 C 336.26 286.53 336.25 284.38 336.25 282.23 M 342.45 301.42 C 338.63 303.57 338.89 310.28 343.08 311.83 C 347.25 313.42 351.88 311.58 354.99 308.67 C 356.11 305.52 355.25 301.96 355.46 298.65 C 351.10 299.25 346.31 298.98 342.45 301.42 Z" />
<path fill="#013a63" opacity="1.00" d=" M 392.31 287.29 C 396.91 280.10 407.83 278.34 414.63 283.31 C 419.64 287.25 419.98 294.11 419.84 299.95 C 411.58 300.08 403.32 299.92 395.07 300.06 C 395.69 304.23 396.68 309.13 400.88 311.16 C 406.96 314.31 413.93 311.56 419.23 308.12 C 419.24 310.42 419.25 312.72 419.25 315.03 C 415.88 316.32 412.44 317.51 408.86 318.00 L 404.26 318.00 C 398.19 317.38 392.28 313.67 390.30 307.71 C 388.17 301.07 388.47 293.27 392.31 287.29 M 395.24 295.22 C 401.46 295.28 407.69 295.25 413.91 295.23 C 413.66 291.14 411.72 286.18 406.99 285.85 C 401.11 284.54 395.64 289.45 395.24 295.22 Z" />
</g>
</svg>
