<svg xmlns="http://www.w3.org/2000/svg">
	<symbol id="signin" viewBox="0 0 482.8 482.8">
		<title>Signin</title>
		<path d="M395.95 210.4h-7.1v-62.9c0-81.3-66.1-147.5-147.5-147.5-81.3 0-147.5 66.1-147.5 147.5 0 7.5 6 13.5 13.5 13.5s13.5-6 13.5-13.5c0-66.4 54-120.5 120.5-120.5 66.4 0 120.5 54 120.5 120.5v62.9h-275c-14.4 0-26.1 11.7-26.1 26.1v168.1c0 43.1 35.1 78.2 78.2 78.2h204.9c43.1 0 78.2-35.1 78.2-78.2V236.5c0-14.4-11.7-26.1-26.1-26.1zm-.9 194.2c0 28.2-22.9 51.2-51.2 51.2h-204.8c-28.2 0-51.2-22.9-51.2-51.2V237.4h307.2v167.2z"/><path d="M241.45 399.1c27.9 0 50.5-22.7 50.5-50.5 0-27.9-22.7-50.5-50.5-50.5-27.9 0-50.5 22.7-50.5 50.5s22.6 50.5 50.5 50.5zm0-74.1c13 0 23.5 10.6 23.5 23.5s-10.5 23.6-23.5 23.6-23.5-10.6-23.5-23.5 10.5-23.6 23.5-23.6z"/>
	</symbol>
	<symbol id="register" viewBox="0 0 469.331 469.331">
		<title>Register</title>
		<path d="M438.931 30.403c-40.4-40.5-106.1-40.5-146.5 0l-268.6 268.5c-2.1 2.1-3.4 4.8-3.8 7.7l-19.9 147.4c-.6 4.2.9 8.4 3.8 11.3 2.5 2.5 6 4 9.5 4 .6 0 1.2 0 1.8-.1l88.8-12c7.4-1 12.6-7.8 11.6-15.2-1-7.4-7.8-12.6-15.2-11.6l-71.2 9.6 13.9-102.8 108.2 108.2c2.5 2.5 6 4 9.5 4s7-1.4 9.5-4l268.6-268.5c19.6-19.6 30.4-45.6 30.4-73.3s-10.8-53.7-30.4-73.2zm-141.3 33l45.1 45.1-245.1 245.1-45.1-45.1 245.1-245.1zm-136.7 353.4l-44.1-44.1 245.1-245.1 44.1 44.1-245.1 245.1zm263.9-264.4l-107.9-107.9c13.7-11.3 30.8-17.5 48.8-17.5 20.5 0 39.7 8 54.2 22.4s22.4 33.7 22.4 54.2c0 18.1-6.2 35.1-17.5 48.8z"/>
	</symbol>
	<symbol id="logoff" viewBox="0 0 471.2 471.2">
		<title>Logoff</title>
		<path d="M227.619 444.2h-122.9c-33.4 0-60.5-27.2-60.5-60.5V87.5c0-33.4 27.2-60.5 60.5-60.5h124.9c7.5 0 13.5-6 13.5-13.5s-6-13.5-13.5-13.5h-124.9c-48.3 0-87.5 39.3-87.5 87.5v296.2c0 48.3 39.3 87.5 87.5 87.5h122.9c7.5 0 13.5-6 13.5-13.5s-6.1-13.5-13.5-13.5z"/><path d="M450.019 226.1l-85.8-85.8c-5.3-5.3-13.8-5.3-19.1 0-5.3 5.3-5.3 13.8 0 19.1l62.8 62.8h-273.9c-7.5 0-13.5 6-13.5 13.5s6 13.5 13.5 13.5h273.9l-62.8 62.8c-5.3 5.3-5.3 13.8 0 19.1 2.6 2.6 6.1 4 9.5 4s6.9-1.3 9.5-4l85.8-85.8c5.4-5.4 5.4-14 .1-19.2z"/>
	</symbol>
	<symbol id="profile" viewBox="0 0 482.9 482.9">
		<title>Profile</title>
		<path d="M239.7 260.2h3.2c29.3-.5 53-10.8 70.5-30.5 38.5-43.4 32.1-117.8 31.4-124.9-2.5-53.3-27.7-78.8-48.5-90.7C280.8 5.2 262.7.4 242.5 0H240.8c-11.1 0-32.9 1.8-53.8 13.7-21 11.9-46.6 37.4-49.1 91.1-.7 7.1-7.1 81.5 31.4 124.9 17.4 19.7 41.1 30 70.4 30.5zm-75.1-152.9c0-.3.1-.6.1-.8 3.3-71.7 54.2-79.4 76-79.4H241.9c27 .6 72.9 11.6 76 79.4 0 .3 0 .6.1.8.1.7 7.1 68.7-24.7 104.5-12.6 14.2-29.4 21.2-51.5 21.4h-1c-22-.2-38.9-7.2-51.4-21.4-31.7-35.6-24.9-103.9-24.8-104.5z"/><path d="M446.8 383.6v-.3c0-.8-.1-1.6-.1-2.5-.6-19.8-1.9-66.1-45.3-80.9-.3-.1-.7-.2-1-.3-45.1-11.5-82.6-37.5-83-37.8-6.1-4.3-14.5-2.8-18.8 3.3-4.3 6.1-2.8 14.5 3.3 18.8 1.7 1.2 41.5 28.9 91.3 41.7 23.3 8.3 25.9 33.2 26.6 56 0 .9 0 1.7.1 2.5.1 9-.5 22.9-2.1 30.9-16.2 9.2-79.7 41-176.3 41-96.2 0-160.1-31.9-176.4-41.1-1.6-8-2.3-21.9-2.1-30.9 0-.8.1-1.6.1-2.5.7-22.8 3.3-47.7 26.6-56 49.8-12.8 89.6-40.6 91.3-41.7 6.1-4.3 7.6-12.7 3.3-18.8-4.3-6.1-12.7-7.6-18.8-3.3-.4.3-37.7 26.3-83 37.8-.4.1-.7.2-1 .3-43.4 14.9-44.7 61.2-45.3 80.9 0 .9 0 1.7-.1 2.5v.3c-.1 5.2-.2 31.9 5.1 45.3 1 2.6 2.8 4.8 5.2 6.3 3 2 74.9 47.8 195.2 47.8s192.2-45.9 195.2-47.8c2.3-1.5 4.2-3.7 5.2-6.3 5-13.3 4.9-40 4.8-45.2z"/>
	</symbol>
	<symbol id="admin" viewBox="0 0 478.703 478.703">
		<title>Admin</title>
		<path d="M454.2 189.101l-33.6-5.7c-3.5-11.3-8-22.2-13.5-32.6l19.8-27.7c8.4-11.8 7.1-27.9-3.2-38.1l-29.8-29.8c-5.6-5.6-13-8.7-20.9-8.7-6.2 0-12.1 1.9-17.1 5.5l-27.8 19.8c-10.8-5.7-22.1-10.4-33.8-13.9l-5.6-33.2a29.54 29.54 0 0 0-29.2-24.7h-42.1c-14.5 0-26.8 10.4-29.2 24.7l-5.8 34c-11.2 3.5-22.1 8.1-32.5 13.7l-27.5-19.8c-5-3.6-11-5.5-17.2-5.5-7.9 0-15.4 3.1-20.9 8.7l-29.9 29.8c-10.2 10.2-11.6 26.3-3.2 38.1l20 28.1c-5.5 10.5-9.9 21.4-13.3 32.7l-33.2 5.6a29.54 29.54 0 0 0-24.7 29.2v42.1c0 14.5 10.4 26.8 24.7 29.2l34 5.8c3.5 11.2 8.1 22.1 13.7 32.5l-19.7 27.4c-8.4 11.8-7.1 27.9 3.2 38.1l29.8 29.8c5.6 5.6 13 8.7 20.9 8.7 6.2 0 12.1-1.9 17.1-5.5l28.1-20c10.1 5.3 20.7 9.6 31.6 13l5.6 33.6a29.54 29.54 0 0 0 29.2 24.7h42.2c14.5 0 26.8-10.4 29.2-24.7l5.7-33.6c11.3-3.5 22.2-8 32.6-13.5l27.7 19.8c5 3.6 11 5.5 17.2 5.5 7.9 0 15.3-3.1 20.9-8.7l29.8-29.8c10.2-10.2 11.6-26.3 3.2-38.1l-19.8-27.8c5.5-10.5 10.1-21.4 13.5-32.6l33.6-5.6a29.54 29.54 0 0 0 24.7-29.2v-42.1c.2-14.5-10.2-26.8-24.5-29.2zm-2.3 71.3c0 1.3-.9 2.4-2.2 2.6l-42 7c-5.3.9-9.5 4.8-10.8 9.9-3.8 14.7-9.6 28.8-17.4 41.9-2.7 4.6-2.5 10.3.6 14.7l24.7 34.8c.7 1 .6 2.5-.3 3.4l-29.8 29.8c-.7.7-1.4.8-1.9.8-.6 0-1.1-.2-1.5-.5l-34.7-24.7c-4.3-3.1-10.1-3.3-14.7-.6-13.1 7.8-27.2 13.6-41.9 17.4-5.2 1.3-9.1 5.6-9.9 10.8l-7.1 42c-.2 1.3-1.3 2.2-2.6 2.2h-42.1c-1.3 0-2.4-.9-2.6-2.2l-7-42c-.9-5.3-4.8-9.5-9.9-10.8-14.3-3.7-28.1-9.4-41-16.8-2.1-1.2-4.5-1.8-6.8-1.8-2.7 0-5.5.8-7.8 2.5l-35 24.9c-.5.3-1 .5-1.5.5-.4 0-1.2-.1-1.9-.8l-29.8-29.8c-.9-.9-1-2.3-.3-3.4l24.6-34.5c3.1-4.4 3.3-10.2.6-14.8-7.8-13-13.8-27.1-17.6-41.8-1.4-5.1-5.6-9-10.8-9.9l-42.3-7.2c-1.3-.2-2.2-1.3-2.2-2.6v-42.1c0-1.3.9-2.4 2.2-2.6l41.7-7c5.3-.9 9.6-4.8 10.9-10 3.7-14.7 9.4-28.9 17.1-42 2.7-4.6 2.4-10.3-.7-14.6l-24.9-35c-.7-1-.6-2.5.3-3.4l29.8-29.8c.7-.7 1.4-.8 1.9-.8.6 0 1.1.2 1.5.5l34.5 24.6c4.4 3.1 10.2 3.3 14.8.6 13-7.8 27.1-13.8 41.8-17.6 5.1-1.4 9-5.6 9.9-10.8l7.2-42.3c.2-1.3 1.3-2.2 2.6-2.2h42.1c1.3 0 2.4.9 2.6 2.2l7 41.7c.9 5.3 4.8 9.6 10 10.9 15.1 3.8 29.5 9.7 42.9 17.6 4.6 2.7 10.3 2.5 14.7-.6l34.5-24.8c.5-.3 1-.5 1.5-.5.4 0 1.2.1 1.9.8l29.8 29.8c.9.9 1 2.3.3 3.4l-24.7 34.7c-3.1 4.3-3.3 10.1-.6 14.7 7.8 13.1 13.6 27.2 17.4 41.9 1.3 5.2 5.6 9.1 10.8 9.9l42 7.1c1.3.2 2.2 1.3 2.2 2.6v42.1h-.1z"/><path d="M239.4 136.001c-57 0-103.3 46.3-103.3 103.3s46.3 103.3 103.3 103.3 103.3-46.3 103.3-103.3-46.3-103.3-103.3-103.3zm0 179.6c-42.1 0-76.3-34.2-76.3-76.3s34.2-76.3 76.3-76.3 76.3 34.2 76.3 76.3-34.2 76.3-76.3 76.3z"/>
	</symbol>
	<symbol id="left-arrow" viewBox="0 0 31.494 31.494">
		<title>Left Arrow</title>
		<path d="M10.273 5.009a1.112 1.112 0 0 1 1.587 0 1.12 1.12 0 0 1 0 1.571l-8.047 8.047h26.554c.619 0 1.127.492 1.127 1.111s-.508 1.127-1.127 1.127H3.813l8.047 8.032c.429.444.429 1.159 0 1.587a1.112 1.112 0 0 1-1.587 0L.321 16.532a1.12 1.12 0 0 1 0-1.571l9.952-9.952z"/>
	</symbol>
	<symbol id="right-arrow" viewBox="0 0 31.49 31.49">
		<title>Right Arrow</title>
		<path d="M21.205 5.007a1.112 1.112 0 0 0-1.587 0 1.12 1.12 0 0 0 0 1.571l8.047 8.047H1.111A1.106 1.106 0 0 0 0 15.737c0 .619.492 1.127 1.111 1.127h26.554l-8.047 8.032c-.429.444-.429 1.159 0 1.587a1.112 1.112 0 0 0 1.587 0l9.952-9.952a1.093 1.093 0 0 0 0-1.571l-9.952-9.953z"/>
	</symbol>
	<symbol id="phone" viewBox="0 0 473.806 473.806">
		<title>Phone</title>
		<path d="M374.456 293.506c-9.7-10.1-21.4-15.5-33.8-15.5-12.3 0-24.1 5.3-34.2 15.4l-31.6 31.5c-2.6-1.4-5.2-2.7-7.7-4-3.6-1.8-7-3.5-9.9-5.3-29.6-18.8-56.5-43.3-82.3-75-12.5-15.8-20.9-29.1-27-42.6 8.2-7.5 15.8-15.3 23.2-22.8 2.8-2.8 5.6-5.7 8.4-8.5 21-21 21-48.2 0-69.2l-27.3-27.3c-3.1-3.1-6.3-6.3-9.3-9.5-6-6.2-12.3-12.6-18.8-18.6-9.7-9.6-21.3-14.7-33.5-14.7s-24 5.1-34 14.7l-.2.2-34 34.3c-12.8 12.8-20.1 28.4-21.7 46.5-2.4 29.2 6.2 56.4 12.8 74.2 16.2 43.7 40.4 84.2 76.5 127.6 43.8 52.3 96.5 93.6 156.7 122.7 23 10.9 53.7 23.8 88 26 2.1.1 4.3.2 6.3.2 23.1 0 42.5-8.3 57.7-24.8.1-.2.3-.3.4-.5 5.2-6.3 11.2-12 17.5-18.1 4.3-4.1 8.7-8.4 13-12.9 9.9-10.3 15.1-22.3 15.1-34.6 0-12.4-5.3-24.3-15.4-34.3l-54.9-55.1zm35.8 105.3c-.1 0-.1.1 0 0-3.9 4.2-7.9 8-12.2 12.2-6.5 6.2-13.1 12.7-19.3 20-10.1 10.8-22 15.9-37.6 15.9-1.5 0-3.1 0-4.6-.1-29.7-1.9-57.3-13.5-78-23.4-56.6-27.4-106.3-66.3-147.6-115.6-34.1-41.1-56.9-79.1-72-119.9-9.3-24.9-12.7-44.3-11.2-62.6 1-11.7 5.5-21.4 13.8-29.7l34.1-34.1c4.9-4.6 10.1-7.1 15.2-7.1 6.3 0 11.4 3.8 14.6 7l.3.3c6.1 5.7 11.9 11.6 18 17.9 3.1 3.2 6.3 6.4 9.5 9.7l27.3 27.3c10.6 10.6 10.6 20.4 0 31-2.9 2.9-5.7 5.8-8.6 8.6-8.4 8.6-16.4 16.6-25.1 24.4-.2.2-.4.3-.5.5-8.6 8.6-7 17-5.2 22.7l.3.9c7.1 17.2 17.1 33.4 32.3 52.7l.1.1c27.6 34 56.7 60.5 88.8 80.8 4.1 2.6 8.3 4.7 12.3 6.7 3.6 1.8 7 3.5 9.9 5.3.4.2.8.5 1.2.7 3.4 1.7 6.6 2.5 9.9 2.5 8.3 0 13.5-5.2 15.2-6.9l34.2-34.2c3.4-3.4 8.8-7.5 15.1-7.5 6.2 0 11.3 3.9 14.4 7.3l.2.2 55.1 55.1c10.3 10.2 10.3 20.7.1 31.3zM256.056 112.706c26.2 4.4 50 16.8 69 35.8s31.3 42.8 35.8 69c1.1 6.6 6.8 11.2 13.3 11.2.8 0 1.5-.1 2.3-.2 7.4-1.2 12.3-8.2 11.1-15.6-5.4-31.7-20.4-60.6-43.3-83.5s-51.8-37.9-83.5-43.3c-7.4-1.2-14.3 3.7-15.6 11s3.5 14.4 10.9 15.6zM473.256 209.006c-8.9-52.2-33.5-99.7-71.3-137.5s-85.3-62.4-137.5-71.3c-7.3-1.3-14.2 3.7-15.5 11-1.2 7.4 3.7 14.3 11.1 15.6 46.6 7.9 89.1 30 122.9 63.7 33.8 33.8 55.8 76.3 63.7 122.9 1.1 6.6 6.8 11.2 13.3 11.2.8 0 1.5-.1 2.3-.2 7.3-1.1 12.3-8.1 11-15.4z"/>
	</symbol>
	<symbol id="email" viewBox="0 0 483.3 483.3">
		<title>Email</title>
		<path d="M424.3 57.75H59.1c-32.6 0-59.1 26.5-59.1 59.1v249.6c0 32.6 26.5 59.1 59.1 59.1h365.1c32.6 0 59.1-26.5 59.1-59.1v-249.5c.1-32.6-26.4-59.2-59-59.2zm32.1 308.7c0 17.7-14.4 32.1-32.1 32.1H59.1c-17.7 0-32.1-14.4-32.1-32.1v-249.5c0-17.7 14.4-32.1 32.1-32.1h365.1c17.7 0 32.1 14.4 32.1 32.1v249.5h.1z"/><path d="M304.8 238.55l118.2-106c5.5-5 6-13.5 1-19.1-5-5.5-13.5-6-19.1-1l-163 146.3-31.8-28.4c-.1-.1-.2-.2-.2-.3-.7-.7-1.4-1.3-2.2-1.9L78.3 112.35c-5.6-5-14.1-4.5-19.1 1.1-5 5.6-4.5 14.1 1.1 19.1l119.6 106.9-119.1 111.5c-5.4 5.1-5.7 13.6-.6 19.1 2.7 2.8 6.3 4.3 9.9 4.3 3.3 0 6.6-1.2 9.2-3.6l120.9-113.1 32.8 29.3c2.6 2.3 5.8 3.4 9 3.4s6.5-1.2 9-3.5l33.7-30.2 120.2 114.2c2.6 2.5 6 3.7 9.3 3.7 3.6 0 7.1-1.4 9.8-4.2 5.1-5.4 4.9-14-.5-19.1l-118.7-112.7z"/>
	</symbol>
	<symbol id="address" viewBox="0 0 54.757 54.757">
		<title>Address</title>
		<path d="M27.557 12c-3.859 0-7 3.141-7 7s3.141 7 7 7 7-3.141 7-7-3.141-7-7-7zm0 12c-2.757 0-5-2.243-5-5s2.243-5 5-5 5 2.243 5 5-2.243 5-5 5z"/><path d="M40.94 5.617A19.052 19.052 0 0 0 27.38 0a19.05 19.05 0 0 0-13.56 5.617c-6.703 6.702-7.536 19.312-1.804 26.952L27.38 54.757 42.721 32.6c5.755-7.671 4.922-20.281-1.781-26.983zm.159 25.814L27.38 51.243 13.639 31.4C8.44 24.468 9.185 13.08 15.235 7.031 18.479 3.787 22.792 2 27.38 2s8.901 1.787 12.146 5.031c6.05 6.049 6.795 17.437 1.573 24.4z"/>
	</symbol>
	<symbol id="advanced-search" viewBox="0 0 512 512">
		<title>Advanced Search</title>
		<path d="M475.681 132.77l-179.2-128C292.026 1.587 286.813 0 281.599 0s-10.428 1.587-14.882 4.77l-179.2 128a25.598 25.598 0 1 0 14.882 46.429h25.6v14.43a152.72 152.72 0 0 1 25.6-16.811V153.6h-51.2l179.2-128 179.2 128h-51.2V384h-48.828a153.154 153.154 0 0 1-16.811 25.6h65.638c14.14 0 25.6-11.46 25.6-25.6V179.2h25.6a25.6 25.6 0 0 0 14.883-46.43z"/><path d="M315.032 222.558c-24.175-24.175-56.32-37.487-90.513-37.487-34.193 0-66.33 13.312-90.513 37.487-46.805 46.805-49.135 120.832-8.132 171.059L25.599 493.901 43.698 512l100.25-100.25c22.784 18.654 50.731 29.321 80.572 29.321 34.193 0 66.338-13.312 90.513-37.495 24.175-24.175 37.487-56.32 37.487-90.505-.001-34.193-13.313-66.338-37.488-90.513zm-18.099 162.918c-19.994 19.994-46.199 29.995-72.405 29.995-26.189 0-52.378-9.984-72.363-29.961l-.077-.077c-39.953-39.996-39.945-104.798.034-144.768 19.994-19.994 46.199-29.995 72.405-29.995s52.412 10.001 72.405 29.995c39.988 39.988 39.988 104.824.001 144.811z"/>
	</symbol>
	<symbol id="subdivision" viewBox="0 0 279.131 279.131">
		<title>Subdivision</title>
		<path d="M276.346 109.821l-93.71-70.666a7 7 0 0 0-8.43 0l-15.405 11.617-15.405-11.617a7 7 0 0 0-8.43 0l-15.021 11.327-15.021-11.327a7 7 0 0 0-8.43 0l-93.71 70.666A7.003 7.003 0 0 0 0 115.41v118.977a7 7 0 0 0 7 7h265.131a7 7 0 0 0 7-7V115.41a7.001 7.001 0 0 0-2.785-5.589zm-11.215 117.566h-25.238V115.41a7 7 0 0 0-2.785-5.589l-66.68-50.282 7.993-6.028 86.71 65.388v108.488zm-63.71 0V115.41a7 7 0 0 0-2.785-5.589L131.572 59.25l7.61-5.738 86.711 65.388v108.488h-24.472zm-89.247-.001H89.246v-50.76h22.928v50.76zm14 0v-57.76a7 7 0 0 0-7-7H82.246a7 7 0 0 0-7 7v57.76H14V118.898l86.71-65.388 86.711 65.388v108.488h-61.247z"/>
	</symbol>
	<symbol id="map-search" viewBox="0 0 512 512">
		<title>Map Search</title>
		<path d="M367.361 80.911C331.836 29.494 275.532 0 212.899 0 150.238 0 93.94 29.407 58.453 80.689c-35.341 51.054-43.515 115.894-21.896 173.364 5.787 15.626 14.986 30.807 27.292 45.055l136.678 160a16.278 16.278 0 0 0 12.35 5.706h.022a16.26 16.26 0 0 0 12.339-5.668l36.339-42.305-24.689-21.207-23.957 27.9L88.533 277.906c-9.812-11.363-17.031-23.186-21.494-35.233-17.887-47.55-11.102-101.185 18.164-143.463 29.332-42.37 75.873-66.669 127.696-66.669 51.786 0 98.327 24.374 127.685 66.869 29.272 42.365 36.068 95.913 18.072 143.523-2.376 6.666-5.906 13.055-9.036 18.424l28.106 16.396c3.889-6.66 8.304-14.709 11.471-23.599 21.679-57.321 13.516-122.086-21.836-173.243z"/><path d="M212.899 96.542c-50.24 0-91.119 40.879-91.119 91.119s40.873 91.119 91.119 91.119 91.119-40.879 91.119-91.119-40.879-91.119-91.119-91.119zm0 149.695c-32.298 0-58.576-26.278-58.576-58.576s26.278-58.576 58.576-58.576 58.576 26.278 58.576 58.576-26.278 58.576-58.576 58.576zM341.441 250.034c-64.298 0-116.61 52.312-116.61 116.61s52.312 116.61 116.61 116.61c64.304 0 116.61-52.312 116.61-116.61s-52.312-116.61-116.61-116.61zm0 200.678c-46.351 0-84.068-37.711-84.068-84.068s37.711-84.068 84.068-84.068 84.068 37.711 84.068 84.068-37.717 84.068-84.068 84.068z"/><path d="M482.518 484.171l-58.034-57.497c-6.389-6.329-16.694-6.275-23.007.108-6.324 6.384-6.275 16.683.108 23.007l58.034 57.497a16.205 16.205 0 0 0 11.449 4.713c4.187 0 8.38-1.605 11.558-4.822 6.324-6.382 6.275-16.682-.108-23.006z"/>
	</symbol>
	<symbol id="beds" viewBox="0 0 374 374">
		<title>Beds</title>
		<path d="M337.6 158.6V97.8c0-27.2-19.2-37.2-37.2-37.2h-228c-18 0-37.2 9.6-37.2 37.2v60.8c-18 2-35.2 14-35.2 41.6v47.2c0 8 6.4 14.4 14.4 14.4h4.8V299c0 8 6.4 14.4 14.4 14.4h13.6c8 0 14.4-6.4 14.4-14.4v-37.6h250.8V299c0 8 6.4 14.4 14.4 14.4h13.6c8 0 14.4-6.4 14.4-14.4v-37.6h4.8c8 0 14.4-6.4 14.4-14.4v-46.8c-1.2-27.6-18.4-39.6-36.4-41.6zM48.8 97.8h.8C49.6 79 62 75 72.4 75h228c10.4 0 22.8 4 22.8 22.8v60.4h-10.8v-34.4c0-8-6.4-14.4-14.4-14.4h-88c-8 0-14.4 6.4-14.4 14.4v34.4h-16.8v-34.4c0-8-6.4-14.4-14.4-14.4h-88c-8 0-14.4 6.4-14.4 14.4v34.4H48.8V97.8zm249.2 26v34.4h-88v-34.4h88zm-132.8 0v34.4h-88v-34.4h88zM46.8 299H33.2v-37.6h13.6V299zm292.8 0H326v-37.6h13.6V299zm18.8-51.6H14v-21.2h344.4v21.2zm0-35.6H14v-11.6c0-24 17.6-27.6 27.6-27.6h289.2c10.4 0 27.6 3.6 27.6 27.6v11.6z"/>
	</symbol>
	<symbol id="baths" viewBox="0 0 512 512">
		<title>Baths</title>
		<path d="M486.4 273.067h-8.533v-179.2c0-42.667-34.133-76.8-76.8-76.8-37.77 0-64.935 28.006-67.974 69.041-19.829 3.748-34.426 20.826-34.426 41.892 0 5.12 3.413 8.533 8.533 8.533h68.267c5.12 0 8.533-3.413 8.533-8.533 0-20.833-14.274-37.769-33.767-41.767 2.55-27.116 18.836-52.1 50.834-52.1 33.28 0 59.733 26.453 59.733 59.733v179.2H203.975c-3.86-19.681-20.878-34.133-41.841-34.133-8.533-10.24-20.48-17.067-34.133-17.067-16.213 0-30.72 9.387-37.547 23.04-6.827-3.413-14.507-5.973-22.187-5.973-20.963 0-37.981 14.452-41.841 34.133H25.6c-14.507 0-25.6 11.093-25.6 25.6 0 14.507 11.093 25.6 25.6 25.6h10.255l23.025 91.307c6.827 26.453 30.72 45.227 58.027 45.227h6.827l-11.093 22.187c-2.56 4.267-.853 9.387 3.413 11.093.853.853 2.56.853 3.413.853 3.413 0 5.973-1.707 7.68-4.267L142.08 460.8h236.8l14.507 29.013c1.707 3.413 4.267 5.12 7.68 5.12 1.707 0 2.56 0 3.413-1.707 3.413-1.707 5.12-6.827 3.413-11.093l-10.689-21.379c26.419-.938 49.266-19.39 55.916-44.328l23.24-92.16h10.04c14.507 0 25.6-11.093 25.6-25.6 0-14.506-11.093-25.599-25.6-25.599zm-120.32-153.6h-48.64c3.413-10.24 13.653-17.067 24.747-17.067s20.48 6.827 23.893 17.067zM68.267 256c7.68 0 14.507 3.413 20.48 9.387 1.707 2.56 5.12 3.413 8.533 2.56s5.12-3.413 5.973-6.827c2.56-12.8 12.8-22.187 25.6-22.187 9.387 0 17.92 4.267 22.187 12.8 1.707 3.413 5.973 5.12 9.387 4.267h2.56c11.093 0 20.48 6.827 23.893 17.067H44.373C47.787 262.827 57.173 256 68.267 256zM437.76 411.307c-5.12 18.773-22.187 32.427-41.813 32.427H117.76c-19.627 0-36.693-13.653-41.813-32.427l-22.187-87.04h404.48l-20.48 87.04zM486.4 307.2H25.6c-5.12 0-8.533-3.413-8.533-8.533s3.413-8.533 8.533-8.533h460.8c5.12 0 8.533 3.413 8.533 8.533s-3.413 8.533-8.533 8.533z"/><path d="M307.2 174.933c5.12 0 8.533-3.413 8.533-8.533v-4.267c0-5.12-3.413-8.533-8.533-8.533s-8.533 3.413-8.533 8.533v4.267c0 5.12 3.413 8.533 8.533 8.533zM307.2 214.187c5.12 0 8.533-4.267 8.533-8.533v-9.387c0-5.12-3.413-8.533-8.533-8.533s-8.533 3.413-8.533 8.533v9.387c0 5.119 3.413 8.533 8.533 8.533zM307.2 247.467c5.12 0 8.533-3.413 8.533-8.533v-4.267c0-5.12-3.413-8.533-8.533-8.533s-8.533 3.413-8.533 8.533v4.267c0 5.119 3.413 8.533 8.533 8.533zM341.333 174.933c5.12 0 8.533-3.413 8.533-8.533v-4.267c0-5.12-3.413-8.533-8.533-8.533-5.12 0-8.533 3.413-8.533 8.533v4.267c0 5.12 3.413 8.533 8.533 8.533zM332.8 205.653c0 5.12 3.413 8.533 8.533 8.533 5.12 0 8.533-4.267 8.533-8.533v-9.387c0-5.12-3.413-8.533-8.533-8.533-5.12 0-8.533 3.413-8.533 8.533v9.387zM332.8 238.933c0 5.12 3.413 8.533 8.533 8.533 5.12 0 8.533-3.413 8.533-8.533v-4.267c0-5.12-3.413-8.533-8.533-8.533-5.12 0-8.533 3.413-8.533 8.533v4.267zM375.467 174.933c5.12 0 8.533-3.413 8.533-8.533v-4.267c0-5.12-3.413-8.533-8.533-8.533s-8.533 3.413-8.533 8.533v4.267c-.001 5.12 3.413 8.533 8.533 8.533zM366.933 205.653c0 5.12 3.413 8.533 8.533 8.533S384 209.92 384 205.653v-9.387c0-5.12-3.413-8.533-8.533-8.533s-8.533 3.413-8.533 8.533v9.387zM366.933 238.933c0 5.12 3.413 8.533 8.533 8.533s8.533-3.413 8.533-8.533v-4.267c0-5.12-3.413-8.533-8.533-8.533s-8.533 3.413-8.533 8.533v4.267z"/>
	</symbol>
	<symbol id="sqft" viewBox="0 0 512 512">
		<title>Sqft</title>
		<path d="M501.801 0H10.199C4.566 0 0 4.566 0 10.199v491.602C0 507.434 4.566 512 10.199 512h491.602c5.633 0 10.199-4.566 10.199-10.199V10.199C512 4.566 507.434 0 501.801 0zm-10.199 491.602H20.398V20.398h471.203v471.204z"></path><path d="M451.453 50.348H278.217a10.198 10.198 0 0 0-7.212 17.411l44.922 44.922-71.219 71.219a10.2 10.2 0 0 0 0 14.424l68.968 68.968a10.2 10.2 0 0 0 14.425.001l71.218-71.219 44.922 44.922a10.2 10.2 0 0 0 17.411-7.212V60.548c.001-5.633-4.566-10.2-10.199-10.2zm-10.2 158.812l-34.723-34.723a10.2 10.2 0 0 0-14.424 0l-71.218 71.219-54.544-54.544 71.219-71.219a10.2 10.2 0 0 0 0-14.424L302.84 70.746h138.413V209.16zM270.986 309.981l-68.968-68.968c-3.984-3.982-10.442-3.982-14.425 0l-71.204 71.204-44.922-44.922a10.199 10.199 0 0 0-17.411 7.213v173.238c0 5.633 4.566 10.199 10.199 10.199h173.238a10.2 10.2 0 0 0 7.212-17.412l-44.922-44.922 71.204-71.204c3.982-3.985 3.982-10.443-.001-14.426zm-92.841 78.417c-3.983 3.984-3.983 10.442 0 14.425l34.723 34.723H74.454V299.131l34.722 34.723c3.984 3.983 10.442 3.983 14.425 0l71.204-71.204 54.544 54.544-71.204 71.204zM64.255 96.892c-5.633 0-10.199 4.566-10.199 10.199v54.056c0 5.633 4.566 10.199 10.199 10.199s10.199-4.566 10.199-10.199v-54.056c0-5.632-4.566-10.199-10.199-10.199zM64.255 56.879c-5.633 0-10.199 4.566-10.199 10.199v4.316c0 5.633 4.566 10.199 10.199 10.199s10.199-4.567 10.199-10.199v-4.316c0-5.633-4.566-10.199-10.199-10.199z"></path>
	</symbol>
	<symbol id="acres" viewBox="0 0 463 463">
		<title>Acres</title>
		<path d="M455.5 384c-48.034 0-76.61-12.492-104.245-24.573C324.909 347.91 297.666 336 255.5 336c-36.417 0-71.335 14.282-102.144 26.882C126.802 373.742 101.721 384 79.5 384H55.154c14.219-6.338 30.437-14.263 48.182-22.934C170.87 328.068 254.917 287 319.5 287c78.971 0 130.992 38.121 131.508 38.506A7.5 7.5 0 0 0 460 313.5c-1.883-1.412-39.723-29.28-101-38.536v-12.7c13.759-2.731 24-12.795 24-24.764 0-5.857-2.852-20.228-7.46-33.233C368.8 185.246 360.937 176 351.5 176c-6.592 0-12.416 4.519-17.626 13.723-1.536-9.212-4.573-21.669-8.669-33.35C316.623 131.898 306.906 120 295.5 120s-21.123 11.898-29.705 36.374c-6.05 17.254-9.795 36.213-9.795 43.883 0 15.447 13.795 28.345 32 31.171v36.221c-43.449-22.454-87.086-31.944-129.882-28.203-34.582 3.024-61.274 14.162-77.944 23.273C58.026 254.214 33.985 248 7.5 248a7.5 7.5 0 0 0 0 15c43.405 0 80.988 18.669 114.147 35.14 14.591 7.248 27.94 13.878 40.541 18.365-22.703 10.204-44.824 21.012-65.437 31.083C58.429 366.314 22.233 384 7.5 384a7.5 7.5 0 0 0 0 15h72c25.17 0 51.577-10.8 79.534-22.234C190.006 364.099 222.033 351 255.5 351c39.031 0 63.666 10.77 89.747 22.171C374.294 385.869 404.331 399 455.5 399a7.5 7.5 0 0 0 0-15zm-136-112c-5.394 0-10.9.265-16.5.767v-41.34c7.2-1.117 13.71-3.806 18.949-7.61-1.254 5.839-1.949 10.797-1.949 13.683 0 11.968 10.241 22.032 24 24.764v10.874A265.063 265.063 0 0 0 319.5 272zm21.407-60.715c4.685-13.967 8.987-19.067 10.593-20.142 1.606 1.075 5.908 6.175 10.593 20.142C365.896 222.622 368 233.982 368 237.5c0 3.899-3.752 7.459-9 9.261V239.5a7.5 7.5 0 0 0-15 0v7.261c-5.248-1.802-9-5.362-9-9.261 0-3.518 2.104-14.878 5.907-26.215zM271 200.257c0-5.593 3.405-23.105 8.95-38.919C287.618 139.47 294.166 135 295.5 135s7.882 4.47 15.55 26.337c5.545 15.814 8.95 33.326 8.95 38.919 0 7.301-7.255 13.687-17 15.911V199.5a7.5 7.5 0 0 0-15 0v16.668c-9.745-2.224-17-8.611-17-15.911zm-142.68 84.449c-9.589-4.763-19.534-9.701-29.895-14.353 15.151-6.916 35.793-13.76 61-15.965 37.499-3.277 75.856 4.422 114.272 22.887-28.88 6.102-59.327 16.942-89.296 29.553-16.065-2.262-34.655-11.478-56.081-22.122zM71.5 135h17.223a39.271 39.271 0 0 0 6.061 14.61l-12.185 12.185a7.5 7.5 0 0 0 5.303 12.803 7.474 7.474 0 0 0 5.303-2.197l12.185-12.185a39.304 39.304 0 0 0 14.61 6.061V183.5a7.5 7.5 0 0 0 15 0v-17.223a39.288 39.288 0 0 0 14.61-6.061l12.185 12.185c1.464 1.464 3.384 2.197 5.303 2.197s3.839-.732 5.303-2.197a7.5 7.5 0 0 0 0-10.606l-12.185-12.185a39.288 39.288 0 0 0 6.061-14.61H183.5a7.5 7.5 0 0 0 0-15h-17.223a39.271 39.271 0 0 0-6.061-14.61l12.185-12.185a7.5 7.5 0 0 0 0-10.606 7.5 7.5 0 0 0-10.606 0L149.61 94.784A39.304 39.304 0 0 0 135 88.723V71.5a7.5 7.5 0 0 0-15 0v17.223a39.288 39.288 0 0 0-14.61 6.061L93.205 82.599a7.5 7.5 0 0 0-10.606 0 7.5 7.5 0 0 0 0 10.606l12.185 12.185A39.288 39.288 0 0 0 88.723 120H71.5a7.5 7.5 0 0 0 0 15zm56-32c13.509 0 24.5 10.991 24.5 24.5S141.009 152 127.5 152 103 141.009 103 127.5s10.991-24.5 24.5-24.5z"></path>
	</symbol>
	<symbol id="mls" viewBox="0 0 693 288">
		<title>MLS</title>
		<path d="M306.4 0h6.23c2.76.59 6.05 1.38 7.3 4.24.68 2.08.49 4.31.61 6.47-1.48.02-2.94.03-4.41.05-.64-2.11-.6-4.93-2.96-5.94-5.33-2.49-14.06.35-13.66 7.25 4.91 3.84 12.41 2.08 16.94 6.56 2.89 4.84-.37 11.33-4.92 13.93-5.43 3-12.46 3.77-18.2 1.23-3.98-1.92-4.04-6.73-3.58-10.53 1.49-.01 2.98-.03 4.48-.05.36 2.25-.12 5.12 2.13 6.53 3.03 1.91 6.96 1.6 10.3.77 3.32-.81 6.42-3.89 5.8-7.52-4.2-4.77-11.93-2.77-16.64-6.79-2.44-2.8-1.1-6.91.66-9.69 2.15-3.55 6.04-5.46 9.92-6.51zM419.41 0h5.3c2.71.72 5.61 1.65 7.39 3.96 1.61 2.05 1.51 4.81 1.98 7.25-1.51.01-3 .03-4.5.04-.99-2.14-1.49-4.95-3.85-6.05-4.13-1.95-9.27-1.03-12.82 1.71-4.99 3.76-7.55 10.03-7.86 16.14-.23 3.03 1.3 6.41 4.34 7.43 4.5 1.51 9.72.34 13.28-2.75 2.24-1.88 3.37-4.64 4.63-7.2-3.64-.04-7.28-.04-10.92-.05.37-1.41.74-2.82 1.12-4.22 5.13-.01 10.25-.01 15.38 0-1.66 6.01-3.3 12.01-4.98 18-.79 0-2.38-.01-3.17-.02l.12-3.72c-3.32 2.18-6.85 4.35-10.9 4.64-4.24.45-9.3-.35-11.82-4.17-3.39-4.71-2.31-11.05-.35-16.13 2.85-7.53 9.55-13.62 17.63-14.86zM466.54 0h6.11c2.69.65 5.99 1.4 7.2 4.23.7 2.08.48 4.33.57 6.5l-4.4.03c-.65-2.09-.5-4.97-2.93-5.89-3.5-1.52-7.9-1.09-10.98 1.19-1.87 1.52-3.54 4.4-2.02 6.69 4.58 2.37 10.06 2.09 14.62 4.52 3.06 1.65 3.27 5.71 2.12 8.62-1.75 5.45-7.39 8.59-12.82 9.15-4.4.48-9.82.58-12.96-3.1-2.24-2.35-1.46-5.77-1.35-8.68l4.4-.03c.27 1.84.18 3.81 1.03 5.51 2.19 2.48 5.87 2.56 8.91 2.25 3.22-.31 6.9-1.76 7.99-5.11.77-1.59.48-3.96-1.42-4.54-4.94-2.84-12.32-1.39-15.8-6.48-1.83-7.28 4.92-13.8 11.73-14.86zM613.47 0h5.32c2.49.57 5.17 1.31 6.88 3.37 1.78 2.09 1.67 5.01 2.13 7.57-1.5.02-2.99.03-4.48.04-.99-2.23-1.54-5.24-4.16-6.14-4.1-1.45-8.85-.44-12.23 2.22-4.6 3.54-6.85 9.37-7.4 15.01-.26 2.72.34 5.94 2.79 7.54 3.55 2.17 8.27 1.69 11.69-.52 2.8-1.73 4.48-4.65 6.25-7.33l4.86.06c-2.51 4.67-5.65 9.42-10.72 11.57-5.43 2.44-12.83 3.06-17.38-1.44-3.92-4.46-2.9-11.03-1.22-16.23 2.49-7.94 9.28-14.54 17.67-15.72zM9.64.74c2.28.01 4.55.01 6.83.02.75 9.31 1.36 18.64 2.05 27.96C24.33 19.4 30.12 10.08 35.9.75c2.29 0 4.58 0 6.87.01-3 11.16-6.17 22.28-9.16 33.45-1.62.02-3.24.03-4.85.05 2.45-8.97 4.97-17.93 7.43-26.89-5.67 8.93-11.12 17.99-16.79 26.92l-4.83-.06c-.67-9.1-1.21-18.21-1.96-27.31-1.55 5.43-2.6 11.01-4.34 16.38-1.49 3.26-1.76 6.9-2.75 10.28-1.64 1.06-3.71.17-5.52.17v-.53c.2-.26.59-.78.79-1.04C4.1 21.81 6.62 11.2 9.64.74zM43.63 23.47c1.99-7.59 4.21-15.13 6.21-22.72 1.66 0 3.31.01 4.97.01-1.91 7.08-3.97 14.12-5.83 21.22-.8 2.74-.99 6.54 1.92 8.12 5.56 2.65 12.9-.56 14.84-6.41 2.43-7.55 4.27-15.28 6.44-22.92 1.65 0 3.3-.01 4.96-.02-2.15 7.66-4.1 15.37-6.4 22.98-2.91 9.46-14.83 14.2-23.63 10.11-3.77-1.87-4.55-6.65-3.48-10.37zM84.31.76h4.95c-2.71 9.74-5.37 19.5-8.07 29.24h17.36c-.38 1.42-.77 2.84-1.15 4.25-7.43 0-14.87-.02-22.3.01 3.02-11.18 6.14-22.34 9.21-33.5zM108.09.75c9.35.01 18.71-.01 28.06.01-.37 1.41-.73 2.82-1.1 4.24-3.88 0-7.77-.01-11.65.04-2.65 9.75-5.34 19.49-8.04 29.23-1.65-.02-3.29-.03-4.94-.04 2.72-9.74 5.35-19.5 8.08-29.23h-11.63c.4-1.42.81-2.84 1.22-4.25zM140.97.75c1.64.01 3.28.01 4.92.02-3.03 11.17-6.15 22.31-9.2 33.47h-4.95c3.08-11.16 6.16-22.32 9.23-33.49zM154.1.75c5.61.1 11.24-.21 16.85.12 3.06.07 6.22 2.04 6.7 5.24.68 5.78-3.24 11.72-8.77 13.49-4.97 1.26-10.17.42-15.24.67-1.23 4.66-2.55 9.29-3.79 13.95l-4.97.03c3.06-11.17 6.16-22.33 9.22-33.5m3.77 4.26c-1.03 3.74-2.06 7.48-3.07 11.23 4.52-.18 9.28.7 13.61-.96 3.34-1.56 6.18-7.54 2.22-9.8-4.16-.99-8.52-.31-12.76-.47zM185.6.74c1.63.01 3.28.02 4.92.02-2.66 9.75-5.36 19.49-8.04 29.24 5.78.01 11.57-.01 17.36.01-.39 1.41-.77 2.82-1.15 4.23-7.43 0-14.87.02-22.31-.01 3.05-11.17 6.15-22.32 9.22-33.49zM203.54 34.25c3.08-11.17 6.13-22.34 9.24-33.5 8.43.01 16.86 0 25.29.01-.41 1.41-.8 2.83-1.2 4.24-6.8.02-13.6-.05-20.4.05-.85 3.33-1.77 6.63-2.68 9.95h18.79c-.42 1.42-.83 2.84-1.24 4.26-6.24-.02-12.48-.01-18.72-.01-1 3.57-1.98 7.16-2.95 10.74 6.89.02 13.77 0 20.66.02-.4 1.41-.78 2.82-1.17 4.24h-25.62zM257.6.74c1.63.01 3.27.01 4.91.02-2.65 9.75-5.37 19.48-8.04 29.23 5.79.02 11.57 0 17.36.02-.39 1.41-.78 2.82-1.16 4.23-7.43 0-14.87.02-22.3-.01 3.05-11.17 6.13-22.33 9.23-33.49zM284.95.75c1.64 0 3.27.01 4.91.02-3.02 11.17-6.15 22.31-9.19 33.48-1.65 0-3.3-.01-4.94-.01 3.05-11.17 6.14-22.33 9.22-33.49zM325.49 5c.38-1.42.77-2.84 1.17-4.26 9.36.02 18.72.01 28.09.01-.37 1.41-.73 2.82-1.08 4.22-3.89.04-7.77.03-11.65.03-2.69 9.75-5.38 19.49-8.05 29.24-1.66.01-3.32.01-4.97.01 2.73-9.74 5.37-19.5 8.09-29.25h-11.6zM359.59.74c1.64.01 3.27.01 4.92.02-3.08 11.16-6.15 22.32-9.23 33.48-1.65 0-3.3.01-4.94.03 3.07-11.19 6.13-22.37 9.25-33.53zM372.2.78c1.9-.02 3.81-.03 5.72-.04 3.22 8.91 6.48 17.81 9.64 26.75 2.5-8.9 4.91-17.83 7.39-26.73 1.59-.01 3.19-.01 4.79-.01-3.08 11.18-6.11 22.39-9.28 33.55-1.83-.03-3.66-.05-5.48-.08-3.27-8.86-6.6-17.7-9.86-26.56-2.42 8.85-4.89 17.7-7.3 26.56-1.62.01-3.23.03-4.84.04 3.09-11.16 6.18-22.31 9.22-33.48zM489.95.75c8.43 0 16.87 0 25.3.01-.41 1.41-.8 2.82-1.2 4.24h-20.3c-.93 3.33-1.86 6.66-2.78 9.99 6.26.02 12.51.02 18.77 0-.39 1.41-.76 2.82-1.13 4.23-6.25.04-12.5.04-18.75 0a453.34 453.34 0 0 0-3 10.78c6.89 0 13.77-.01 20.65 0-.4 1.42-.78 2.84-1.17 4.26-8.53-.03-17.07 0-25.6-.02 3.05-11.17 6.16-22.32 9.21-33.49zM522.08.75c5.96.11 11.93-.22 17.88.14 3.03.15 7.02 1.55 7.28 5.09.67 4.85-2.31 9.29-6.37 11.66 3.77 4.16.21 9.68-.28 14.39.38.53 1.15 1.59 1.53 2.12-2.24.06-4.47.1-6.69.13.49-3.82 1.72-7.51 2.02-11.35.07-1.71-1.87-2.63-3.33-2.74-4.12-.42-8.27-.13-12.4-.19-1.35 4.74-2.63 9.49-3.95 14.23-1.65.01-3.29.01-4.93.02 3.05-11.18 6.11-22.35 9.24-33.5m3.75 4.26c-1.02 3.66-2.03 7.32-3.03 10.98 5.05-.26 10.37.8 15.24-.92 3.41-1.43 6.08-7.91 1.93-9.81-4.69-.6-9.43-.14-14.14-.25zM553.41.75l5.47.03c.68 9.22.98 18.48 2.11 27.66 5.92-9.12 11.46-18.5 17.23-27.72 1.84.03 3.67.05 5.53.08-7.21 11.18-14.51 22.29-21.74 33.45-1.75 0-3.49-.01-5.22-.01-1.2-11.15-2.27-22.32-3.38-33.49zM579.55 34.24c3.07-11.16 6.12-22.33 9.23-33.48 1.64-.01 3.28-.01 4.93-.02-3.1 11.17-6.11 22.37-9.27 33.53l-4.89-.03zM627.31 34.26c3.08-11.18 6.12-22.36 9.25-33.52 8.41.03 16.82 0 25.23.02-.38 1.41-.75 2.82-1.11 4.24-6.8.01-13.6-.02-20.39.02-.9 3.33-1.82 6.65-2.74 9.98h18.75c-.39 1.41-.76 2.83-1.14 4.25-6.26-.01-12.52 0-18.78-.01-.99 3.59-1.97 7.17-2.96 10.76 6.89.01 13.77-.01 20.66 0-.4 1.42-.79 2.83-1.17 4.25-8.54 0-17.07-.01-25.6.01zM507.78 82.76c21.19-11.89 46.22-15.34 70.2-13.81 15.69 1.13 32.44 5.48 43.35 17.55 9.95 10.86 12.11 26.56 10.37 40.69-19.18.13-38.36.01-57.54.06.14-4.14-.47-8.78-4-11.48-5.39-4.19-12.68-4.6-19.24-4.36-5.43.38-11.31 1.21-15.5 4.99-3.53 3.09-4.99 9.07-1.72 12.85 3.45 4.05 8.72 5.79 13.59 7.5 17.51 5.67 36.23 8.31 52.47 17.45 8.47 4.64 15.94 12.05 18.53 21.58 2.95 10.97.29 22.51-3.69 32.86-6.25 16.28-18.53 29.93-33.6 38.58-19.29 11.28-41.92 15.33-64.02 15.77-15.68.15-31.95-2.2-45.68-10.23-10.42-6.04-18.95-15.83-22.07-27.61-2.26-7.86-1.94-16.19-.38-24.15h57.99c.2 4.53.91 9.48 4.32 12.81 5.14 5.13 12.85 6.61 19.86 6.4 7.34-.39 15.11-1.52 21.18-5.98 3.2-2.43 5.8-6.18 5.64-10.35-.03-3.33-2.58-5.96-5.25-7.59-5.31-3.28-11.43-4.87-17.38-6.52-14.27-3.86-29.03-6.7-42.27-13.53-9.3-4.63-17.84-12.16-20.91-22.38-3.32-11.17-1.09-23.18 2.91-33.87 5.96-15.89 18.1-29.02 32.84-37.23zM89.99 73h82.28c-.62 28.97-1.16 57.95-2.07 86.9 18.85-28.95 37.52-58.03 56.44-86.94 25.48.09 50.97.01 76.45.04-19.14 61.99-38.41 123.94-57.48 185.94-18.38.13-36.76.02-55.14.06 10.82-32.7 22.09-65.26 32.58-98.07-20.74 32.73-41.83 65.23-62.54 97.98-14.26.21-28.53.04-42.79.09.88-32.9 1.83-65.79 2.81-98.68-11.15 32.8-21.98 65.72-32.93 98.59-18.38.21-36.76.04-55.14.08C51.6 196.98 70.8 134.99 89.99 73zM336.96 73.24c20.4.03 40.8 0 61.2.02-13.27 42.59-26.73 85.13-40.04 127.71 23.36.06 46.71.01 70.06.03-5.74 19.52-11.7 38.98-17.49 58.48-43.78.02-87.56.04-131.34-.01 19.14-62.09 38.36-124.17 57.61-186.23zM653.32 237.32c8.84-5 20.5-4.41 28.77 1.51 5.57 3.8 9.37 9.83 10.91 16.36V267c-2.32 11.15-12.17 20-23.53 21h-6c-9.34-1.07-17.9-7.18-21.7-15.8-5.79-12.35-.63-28.55 11.55-34.88m8.16 1.31c-9.54 2.05-17.14 10.71-17.88 20.46-1.08 11.21 7.46 22.18 18.43 24.36 7.02 1.6 14.66-.68 19.92-5.53 6.59-5.92 9.27-15.83 6.27-24.21-3.45-10.8-15.67-17.88-26.74-15.08z"/><path d="M649.23 252.26c4.09-.02 8.19-.02 12.29 0-.01.56-.02 1.67-.03 2.23-1.59 0-3.17.01-4.74.02 0 5.16-.01 10.32 0 15.48-.69.01-2.06.01-2.75.01v-15.5c-1.59 0-3.17-.01-4.74 0-.01-.56-.02-1.68-.03-2.24zM664.25 252.24c1.37.01 2.74.01 4.12.02 1.66 4.55 3.29 9.1 4.95 13.64 1.6-4.56 3.19-9.13 4.83-13.68 1.35.01 2.72.03 4.09.04.01 5.91 0 11.82.01 17.74h-2.75c-.01-4.97.01-9.94 0-14.91-1.96 4.92-3.33 10.07-5.47 14.91-.45-.01-1.35-.02-1.8-.03-1.99-4.13-3.22-8.57-4.79-12.86l-.72.1c.03 4.26.03 8.53.03 12.79h-2.5v-17.76z"/>
	</symbol>
	<symbol id="equal-housing" viewBox="0 0 745 745">
		<title>Equal Housing</title>
		<path d="M21.75 197.5c115.84-57.18 231.8-114.1 347.62-171.31C486.98 83.32 604.67 140.3 722.24 197.5c.02 26.91.01 53.83.01 80.75h-46.5c0 80.42.01 160.84 0 241.25H60.5V278.26c-12.92-.02-25.83 0-38.75-.01 0-26.92-.01-53.84 0-80.75m347.62-90.44c-77.79 39.71-155.51 79.54-233.33 119.19-.09 73.42-.02 146.83-.04 220.25h464.25c.01-73.39-.02-146.78.01-220.18-76.97-39.73-153.88-79.6-230.89-119.26z"/><path d="M260.24 226H476v78H260.24c.01-26 .01-52 0-78zM260.25 337.5H476v78.26c-71.92-.01-143.84 0-215.75-.01 0-26.08-.01-52.17 0-78.25zM118 569.95c9.63-9.62 27.32-9.64 36.69.36 5.59 6.05 6.79 14.76 6.31 22.68-.2 5.54-1.91 11.03-5.13 15.58 1.89 1.74 3.81 3.47 5.61 5.31-1.97 2-3.97 3.99-5.96 5.98-2-1.95-4.06-3.83-6.07-5.76-9.36 4.93-21.88 4.49-30.04-2.58-5.36-4.51-7.67-11.61-8.07-18.41-.52-8.11.88-17.03 6.66-23.16m11.92 3.83c-4.65 2.25-6.76 7.51-7.39 12.35-.71 5.75-.14 12.12 3.39 16.93 3.53 4.77 10.41 6.16 15.74 3.78a91.807 91.807 0 0 0-5.1-4.96c1.95-1.97 3.89-3.94 5.67-6.07 1.9 1.71 3.8 3.42 5.69 5.14 2.83-7.06 3.18-15.58-.51-22.39-3.3-5.99-11.61-8.16-17.49-4.78zM409.45 563.7c8.75-2.31 18.99-.26 25.37 6.39 5.29 5.57 6.81 13.6 6.68 21.04-.25 6-1.44 12.27-5.14 17.15-9.85 13.03-33.2 12.04-41.25-2.42-4.16-7.94-4.33-17.54-2.22-26.1 1.97-7.92 8.62-14.29 16.56-16.06m3.99 8.84c-5.88 1.18-9.65 6.89-10.41 12.54-.72 6.19-.61 13.23 3.51 18.31 4.04 5.06 12.03 6.09 17.31 2.41 3.34-2.27 5.35-6.08 6.02-10 1-5.79.79-12.14-2.17-17.35-2.8-4.84-8.88-7.26-14.26-5.91zM510.47 565.51c6.54-3.31 14.46-3.48 21.38-1.35 6.67 2.1 11.3 8.63 11.39 15.59H532.7c-.86-7.98-11.18-9.6-17.03-6.14-3.18 1.74-3.33 7.02.03 8.63 7.67 3.04 16.44 3.07 23.66 7.31 5.97 3.65 6.58 11.93 4.09 17.87-2.46 6.01-9.07 8.99-15.17 9.68-6.69.7-14 .15-19.72-3.72-4.36-2.95-6.4-8.26-6.53-13.37 3.51-.02 7.02-.01 10.53-.01.41 3.09 2.12 6.15 5.18 7.25 4.41 1.51 9.64 1.47 13.77-.81 3.03-1.65 3.81-6.54.68-8.49-7.39-3.82-16.33-3.32-23.62-7.47-8.71-5.5-7.08-20.5 1.9-24.97zM643.28 564.12c8.46-2.5 18.56-1.73 25.5 4.13 3.67 3.04 5.66 7.6 6.38 12.24-3.65.02-7.28 0-10.92.02-.93-2.19-2.05-4.4-3.99-5.86-5.48-4.63-14.67-2.96-18.62 2.89-3 4.11-3.62 9.44-3.43 14.4.12 4.64 1.42 9.6 5.01 12.79 4.73 3.89 12.27 4.57 17.22.68 2.64-2.08 4.01-5.26 4.99-8.38-3.98-.05-7.95-.03-11.92-.03-.01-3.01-.01-6 0-8.99 7.25-.02 14.5-.01 21.75-.01v28c-2.5-.01-5-.01-7.49 0-.35-2.02-.69-4.05-1.01-6.07-8.2 10.65-25.95 9.53-33.97-.71-5.94-7.41-6.81-17.66-5.1-26.69 1.64-8.24 7.38-15.91 15.6-18.41zM64 564.24c12.75.01 25.5 0 38.25.01v9.25c-9.08.01-18.17 0-27.25 0v10.75c8.33-.01 16.66 0 25-.01 0 3.09 0 6.17-.01 9.26H75v13.25c9.5-.01 19 0 28.5 0V616H64v-51.76zM170 564.25c3.75-.01 7.5-.01 11.25 0 .02 11.25-.02 22.5.01 33.75 0 3.67 1.55 7.84 5.23 9.25 5.26 2.15 13.3.03 13.9-6.48.82-12.14.13-24.35.36-36.52 3.75-.01 7.5-.01 11.25-.01-.01 10.62.01 21.24-.01 31.86-.09 5.33-.65 11.25-4.5 15.31-3.6 4.14-9.26 5.63-14.54 5.9-6.34.46-13.19-.82-18.02-5.21-3.83-3.56-4.93-9.07-4.94-14.09.02-11.26 0-22.51.01-33.76zM234.47 564.25c4.24-.01 8.48 0 12.72-.01 6.18 17.23 12.12 34.53 18.3 51.76h-12.14c-1.01-3.52-2.14-7-3.22-10.5h-18.91c-1.18 3.5-2.34 7-3.51 10.5h-11.7c6.15-17.25 12.29-34.51 18.46-51.75m6.24 12.02c-2.16 6.66-4.27 13.34-6.51 19.97 4.28.01 8.55 0 12.83.01-2.15-6.65-4.15-13.34-6.32-19.98zM273.5 564.25c3.67-.01 7.33-.01 11 0 .01 14.08-.01 28.16.01 42.25 8.58 0 17.16-.01 25.74 0v9.5H273.5c0-17.25-.01-34.5 0-51.75zM340.25 564.25c3.66-.01 7.33-.01 11 0v19.5c6.58 0 13.16-.01 19.75 0 0-6.5-.01-13.01 0-19.51h11V616h-11v-23c-6.59 0-13.17-.01-19.75 0v23h-11.01c.01-17.25 0-34.5.01-51.75zM451 564.24c3.75 0 7.5 0 11.25.01.02 11.26-.04 22.52.02 33.78.02 3.96 2 8.43 6.14 9.5 4.03 1.13 9.31.41 11.8-3.31 1.36-2.12 1.52-4.74 1.55-7.18-.02-10.93-.01-21.86-.01-32.79 3.75-.01 7.49-.01 11.25-.01-.01 11.3.02 22.59-.01 33.88-.06 5.39-1.56 11.25-5.91 14.78-4.72 3.86-11.09 4.67-16.99 4.45-5.52-.24-11.34-2.04-15.1-6.29-3.36-3.84-3.96-9.16-3.99-14.06v-32.76zM553.5 564.24c3.66 0 7.33.01 10.99 0 .02 17.25.01 34.5.01 51.76h-11c0-17.25-.01-34.5 0-51.76zM575.25 564.25c3.86-.01 7.73.01 11.6-.03 6.88 11.86 13.52 23.85 20.39 35.71.01-11.9 0-23.79.01-35.68 3.41-.01 6.83-.01 10.25 0V616c-3.69 0-7.38.03-11.07-.06-6.92-12.22-13.91-24.41-20.9-36.59-.07 12.21-.01 24.43-.03 36.65h-10.26c.01-17.25 0-34.5.01-51.75zM81.53 641.73c8.85-1.69 18.91.99 24.68 8.18 4.61 5.85 5.74 13.64 5.38 20.88-.28 6.69-2.29 13.72-7.24 18.48-8.87 8.21-23.66 8.75-33.32 1.62-5.28-3.88-8.11-10.27-8.88-16.63-.98-7.78-.28-16.25 4.1-22.97 3.35-5.26 9.25-8.47 15.28-9.56m1.72 9.34c-5.82 1.35-9.35 7.1-10.05 12.73-.76 5.96-.48 12.63 3.24 17.64 3.8 5.21 11.7 6.59 17.12 3.14 4.37-2.59 6.4-7.76 6.85-12.61.41-5.49.09-11.49-3.24-16.11-3-4.38-8.89-6.08-13.92-4.79zM263.49 641.78c8.83-1.76 18.94.77 24.8 7.91 4.6 5.63 5.78 13.2 5.64 20.27-.22 6.82-2.06 14-6.99 18.98-7.76 7.61-20.45 8.84-30.04 4.16-6.34-2.94-10.6-9.23-11.98-15.97-1.66-8.36-1.24-17.57 3.11-25.08 3.22-5.6 9.26-9.03 15.46-10.27m.87 9.66c-5.61 1.9-8.51 7.85-9.02 13.41-.48 5.61-.17 11.8 3.3 16.51 3.57 4.96 10.86 6.56 16.24 3.73 4.62-2.17 7.05-7.25 7.68-12.1.62-5.87.4-12.37-3.22-17.31-3.29-4.61-9.77-6.12-14.98-4.24zM312.5 642.5c8.44.02 16.88-.05 25.33.03 4.68.09 9.83.87 13.14 4.52 6.35 6.25 5.29 18.94-3.39 22.59 1.74 1.05 3.78 2.01 4.63 4.01 3.03 6.62-.93 14.92 4.13 20.8-4.24.1-8.49.03-12.74.05-1.19-5.01-.91-10.18-1.27-15.26-.14-2.38-2.04-4.46-4.44-4.64-4.84-.74-9.77-.19-14.64-.35v20.25H312.5c-.01-17.33 0-34.67 0-52m10.75 9.25v13.5c5.49-.26 11.06.53 16.49-.45 5.8-1.44 5.6-10.97.01-12.61-5.43-.97-11.01-.19-16.5-.44zM426.75 642.5c3.74-.01 7.49-.01 11.24-.01.02 10.85.01 21.69 0 32.53-.06 3.45.64 7.29 3.47 9.59 3.77 2.72 9.24 2.39 12.99-.2 2.5-1.96 3.03-5.34 3.05-8.32 0-11.2-.01-22.4 0-33.59 3.75-.01 7.5-.01 11.25 0-.01 11.2.01 22.41 0 33.61-.07 4.96-1.04 10.34-4.67 14-4.28 4.67-11.02 5.85-17.08 5.68-6.45.12-13.38-2.25-17.25-7.65-2.63-3.83-2.9-8.65-3-13.14-.01-10.83 0-21.67 0-32.5zM488.75 642.5c3.81-.01 7.63-.01 11.45 0 6.87 11.97 13.65 24.01 20.56 35.96-.03-11.99 0-23.97-.01-35.96 3.41-.01 6.83-.01 10.24 0 .01 17.33.01 34.67 0 52.01-3.69-.01-7.38-.01-11.07-.01-6.94-12.23-14-24.38-20.88-36.65-.1 12.22-.01 24.44-.05 36.65h-10.24v-52zM577.01 642.49c14.08.01 28.16 0 42.24.01v9.5c-5.25 0-10.5-.01-15.75 0 0 14.17.01 28.33 0 42.5h-11c-.01-14.17 0-28.33 0-42.5H577c0-3.17-.01-6.34.01-9.51zM630.84 642.5c4.35-.01 8.71 0 13.06-.01 3.63 7.4 7.15 14.85 10.65 22.31 3.43-7.41 6.82-14.85 10.17-22.3 4.21-.01 8.42 0 12.64-.01-5.71 10.88-11.78 21.6-17.26 32.58-.27 6.47-.01 12.96-.11 19.44-3.75-.01-7.5-.01-11.24-.01-.11-6.6.21-13.22-.13-19.81-5.79-10.8-11.91-21.43-17.78-32.19zM130.25 694.5c-.01-17.33-.01-34.67 0-52 7.88.05 15.76-.1 23.63.06 4.83.04 9.97 1.68 12.9 5.73 5.37 7.49 4.13 19.5-3.61 24.92-6.51 4.25-14.65 1.96-21.91 2.54-.02 6.25 0 12.5-.01 18.75h-11m11-42.74v14.99c4.27-.16 8.62.43 12.84-.45 5.6-1.18 6.68-9.76 2.47-13.02-4.69-2.51-10.23-1.23-15.31-1.52zM188.25 642.5c8.19.07 16.39-.15 24.57.11 5.57 0 11.31 2.95 13.59 8.2 3.59 7.9 1.58 19.04-6.58 23.26-6.41 3.05-13.75 1.16-20.58 1.68v18.75h-11c-.01-17.33 0-34.66 0-52m11 9.26v14.99c4.18-.14 8.4.35 12.54-.35 6.75-.88 7.36-12.63.66-14.07-4.31-1.06-8.81-.41-13.2-.57zM368.5 642.5c14.08 0 28.17-.01 42.25 0 0 3.16 0 6.33.01 9.5-5.18 0-10.34-.01-15.51 0v42.5h-11c-.01-14.16 0-28.33 0-42.5-5.25-.01-10.5 0-15.75 0 0-3.17-.01-6.34 0-9.5zM550.25 642.5c3.74-.01 7.49-.01 11.25 0v52h-11.25c-.01-17.33 0-34.66 0-52z"/>
	</symbol>
	<symbol id="realtor" viewBox="0 0 541 643">
		<title>Realtor</title>
		<path d="M27.09 0h480.56c.23 55.01.03 110.02.1 165.04v323.71H27c.05-162.92-.11-325.83.09-488.75m69.16 62.25c-.01 120.25 0 240.5-.01 360.74 44.51.01 89.01.01 133.52.01-.01-120.25 0-240.5-.01-360.75H96.25m188 0v180c14.59-.02 29.19.05 43.78-.03 13.02-.12 26.03-2.85 37.84-8.38 18.96-8.78 34.73-24.33 43.6-43.26 9.89-20.48 11.31-44.79 4.21-66.36-6.14-18.87-18.82-35.5-35.3-46.56-14.43-9.87-31.83-15.15-49.29-15.38-14.95-.08-29.9-.01-44.84-.03m0 191.87c0 56.38-.01 112.76 0 169.13 57.46-.01 114.91.02 172.37-.01-57.46-56.37-114.99-112.67-172.37-169.12zM361.12 578.09c5.45-7.58 14.72-11.57 23.86-12.13 10.88-.93 22.94 2.2 29.99 11.04 12.12 15.37 12.36 38.89.68 54.58-4.55 6.23-11.77 10.02-19.25 11.42h-15.91c-7.45-1.45-14.64-5.18-19.18-11.4-11.44-15.31-11.46-38.1-.19-53.51m21.18 2.16c-5.48 1.52-9.92 5.78-12.04 11-4 9.74-3.61 21.51 1.95 30.57 6.88 10.8 24.94 11.08 32.16.51 5.01-7.54 5.93-17.24 3.98-25.94-1.29-5.38-3.94-10.84-8.77-13.86-5.04-3.34-11.55-3.81-17.28-2.28zM0 567.21c8.33-.47 16.67-.1 25.01-.21 6.34.13 12.7-.34 19.02.28 5.65.61 11.37 3.7 13.76 9.06 2.98 6.75 3.61 14.95.09 21.61-1.75 3.37-5.02 5.51-8.09 7.55 2.99 2.15 6.61 4.34 7.42 8.25 1.2 6.01.75 12.2 1.05 18.3-.03 3.4 2.31 6.11 3.53 9.12-5.83.14-11.66.04-17.5.11-3.18-7.51-1.03-15.75-2.03-23.57-.56-3.42-4.02-5.31-7.22-5.53-6.41-.47-12.86-.05-19.29-.18-.01 9.75.01 19.5-.01 29.25-5.24 0-10.49 0-15.74-.02v-74.02M15.75 580v19c7.21-.09 14.43.17 21.63-.1 5.5-.62 9.19-6.63 7.93-11.9.06-3.91-3.39-6.88-7.16-6.89-7.46-.3-14.93-.02-22.4-.11zM77.25 567c17.92-.01 35.83 0 53.75 0v13c-12.83 0-25.67-.01-38.5 0 0 5.5-.01 11 0 16.5 11.83 0 23.66.01 35.49 0 .01 4.33.01 8.66.01 13-11.84 0-23.67-.01-35.5 0 0 6.25-.01 12.5 0 18.75 13.42.01 26.83 0 40.25 0v12.99c-18.5.02-36.99 0-55.48.01-.04-24.75 0-49.5-.02-74.25zM168.88 567c5.94-.01 11.88 0 17.83 0 8.4 24.77 16.93 49.5 25.42 74.24-5.29.01-10.59.01-15.89 0-1.66-4.92-3.33-9.83-5.04-14.73-9.04-.04-18.08 0-27.13-.02-1.78 4.91-3.45 9.85-5.21 14.77-5.27-.03-10.55-.02-15.83 0 8.59-24.76 17.26-49.5 25.85-74.26m8.92 18.41c-3.13 9.38-6.32 18.73-9.52 28.08 6.4.02 12.8.01 19.2.01-3.29-9.35-6.4-18.75-9.68-28.09zM225.5 567H241c0 20.42-.01 40.83 0 61.25 11.84.01 23.67-.01 35.5.01 0 4.32 0 8.65-.01 12.98-16.99.01-33.99.01-50.98 0-.01-24.74-.01-49.49-.01-74.24zM284.5 567H344v13c-7.25 0-14.5-.01-21.76 0 .01 20.42.01 40.83 0 61.24-5.16.01-10.32.01-15.48 0-.01-20.41-.01-40.82 0-61.24-7.42-.01-14.84 0-22.26 0v-13zM439.25 567c13.61.02 27.22-.04 40.83.02 6.59.03 13.85 2.92 16.75 9.21 2.93 6.78 3.63 14.99.1 21.69-1.69 3.47-5.03 5.6-8.16 7.64 3.2 1.91 6.62 4.31 7.5 8.19 1.35 6.64.6 13.48 1.2 20.2.02 1.94 1.52 3.29 2.67 4.69.04.65.11 1.95.15 2.6-5.61.02-11.22-.02-16.82.03-3.61-7.63-1.03-16.2-2.29-24.21-.96-3.41-4.69-4.91-7.93-4.99-6.17-.22-12.34 0-18.5-.07-.01 9.75.01 19.5-.01 29.25-5.16-.01-10.32-.01-15.48 0-.02-24.75 0-49.5-.01-74.25m15.5 13v19c7.42-.12 14.86.23 22.28-.14 7.14-1.4 9.83-11.07 5.51-16.49-1.88-2.07-4.84-2.36-7.46-2.38-6.78-.02-13.55.03-20.33.01zM514.69 590.37c-3.96-7.45.31-17.68 8.46-19.96 7.14-2.47 15.28 1.75 17.85 8.75v9.63c-1.39 3.08-3.44 6.01-6.49 7.65-6.79 4.01-16.47 1.11-19.82-6.07m8.68-17.88c-6.09 2.03-9.8 9.39-7.44 15.44 1.94 6.28 9.53 10.04 15.68 7.59 6.12-2.07 9.78-9.45 7.44-15.54-2.04-6.2-9.55-9.98-15.68-7.49z"/><path d="M522.25 576.01c4 .47 9.63-1.6 12.3 2.37 1.35 3.3-1.1 6.09-4.27 6.71 1.56 2.36 3.11 4.73 4.59 7.15-4.23.15-5.11-4.82-7.26-7.52-1.13.02-2.25.05-3.37.08 0 2.39 0 4.79.01 7.19-.5.01-1.5.01-2 .02v-16m2 1.72c-.01 1.76-.01 3.53 0 5.31 2.62-.17 5.58.48 7.9-1.09 1-1.38.6-3.62-1.21-4-2.22-.35-4.47-.21-6.69-.22z"/>
	</symbol>
</svg>