<svg height="929pt" preserveAspectRatio="xMinYMin meet" viewBox="0 0 1249 929" width="1249pt" xmlns="http://www.w3.org/2000/svg"><path d="m1107.28 0h8.38c6.43.68 13.34 1.56 18.58 5.71 3.27 2.49 4.27 6.98 3.12 10.82-1.11 4.84-5.07 8.1-7.87 11.93-3.47 4.63-2.76 11.11-6.45 15.57-3.07 3.82-8.7 3.64-12.76 1.68-5.82-2.75-11.73-5.57-18.19-6.38-15.1-1.82-30.57-.12-45.04 4.48-13.76 4.22-25.61 12.7-36.84 21.45-34.21 27.42-63.35 60.81-87.94 97.01-31.59 45.48-62.18 91.68-91.04 138.95-34.24 56.44-67.27 113.75-95.5 173.48-13.4 28.81-26.05 58.21-33.99 89.06-3.3 13.52-5.87 28.76.94 41.64 2.81 5.87 9.01 9.45 15.4 9.84 15.21 1.19 30.44-3.75 43.06-12.07 23.72-15.87 43.05-37.44 59.39-60.65 15.89-22.96 28.86-47.79 41.34-72.71 1.95-4.26 7.71-5.64 11.58-3.21 2.54 1.55 3 5.06 1.73 7.59-18.49 35.92-38.18 71.69-64.45 102.61-16.01 18.86-34.91 35.98-57.63 46.27-16.53 7.37-35.8 9.87-53.25 4.33-10.84-3.39-19.53-11.99-23.93-22.34-5.69-12.91-4.81-27.5-2.76-41.11 3.06-19.91 11.25-38.44 18.9-56.9-20.27 23.28-40.34 47.4-65.83 65.21-10.3 7.05-22.29 13.49-35.18 12.24-6.43-.41-13.19-3.31-16.28-9.27-5.93-10.79-4.27-23.86-.51-35.09 4.69-15.74 13.95-29.49 22.95-43.03 18.28-27.03 39.84-52.1 65.45-72.45 26.24-20.64 58.12-33.11 90.76-39.18 34.42-59.96 70.3-119.23 110.77-175.34 19.03-26.41 39.18-52 59.84-77.15 19.27-23.26 39.6-45.67 61.37-66.61 21.61-20.74 45.9-38.99 73.02-51.87 15.38-7.33 31.75-13.25 48.86-14.51m-395.53 411.6c-8.92 3.38-16.53 9.35-23.75 15.45-11.2 9.55-19.96 21.46-28.9 33.04-18.14 23.91-34.75 49.61-43.76 78.47-1.32 4.96-2.96 10.12-2.21 15.3 2.36 2.83 6.44 2.6 9.29.64 12.55-7.29 23.2-17.37 33.46-27.54 11.3-11.47 21.85-23.67 31.86-36.28 21-26.6 40.51-54.62 55.15-85.26-10.57.77-21.21 2.31-31.14 6.18zm-129.69-214.04c9.95-.12 19.92-.51 29.87-.2 5.1.07 8.85 6.13 6.19 10.62-5.37 11.04-12.06 21.41-16.81 32.75-3.01-.74-6.02-1.49-9.02-2.2-.01-4.63-.33-9.75-3.65-13.32-1.14-.65-2.47-.74-3.71-.98-37.35-5.57-75.17-6.76-112.87-6.99-6.76-.17-14.2 1.71-18.35 7.45-29.8 39.69-54.62 82.77-79.37 125.7-3.47 6.46-7.61 12.6-10.48 19.36 22.34 1.7 44.76.94 67.14.94 27.71-.47 55.54-1.25 82.96-5.63 9.72-1.5 19.34-3.49 28.94-5.62 1.88 1.94 3.8 3.86 5.74 5.75-3.3 6.92-6.98 13.66-9.87 20.76-1.72 4.18-6.79 5.03-10.8 4.82-29.31-1.1-58.65-1.52-87.98-1.65-28 .26-56.04-.67-84.01.93-3.06-.17-4.85 2.48-6.03 4.89-17.49 31.57-35.31 63.04-49.83 96.11-6.42 14.51-13.13 29.79-12.04 46.02.47 9.14 5.12 18.08 12.89 23.06 11.47 7.5 25.6 9.05 38.98 9.54 21.92.32 43.8-1.82 65.54-4.42 42.4-5.62 84.4-15.34 124.46-30.43 11.69-4.66 23.2-10.09 33.43-17.49 1.69-1.16 3.54-2.49 5.72-2.19 4.3.34 6.1 6.14 4.5 9.45-8.18 7-13.88 16.25-19.85 25.07-6.73 9.11-18.17 12.68-28.78 14.88-26.01 6.01-52.48 9.58-78.88 13.34-45.37 6.59-91.3 9.81-137.14 8-17.77-.81-35.81-1.73-52.94-6.93-9.09-3.05-18.79-7.51-23.54-16.34-5.22-9.73-3.8-21.4-.92-31.62 2.68-9.53 7.76-18.1 12.76-26.56 22.65-38.85 45.08-77.84 66.54-117.36-4.89-.85-10.04.21-14.8-1.27-4.54-1.8-4.37-8.09-1.54-11.34 3.3-4.05 8.78-4.93 13.64-5.74 7.5-1.26 14.52-5.27 19.28-11.23 3.92-4.97 6.52-10.81 9.77-16.21 19.95-34.89 38.72-70.45 56.97-106.25 2.71-5.53 5.59-11.02 7.47-16.91-17.25-.06-34.5.52-51.7 1.65-15.43 1.03-30.83 3.07-45.8 7.03-1.73-.89-3.46-1.78-5.18-2.67 1.06-8.9 2.43-18.64 9.08-25.28 40.25 2.46 80.59 3.71 120.91 3.36 51.04-1.64 102.07-3.4 153.11-4.65zm-76.36 612.43c0-2.17.14-4.45 1.84-6 8.5 8.31 16.17 17.43 24.38 26.02 19.07 20.62 38.37 41.02 57.2 61.85 3.93 4.26 7.75 8.63 11.84 12.75-.53-27.69-1.17-55.37-1.77-83.05-.34-3.77-.22-8.58-3.77-10.92-3.55-1.85-7.71-1.45-11.56-1.95.16-1.32.88-1.97 2.16-1.96 6.67-.4 13.34.56 20.02.29 4.78-.2 9.6-.7 14.37-.03-1.1 3.06-5.01 1.56-7.38 2.82-4.18 1.41-4.19 6.56-4.36 10.2-.11 22.67-.19 45.35-.23 68.02-.35 13.08.48 26.21-.67 39.25-3.01-.57-5.02-2.99-7.13-4.98-30.33-29.96-59.11-61.44-87.59-93.15.57 24.62 1.33 49.24 1.95 73.86.17 4.68.17 9.44 1.34 14.02.58 2.22 1.76 4.57 4.03 5.46 3.29 1.18 6.84 1.08 10.27 1.48-.35 1.39-1.2 2.05-2.57 1.98-5.68.27-11.35-.3-17.03-.35-5.4-.03-10.8.65-16.21.33-1.18.01-1.89-.61-2.13-1.88 3.34-.61 7.2-.21 10.06-2.34 2.85-3.55 2.34-8.51 2.69-12.78.2-32.98.11-65.96.25-98.94zm-149.52 4.01c.11-3.41-.41-7.11 1.6-10.12 2.28 1.85 4.33 3.96 6.27 6.16 24.62 26.97 49.83 53.39 74.36 80.44 4.35 4.59 8.31 9.57 13.03 13.81-.41-27.46-1.14-54.91-1.71-82.36-.32-3.83-.12-8.65-3.58-11.17-3.4-1.99-7.53-1.45-11.28-2.04-.03-.44-.11-1.33-.14-1.77 7.4-.89 14.84.45 22.27.05 4.36-.1 8.78-.77 13.13-.06l.69 1.06c-2.73 1.68-6.48.64-9.02 2.8-2.55 2.32-2.37 6.12-2.59 9.3-.15 30.29-.21 60.59-.34 90.88-.07 5.51.32 11.09-.72 16.54-3.78-1.49-6.36-4.73-9.23-7.45-29.51-29.23-57.41-60-85.31-90.75.58 26.26 1.36 52.53 2.11 78.79.42 4.58.25 9.94 3.67 13.47 3.44 2.39 7.94 1.78 11.89 2.44-.33.44-1 1.31-1.33 1.75-4.98.6-10.02.01-15.01-.09-7.03-.43-14.06.8-21.07.12-.05-.45-.16-1.34-.21-1.79 3.25-.71 7.19-.12 9.83-2.51 2.73-3.88 2.19-8.97 2.52-13.46.11-31.35.17-62.69.17-94.04zm384.39-2.5c14.28-7.13 30.76-7.82 46.39-6.58 9.83.72 19.4 3.3 29.23 4.11-.8 8.66-1.07 17.35-1.24 26.04-.17 1.46.02 4.5-2.34 3.67-.73-4.74-.58-9.8-3.06-14.08-2.38-4.97-7.34-7.95-12.27-9.91-12.42-4.9-26.27-5.24-39.27-2.78-9.31 1.71-18.12 6.51-23.96 14.06-8.92 10.77-10.79 25.39-10.46 38.91.45 20.21 12.14 39.92 30.11 49.39 11.93 6.52 26.07 7.71 39.34 5.73 6.13-1.01 12.52-3.5 16.23-8.75 3.12-4.27 3.61-9.7 5.75-14.41.34.5 1.02 1.51 1.37 2.01-.03 5.79-1.43 11.48-2.39 17.17-.76 3.04-1.07 7.17-4.6 8.31-8.84 3.46-18.54 3.08-27.78 4.61h-2.22c-9.49-1.36-19.21-1.72-28.35-4.83-16.79-5.28-31.45-18.05-37.54-34.74-4.91-13.5-5.71-28.64-1.56-42.45 4.35-14.96 14.51-28.51 28.62-35.48zm220.62 13.46c.71-7.01 2.42-13.94 4.58-20.63 8.33 3.24 17.47 2.6 26.25 2.8 17.97-.02 35.94.01 53.92-.01 5.15.02 10.24-.85 15.33-1.6.04 6.18-.21 12.37-.44 18.56.05 1.4-.32 2.77-1.77 3.34-.92-3.35-.43-7.57-3.48-9.89-3.9-2.87-8.96-3.24-13.63-3.59-7.65-.3-15.31-.29-22.95-.43.06 28.85-.12 57.7.1 86.55.28 6.39-.12 12.98 1.69 19.18 2.2 5.43 9.21 3.81 13.82 4.72-.34 1.38-1.17 2.04-2.5 1.98-9.36.29-18.72-.8-28.08-.09-3.48-.1-7.33 1-10.43-1.04 3.21-1.96 8.84-.46 10.11-4.98 2.21-7.39 1.63-15.25 1.92-22.88.06-27.84.15-55.68-.04-83.52-10.36.49-20.77-.13-31.09.9-4.45.27-8.19 3.22-9.82 7.3-.95 1.16-1.39 4.61-3.49 3.33zm109.61.28c.64-7.12 2.14-14.31 4.74-20.98 5.76 2.73 12.25 2.44 18.46 2.82 14.64.11 29.29.01 43.94.05 10.92-.13 21.98.66 32.75-1.68.09 7.14.18 14.37-.71 21.47-.39-.06-1.17-.18-1.56-.23-.37-4.33-1.4-9.52-6.25-10.83-10.85-3.39-22.43-1.66-33.61-2.36.01 26.84-.01 53.67.01 80.51.12 7.31.02 14.66.95 21.93.36 2.54 1.2 5.53 3.83 6.59 3.54 1.14 7.33.94 10.98 1.59-.33.41-1.01 1.25-1.34 1.67-7.96.68-15.96-.45-23.93-.15-4.86.03-9.75.75-14.58.1-.23-.42-.69-1.26-.92-1.69 3.26-.73 8.23.03 9.59-3.94 2.3-7.12 1.7-14.77 2.02-22.15.18-28.15.04-56.3.08-84.45-8.4.11-16.8.18-25.19.35-3.97.22-8.25.22-11.72 2.42-3.17 2.16-4.11 6.12-6.3 9.07zm-1006.06-18.31c8.43-.81 16.88.53 25.32.03 4.37-.08 8.79-.68 13.15-.02l.29 1.15c-2.43 1.73-6.21.57-8.59 2.73-2.71 2.58-2.39 6.69-2.66 10.12-.23 11.9-.28 23.81-.08 35.72 22.85.05 45.69.03 68.54.01.17-12.04.19-24.07-.07-36.1-.27-3.24-.03-7.2-2.8-9.46-3.13-2.34-7.26-1.96-10.94-2.42.15-1.31.85-1.97 2.1-1.97 8-.33 16.01.72 24.02.2 4-.07 8.05-.63 12.03.01l.75 1.18c-3.21 1.72-8.23.42-10.11 4.35-1.84 4.59-1.27 9.66-1.5 14.5-.04 26.01-.25 52.02.15 78.02.42 5.18-.16 10.79 2.25 15.57 3.14 4.45 9.56 1.53 13.56 4.4-3.45 1.77-7.43.87-11.13.97-8.68-.53-17.36-.18-26.03.09-1.14.02-4.91.01-3.18-1.97 2.9-.86 7.2-.06 8.69-3.41 1.74-3.96 1.72-8.39 2.01-12.62.52-15.04.23-30.09.29-45.13-22.9-.26-45.81-.14-68.71-.06.01 15.37-.23 30.76.34 46.13.35 3.87.13 8.07 2.08 11.58 2.02 3.09 6.19 2.66 9.4 3.08 1.3.05 4.93-.02 2.96 2.08-4.9.73-9.88.09-14.81.08-7.01-.47-14.03.17-21.04.24-1.57.06-3.03-.34-4.37-1.18 3.06-2.02 8.24-.43 9.89-4.42 1.92-4.89 1.72-10.28 2.01-15.44.4-20 .11-40.01.2-60.01-.14-9.65.37-19.34-.57-28.95-.09-4.25-4.21-6.79-8.1-6.81-1.89-.54-5.11.56-5.34-2.27zm141.7 1.1c1.72-.95 3.62-1.54 5.6-1.41 6.32.02 12.63.61 18.96.4 5.28-.16 10.57-.62 15.84-.06-2.05 3.44-7.15 1.34-9.62 4.31-2.1 2.75-1.89 6.43-2.15 9.71-.31 16.34-.15 32.68-.2 49.03 0 10.52.12 21.36 3.87 31.35 2.83 7.68 8.71 14.15 16.03 17.8 13.89 6.31 32.36 2.86 41.58-9.75 6.93-10 7.8-22.68 8.07-34.46-.02-17.65.14-35.3-.1-52.95-.31-3.6.2-7.94-2.62-10.69-3.18-2.6-7.61-2.09-11.42-2.74.29-.37.88-1.13 1.17-1.51 8.1-1.18 16.4.66 24.57-.21 3.44.19 7.79-1.46 10.44 1.49-2.96.69-6.19.66-8.86 2.24-3.06 2.46-2.66 6.87-2.99 10.4-.34 17.32-.08 34.65-.19 51.97-.24 11.23-1.33 22.83-6.43 33.02-4.06 8.25-11.49 14.44-19.75 18.22-6.44 2.98-13.59 3.67-20.51 4.81h-1.31c-6.39-1.34-13.01-1.83-19.11-4.27-9.17-3.38-16.81-10.51-20.88-19.38-5.1-10.99-5.46-23.4-5.31-35.31-.06-16.69.19-33.38-.22-50.07-.22-3.27-.23-7.45-3.44-9.34-3.41-1.75-7.41-1.46-11.02-2.6zm442.29-1.13c7.73-.75 15.5.63 23.26.04 4.12.08 8.47-.95 12.46.21.17.36.51 1.09.67 1.45-3.73.61-9.18.36-10.5 4.89-1.54 6.38-.87 13.03-1.11 19.54.14 25.3-.37 50.61.35 75.9.53 4.33-.18 9.7 3.34 12.96 3.62 2.1 8.09 1.37 12.08 2.21-.33.42-1 1.25-1.33 1.67-5.31.58-10.68 0-16-.06-7-.44-13.99.45-20.99.24-1.3.08-2.12-.56-2.45-1.9 3.33-.71 8.49.01 9.69-4.19 2.05-6.41 1.6-13.29 1.9-19.93.15-25.3.14-50.62 0-75.92-.31-4.25.38-9.14-2.42-12.7-2.38-2.87-6.79-1.35-9.48-3.3zm183.29.13c5.25-.94 10.64-.03 15.95-.04 7.42.47 14.86-.84 22.26-.07.66 2.28-1.91 1.79-3.29 2.21-2.63.31-5.88 1-6.7 3.94-1.59 5.12-1.03 10.6-1.24 15.9.03 16.69-.07 33.39.05 50.09.4 11.66 2.14 24.47 10.59 33.26 12.63 13.98 37.34 12.9 49.45-1.23 4.14-4.9 6.37-11.1 7.65-17.3 2.32-11.45 1.66-23.18 1.76-34.78-.08-12.98.17-25.97-.2-38.94-.25-3.21-.17-7.18-3.12-9.23-3.21-2-7.14-1.72-10.73-2.23l1.13-1.57c4.37-.92 8.9-.12 13.33-.11 6.04.43 12.07-.35 18.11-.26 1.45-.23 2.5.74 3.43 1.73-2.96.66-6.2.58-8.84 2.21-2.76 2.23-2.59 6.16-2.89 9.37-.41 14.67-.15 29.35-.22 44.02.08 12.73-.03 25.86-4.64 37.92-3.38 9.38-10.76 16.88-19.59 21.32-6.67 3.64-14.34 4.36-21.68 5.76h-2.15c-7.39-1.49-15.09-2.1-21.93-5.5-9.84-4.47-17.16-13.56-20.22-23.84-4.17-13.14-2.9-27.08-3.1-40.64-.06-13.01.14-26.03-.22-39.04-.25-3.13-.19-6.95-2.98-9.03-3.27-2.23-7.48-1.45-11.05-2.82z" fill="#003c16"/><path d="m957.53 452.79c15.97-2.97 32.9-.77 47.51 6.38 14.86 7.18 27.25 19.32 34.76 34.01 11.86 22.76 11.08 51.5-2.04 73.55-12.11 20.98-34.67 35.51-58.83 37.61-17.12 1.68-34.77-2.6-49.16-12.06-15.05-9.76-26.47-24.97-31.56-42.18-5.84-19.34-3.65-40.96 6.11-58.66 10.77-19.98 30.85-34.62 53.21-38.65z" fill="#ffdb78"/><g fill="#b6c2e1"><path d="m328.06 596.99c7.74-.15 16.68-3.24 23.3 2.36l-1.63 1.27c1.79.59 3.55 1.22 5.31 1.92-24.94 5.47-49.13 13.88-72.64 23.74-5.93 2.98-12.42-1.68-18.49.48-11.02 4-22.22 7.57-33.06 12.05-4.74 2.07-9.62 4.12-13.63 7.46-1.8 1.32-2.12 3.64-2.82 5.61-13.53.41-27.02 1.67-40.43 3.5-1.93.23-3.6 1.3-5.2 2.34-7.29 4.95-15.46 8.47-22.63 13.63-5.2-.69-11.44-1.67-15.8 1.94-1.7 1.3-3.64 2.61-4.38 4.72.29 1.45 1.63 2.28 2.48 3.4-1.55 1.82-2.55 5.16-5.46 4.88-3.01-.02-6.69-.53-8.46-3.28.31-4.53 5.38-6.03 8.66-8.05-4.94.29-9.45 2.31-13.86 4.37-4.01 1.92-8.52 1.58-12.82 1.45.18 1.54.37 3.09.55 4.64-2.36-.21-4.73-.43-7.09-.64-.29.54-.88 1.63-1.17 2.18-5.27-.04-10.51.6-15.66 1.64 5.97 2.91 12.16 5.35 18.07 8.39-5.58.65-11.28.14-16.77 1.51l.05-.81c-2.58-.49-4.93-1.66-6.94-3.32-3.65-2.92-8.58-1.01-12.7-.55 6.42-10.93 18.69-15.66 28.99-21.99 2.68-1.49 4.9-3.73 7.64-5.07 15.32-2.46 30.76-4.26 46.27-4.88.1-1.73.06-3.65 1.39-4.94 3.43-3.79 8.18-5.98 12.67-8.22 11.42-5.34 23.38-9.39 35.14-13.88 3.21-1.15 6.42-3.12 9.96-2.13 4.47.15 9.33 2.31 13.5-.17 31.73-14.17 64.56-26.4 98.75-33.07 6.26-1.12 12.5-2.72 18.91-2.48zm665.13 28.92c4.46-1.5 9.21-1.43 13.86-1.72-1.42.57-2.85 1.13-4.21 1.78 3.72.32 7.48.14 11.2.56-.45.42-1.35 1.25-1.8 1.67-.71.2-1.42.38-2.1.58-5.16-1.59-11.06-1.24-15.64 1.76-1.37.74-1.79 2.3-2.21 3.68 2.06-.02 4.14-.09 6.23-.15-1.87 1.43-4.97 2.1-5.54 4.66 6.52 2.28 13.64.3 20.02-1.6-.62 2.32-3.11 2.94-5.04 3.78-5.61 2.07-11.46 3.47-16.93 5.92-3.78-1-7.56-1.98-11.29-3.1.91-.75 1.8-1.53 2.7-2.3-.86-.91-1.71-1.81-2.54-2.71 5.21-.76 9.5 2.87 14.53 3.38-1.42-.96-2.88-1.86-4.32-2.74.58-.3 1.18-.59 1.79-.88-3.3-.44-6.63-1.12-9.96-.66-6.39.76-12.84.75-19.26.98 1.82-3.99 6.16-5.45 10.21-5.97-.99.79-1.96 1.6-2.9 2.43 3.95 1.84 8.15.1 12.14-.7 3.34-.88 6.85-1.67 9.75-3.66 1.75-1.04 1.01-3.33 1.31-4.99zm48.74.67c1.59.1 3.22.22 4.84.34.48.03 1.46.1 1.95.14 6.99 1.52 14.84 2.84 20.03 8.22-1.73-.26-3.43-.59-5.11-.97.37 1.99 1.91 4.51-.83 5.56-5.92-5.91-13.08-10.31-20.88-13.29z"/><path d="m1001.41 634.12c3.75-.22 7.52.02 11.29.24l-2.16 1c-3.08-.13-6.2-.26-9.13-1.24zm22.31-.43c3.08.81 6.07 2.16 9.28 2.39 3.97-1.7 8.26-1.86 12.53-1.56-3.32 2.4-7.63 1.99-11.5 2.24-3.57.12-7.99.15-10.31-3.07zm47.95.35c.51.09 1.54.29 2.06.38-1.14 4.12-3.43 7.79-4.6 11.9.38.3 1.14.92 1.52 1.22-2.66 1.17-5.22 2.55-7.91 3.63 1.85-1.9 3.86-3.64 5.77-5.49l-3.11-.12c2.05-3.87 6.02-6.88 6.27-11.52zm-109.33 1.62c.09-.13.28-.38.38-.5l-.11.32zm-46.25 5.9c2.5-.98 5.12-1.64 7.76-2.21-1.56 1.81-3.02 3.74-4.87 5.27-.3.02-.92.07-1.22.09-.47-.82-.91-1.65-1.32-2.46zm89.58 5.03c4.76-1.28 9.3-4.78 14.44-3.19-2.88 1.09-7.79.71-8.13 4.76-2.12-.49-4.22-1.01-6.31-1.57zm-74.68 1.25c2.73-.67 5.17-2.16 7.79-3.17-1.5 3.47-5.41 4.46-8.82 4.71-7.88 1.23-16.37-.68-23.67 3.29-.02-.31-.08-.94-.1-1.25 2.2-2.52 3.84-6.24 7.6-6.61-.13 1.01-.37 3.02-.5 4.02 3.4-1.15 6.92-2.64 10.59-2.02 2.38.23 4.69 1.21 7.11 1.03zm24.39 1.22c2.8.58 5.68 1.51 8.57.86 4.59-.72 9.26-.16 13.88.06-4.59 1.43-9.3 2.44-14.01 3.33-3.71.36-7.44.13-11.14.21-.86-1.28-1.71-2.55-2.53-3.82 1.71-.25 3.48-.49 5.23-.64zm-21.07 1.32c.46 0 1.38.01 1.85.01l.53.84c-2.04.84-4.16 1.51-6.34 1.87 1.23-1.02 2.48-2.08 3.96-2.72zm50.36-.45c4.25.29 9.69-.54 12.89 2.93-.22.75-.64 2.24-.86 2.99-3.16-.9-6.33-1.76-9.57-2.3.5-.32 1.48-.97 1.97-1.3-1.49-.78-2.97-1.55-4.43-2.32zm-74.01 5.48c4.11-3.03 9.1-4.78 14.26-4.16-3.93 1.39-7.69 3.21-11.01 5.73-1.11-.48-2.19-1.04-3.25-1.57zm28.42 1.23c3.4-.83 6.82-1.6 10.27-2.26-1.35 2.7-4.52 3.34-6.94 4.7-.28-1.75-1.57-2.81-3.33-2.44zm-462.23 20.24c4.83-5.34 8.62-11.61 11.14-18.34-.32 4.39-1.67 8.71-3.9 12.51-3.02 5.09-7.95 8.57-12.27 12.47 1.14-2.59 3.18-4.57 5.03-6.64zm391.18-14.18c-2.01-2.24 2.22-4.01 4.04-3.76 3.16-.12 4.16 3.23 5.81 5.24-.61.22-1.82.67-2.43.89-2.59-.14-5.32-.79-7.42-2.37zm27.72-1.2c2.88-1.27 6.01-1.96 9.15-2.11 2.64.06 5.31-.12 7.95.24-5.71.72-11.23 3.14-17.1 1.87zm-688.34.96c3.77-3.04 8.99-2.58 13.48-1.98 2.86.33 3.39 3.68 5.01 5.55 2.99.35 6.33.07 8.51 2.59 2.52 2.68 6.38 2.09 9.7 2.25-2.11-1.18-4.22-2.34-6.31-3.54 4.5-.14 9.46-1.01 13.56 1.34 2.08 1.19.49 3.64.05 5.32 6.46-1.16 13.27-1.31 19.34 1.56-3.86.54-7.28 2.44-10.01 5.17-4.67 4.35-11.36 4.58-17.37 4.72-.64-1.07-1.29-2.15-1.95-3.18 3.83 2.34 8.37 2.61 12.7 1.8-.22-1.61-.37-3.52-2.1-4.25-4-1.97-8.57-2.25-12.93-2.81-3.86 2.2-7.19-2.85-11.18-2.51-1.62 1.37-2.89 3.08-4.16 4.76 1.4.47 2.81.96 4.24 1.38-5.17-.32-10.59 1.85-15.54-.34-2.31-1.82-1.72-5.82-4.8-7.09-.9-2.33-2.42-4.3-3.71-6.4.11-2 2.08-3.18 3.47-4.34zm629.73 2.02c3.12-1.57 6.21-3.51 9.83-3.64.51 1.8.32 4.01 1.78 5.41 2.05.8 4.31.78 6.45 1.33-4.18 1.39-9.76 3.03-13.24-.59-1.37-1.25-3.11-1.95-4.82-2.51zm168 6.54c2.98-3.95 6.69-7.49 10.98-9.97 3.93-1.73 2.23 5.08 5.72 5.64-5.36 2.08-10.72 5.23-16.7 4.33zm-604-8.65c2.21 2.05 4.6 3.89 7.12 5.55-.98.96-1.96 1.93-2.95 2.9-4.18 1.15-6.74 5.17-11.2 5.77.87-.83 1.72-1.7 2.58-2.54-5.95-2.27-12.22-.35-18.3.14-4.44.3-8.96 1.76-13.36.45-7.47-1.95-16.23-1.74-22.15-7.4-.23-.81-.48-1.63-.71-2.41 18.16 2.66 36.82-.75 54.71 4.04 1.43-2.17 2.85-4.33 4.26-6.5zm-132.19 1.83c3.55-.18 7.36-1.22 10.76.25 1.25 1.79 1.79 3.98 3.05 5.78 3.63 1.84 7.89.83 11.78.7-1.36-2.42 1.07-4.01 2.41-5.65 3.95 1.28 8 2.25 12.11 2.88 3.98.71 8.36 1.19 11.47 4.08-3.38.11-6.75.18-10.11.23l.04 1.11c0 .4.01 1.2.01 1.6-.07-.67-.2-2.02-.26-2.69-10.07.31-20.23 1.14-30.24-.18-3.95-1.56-7.84-3.27-11.81-4.78 1.59-.08 3.18-.16 4.78-.23-1.34-1.05-2.67-2.07-3.99-3.1zm615.11 3.65c5.11-1.85 10.64-1.78 15.99-1.42-3.06-.26-6.05.61-7.72 3.41 6.93-.33 13.78-1.92 20.74-1.68 1.32-.12 2.49.61 3.5 1.39-.71 1.02-1.3 2.13-1.97 3.19-.67-1.2-1-2.97-2.68-3.02-6.6-.88-13.15 1.12-19.73 1.38-2.76.07-5.5.17-8.24.33-1.51.34-2.58-.08-3.2-1.26-.22-1.58 2.34-1.63 3.31-2.32zm-558.06 4.61c1.97-1.4 3.78-3.11 6.06-4 2.95-.87 6.07-.84 9.12-1.13l.03.55c-.99 2.1-2.2 4.1-3.3 6.14-3.94-.75-7.92-1.25-11.91-1.56zm526.65.93c3.04-4.38 9.09-3.83 13.75-3.28-1.82.63-3.6 1.39-5.32 2.23-1.4.58-2.93.7-4.39.94-1.01.03-3.03.08-4.04.11zm22.15-4.12-.48 1.36c1.63-.09 3.41-.57 4.84.58l-.01.58c-.59.21-1.76.64-2.35.86-1.44-.33-2.86-.69-4.26-1.07.74-.78 1.49-1.55 2.26-2.31zm-719.27 6.11c6.48-1.27 13.16-1.57 19.72-.7 8.45 1.34 17 2.74 25.58 1.68l.18 1.02c-1.53.01-3.06.04-4.59.08-.02.24-.06.71-.07.95.35.05 1.07.15 1.43.2 5.31.8 9.88 3.96 15.05 5.32-3.81 1.46-7.78 3.19-11.96 2.67-3.04-.56-5.85-2.02-8.94-2.39-4.72-.56-9.48.15-14.11 1.07.96-1.67 2.78-4.08.65-5.66-4.56-2.98-10.43-1.73-15.53-1.36 2.26 1.37 5.09 1.93 7.04 3.74.21.39.63 1.18.83 1.58-3.58-.22-7.15.38-10.73.16 3-.19 6.1.17 8.96-1.02-3.92-3.37-9.29-4.36-13.51-7.34zm620.7 1.4.09.59c.6 0 1.81.02 2.42.03-2.54.93-5.24 1.25-7.87 1.76.82.49 1.65.99 2.49 1.5-3.24 2.1-6.89 5.57-11.04 4.23.94-.63 1.89-1.24 2.86-1.84-1.55.13-3.07.29-4.59.45a445.8 445.8 0 0 0 -3.63-1.91c6.82 1.13 12.98-2.85 19.27-4.81zm-633.98 2.68c.61-.05 1.82-.14 2.42-.18 5.39 5.39 13.87 4.59 20.02 8.69-.41.55-1.21 1.66-1.62 2.22-4.73-2.28-9.66-4.13-14.61-5.86-2.59-.84-4.47-2.89-6.21-4.87zm641.38 1.96c4.45.21 8.91-.22 13.2-1.44l.19.07c-1.01.83-1.38 1.88-1.12 3.14-2.58.9-5.14 1.86-7.76 2.65.4-.29 1.21-.88 1.62-1.17-2.08-1.05-4.12-2.12-6.13-3.25zm-675.31 3.01c3.82.97 7.69 1.94 11.65 2.07 2.73.17 5.6-.07 8.15 1.15-9.73 2.61-19.98 1.95-29.77.04 3.02-.32 6.01-.79 9.01-1.25.24-.5.72-1.51.96-2.01zm1086.31-.78c14.6 5.94 28.46 14 40.39 24.34 6.57 5.6 11.77 12.82 13.98 21.25v3c-13.9 3.81-28.16 6.24-42.44 8.11-1.73-1.6-3.43-3.22-5.13-4.83-6.95 4.18-14.49 7.28-22.29 9.45-.49-7.2-5.22-13.12-10.08-18.06-7.31-7.23-15.88-13.03-24.6-18.39 17.53-5.63 34.88-12.03 51.45-20.07-.44-1.62-.84-3.21-1.28-4.8zm-407.85 4.98c4.51-2.23 9.9-4.91 14.87-2.39-2.88 1.82-6.09 2.99-9.34 3.96-1.62-1.2-3.57-1.54-5.53-1.57zm-756.9 2.03c2.95-1.24 6.14-1.73 9.26-2.32-3.86 2.2-10.48 4.18-9.82 9.67 2.77 3.3 7.56 2.68 11.42 2.86 1.43-2.2 2.87-4.39 4.31-6.57 3.27 1.72 6.34 3.84 9.81 5.17 2.98 1.28 6.22.19 9.3.07-4.3.97-8.74.76-13.11 1.21-9.92.72-20.25 1.42-29.77-2.03.42.75.84 1.52 1.26 2.3-5.89 1.65-12.06 1.56-18.03 2.76-1.85.24-3.27 1.48-4.51 2.79v-3.87l.21 1.77c.77-1.54 1.51-3.08 2.23-4.63 2.66.28 5.32.56 7.98.83-.41-1.81-.82-3.59-1.25-5.38 3.28.19 6.61.53 9.86-.14 3.89-.75 7.2-3.07 10.85-4.49zm716.8-1.72c1.28-.11 2.57-.28 3.87-.41 1.84-.36 3.74-.1 5.52.49-3.36 1.18-8.15-1.55-10.24 2.32 8.35.96 16.81-3.24 25-1.02.2.47.59 1.42.79 1.9 2.92-1.11 5.76-2.4 8.74-3.36 1.17.09 2.36.21 3.55.38-3.16.98-6.21 2.28-9.08 3.92.71.93 1.44 1.89 2.14 2.86-1.74.24-3.42-.5-2.89-2.63-13.64-2.15-27.47 1.17-41.17-.22-1.79-.11-3.39-.91-4.65-2.14 4.94.2 9.81 1.28 14.75 1.56 1.89-.3 2.79-2.18 3.67-3.65zm42.44 3.62c4.08-.46 9.12-2.43 12.72.4-.03.51-.07 1.53-.1 2.04-2.64 1.13-5.57 1.31-8.39 1.65.97-1.32 2-2.6 2.98-3.9-2.39-.43-4.81-.36-7.21-.19zm-118.71 6.75c2.24-.26 4.52-.45 6.8-.26-.22.67-.64 2-.85 2.66.73.2 2.2.6 2.94.79-2 .85-4.12 1.36-6.27 1.59.88-.92 1.8-1.8 2.73-2.67-1.83-.66-3.61-1.29-5.35-2.11zm-31.99 7.29c3.49 1.09 6.91-.68 10.3-1.39l.32 1.02c-.56-.02-1.67-.08-2.22-.11.24.49.74 1.47.99 1.96-3.22 1.04-6.6 1.39-9.85 2.25 1.59.85 3.21 1.64 4.88 2.36-.68.13-2.05.38-2.74.51-6.1.4-13.37 2.88-18.36-2.02 5.79.67 13.05.95 16.68-4.58zm24.81 6.93.4-.97.41-.13c.41 1.74 2.1 2.55 3.72 2.89-1.24.08-2.48.15-3.7.21-.05.52-.16 1.55-.21 2.07 1.66-.26 3.34-.49 5.02-.7.79.78 1.6 1.57 2.39 2.38-2.48.51-4.96 1-7.44 1.49-.06 1.56-.56 3.04-1.2 4.46 1.11.51 2.23 1.04 3.33 1.62-3.26.61-4.78-2.79-7.71-3.4.95-2.64 1.47-6.45 5.43-5.43-.66-.5-1.31-.99-1.95-1.48l-5.15.3c2.27-1.01 4.5-2.08 6.66-3.31zm27.2-.85c1.15.39 2.34.67 3.57.86-.58.09-1.74.25-2.32.33l2.3 1.86c-.99.28-2.96.84-3.95 1.13 6.76 1.9 13.66 3.31 20.59 4.49-4.06 1.89-9.4 3.03-11.03 7.8-10.14-.99-19.99-3.66-29.95-5.62 4.3-.65 8.28-2.56 11.43-5.57 1.31.74 2.59 1.56 3.89 2.35-.51-.61-1.53-1.85-2.04-2.46 2.04-2.34 4.7-3.94 7.51-5.17zm-81.7 7.8c6.19-1.46 12.57-1.07 18.87-1.37.67 1.38 1.28 2.79 1.88 4.23 2.87.32 5.73.65 8.61.96-1.59 2.28-2.31 4.98-3.23 7.57-4.58.1-9.16.36-13.74.26 3.75-2.02 7.55-3.91 11.3-5.93-7.9-1.89-16.11-2.64-23.69-5.72zm-29.68 5.85c1.17-1.65 3.41-1.12 5.14-1.36l.35.23c-.72.33-2.18 1-2.91 1.34 3.67 1.43 7.46 2.56 11.38 3.08 4.58 1.73 9.56 1.96 14.2 3.53-5.08 2.45-10.27 4.67-15.34 7.14a21.26 21.26 0 0 1 -5.5-2.18c1.07-1.79 2.31-3.46 3.59-5.1-3.82-.05-7.63-.02-11.43.36-2.95-.43-5.85-1.1-8.74-1.77-.91.86-1.82 1.72-2.69 2.61-1.56-.33-3.42-.52-4.74.53.67.35 2 1.04 2.66 1.39-.25.21-.75.62-1 .83-3.32-2.75-5.78-6.57-10.18-7.74-.21-.19-.64-.55-.86-.73 4.38.12 8.61 1.31 12.95 1.81 2.53-1.78 5.53.13 8.32-.66-1.39-.55-2.79-1.03-4.19-1.5a82.35 82.35 0 0 0 -3.06-1.64c4 .5 8.05.35 12.05-.17zm-105.74 14.41c3.75-2.3 3.66-7.52 5.64-11.16 1.52.85 3.73 2.16 2.63 4.28-.26 1.94-2.52 4.28-.72 6 2.86 1.1 6.09-.26 8.89 1.13-5.47-.39-10.97-.86-16.44-.25zm31.67-2.44c2.16-2.49 4.66-4.63 7.44-6.39-.73 2.2-1.43 4.41-2.13 6.62-1.78-.08-3.54-.14-5.31-.23zm10.86-4.06c.19-.69.59-2.09.78-2.78 1.87.71 3.87 1.46 4.78 3.44-1.87-.1-3.72-.38-5.56-.66zm105.11 1.36c6-.53 11.94-1.52 17.9-2.36-.26.35-.77 1.06-1.02 1.42-5.62.38-11.24 1.13-16.88.94zm-38.95 8.48c3.11-.48 6.65-1.46 9.44.54 2.24 1.49 4.99 1.52 7.57 1.94-5.82.76-11.68 0-17.01-2.48zm-115.93-.68c2.23.09 4.48.23 6.68.71 2.92.77 5.86 1.48 8.86 1.96.18 2.77 2.2 4.55 4.41 5.94 2.5-1.04 4.97-2.17 7.56-2.99 4.45-.93 8.35-3.34 12.44-5.2.85.52 1.71 1.03 2.59 1.54-2.46 2.06-4.88 4.25-6.38 7.14-5.46-.68-10.94-.01-16.41-.17-6.96-1.8-15.28-2.51-19.75-8.93zm650.86 13.52c6.61-1.52 12.85-4.24 18.97-7.11 1.13 1.12 2.26 2.24 3.43 3.35-5.87 1.57-11.68 3.33-17.44 5.25-3.83-.69-7.59.63-11.31 1.31-28.82 6.21-57.83 13.47-87.52 12.9-7.13-.46-14.06-2.53-20.46-5.63 10.09.94 20.24 1.81 30.39 1 8.72-.3 17.34-2.25 26.09-1.93 4.8.2 9.33-1.67 14-2.44 14.51-2.94 29.45-3.18 43.85-6.7z"/></g><g fill="#4b78b8"><path d="m370.77 596.38c2.34.89 4.46 3.01 7.14 2.38 4.69-.55 9.38-1.42 14.13-.99 7.41.36 15.95-1.93 22.14 3.46-.31.36-.92 1.09-1.22 1.45 2.53.98 5.02 2.08 7.49 3.23 1.77-3.15 5.72-1.38 8.61-1.96 2.22.04 3.44-2.02 4.76-3.46 2.77 1.74 5.21 3.97 7.98 5.72 2.91 1.8 6.91 1.81 9.11 4.71.28 1.95-1.18 4.83 1.08 6 4.2 2.09 9.19 3.96 13.86 2.38 3.91-.73 8.01-2.11 11.94-1.6 4.19 3.61 7.83 7.84 11.2 12.23-3.68-1.93-7.13-4.26-10.92-5.94 6.95 4.65 13.48 11.43 14.53 20.08.63 5.38-3.74 9.39-4.61 14.47-2.52 6.73-6.31 13-11.14 18.34-1.85 2.07-3.89 4.05-5.03 6.64-.23 2.02-.13 4.07-.12 6.12-11.53 7.57-22.72 15.82-32.5 25.58-3.75 3.79-7.23 7.97-9.35 12.92-.75.21-2.26.64-3.01.85 3.45 5.61 11 5.88 16.89 5.89-.52 1.49-2.46 3.5-.19 4.49 2.42 1.2 5.19 1.26 7.83 1.55 2.78-2.69 6.8-3.02 10.36-4.03 1.34 2.23 2.63 4.52 4.34 6.51 4.47 6.42 12.79 7.13 19.75 8.93-5.71 2.85-12.61-1.99-18.2 1.92 7.07 1.91 14.47 1.9 21.74 2.2-.57-.73-1.72-2.17-2.29-2.89 2.69.06 5.44.19 7.96 1.28-1.36 2.44-5.22 3.86-4.85 6.94 1.93.68 3.95 1.1 5.94 1.64-4.36.87-8.8.74-13.22.9-3.16.07-5.81 2.08-8.88 2.57-8.29 1.6-16.58 3.25-24.88 4.81-5.6 1.31-11.42.35-17.04 1.63-10.99 2.19-21.81-2.49-30.65-8.68-4.36-3.25-9.42-6.06-12.07-11.02-6.52-10.23-9.93-22.63-8.16-34.74 2.46-18.16 12.31-34.39 24.09-48.07.99-.97 1.97-1.94 2.95-2.9-2.52-1.66-4.91-3.5-7.12-5.55-1.41 2.17-2.83 4.33-4.26 6.5-17.89-4.79-36.55-1.38-54.71-4.04.23.78.48 1.6.71 2.41.01.66.01 1.97.01 2.62-.58-.66-1.14-1.32-1.68-1.98l-.03-.55c-3.05.29-6.17.26-9.12 1.13-2.28.89-4.09 2.6-6.06 4-4.38 3.4-10.24 3.52-15.53 3.14v-.42c0-.4-.01-1.2-.01-1.6 3.26 1.39 6.99 2.26 10.4.83l-.33-2.17c-3.11-2.89-7.49-3.37-11.47-4.08-4.11-.63-8.16-1.6-12.11-2.88-1.34 1.64-3.77 3.23-2.41 5.65-3.89.13-8.15 1.14-11.78-.7-1.26-1.8-1.8-3.99-3.05-5.78-3.4-1.47-7.21-.43-10.76-.25 1.32 1.03 2.65 2.05 3.99 3.1-1.6.07-3.19.15-4.78.23 3.97 1.51 7.86 3.22 11.81 4.78 1.03.43 2.05.9 3.07 1.4-1.82.6-3.65 1.16-5.49 1.7l.32 2.3-.28-.01c-.9-3.04-4.59-1.22-6.84-2.15-6.07-2.87-12.88-2.72-19.34-1.56.44-1.68 2.03-4.13-.05-5.32-4.1-2.35-9.06-1.48-13.56-1.34 2.09 1.2 4.2 2.36 6.31 3.54-3.32-.16-7.18.43-9.7-2.25-2.18-2.52-5.52-2.24-8.51-2.59-1.62-1.87-2.15-5.22-5.01-5.55-4.49-.6-9.71-1.06-13.48 1.98-1.39 1.16-3.36 2.34-3.47 4.34 1.29 2.1 2.81 4.07 3.71 6.4-1.11 2.66-4.11 2.49-6.45 3.08.41.31 1.22.94 1.62 1.25-1.71.09-3.65-.2-5.04 1.08-.36-.05-1.08-.15-1.43-.2.01-.24.05-.71.07-.95 1.53-.04 3.06-.07 4.59-.08l-.18-1.02c-8.58 1.06-17.13-.34-25.58-1.68-6.56-.87-13.24-.57-19.72.7 4.22 2.98 9.59 3.97 13.51 7.34-2.86 1.19-5.96.83-8.96 1.02-3.3.45-6.82-.29-9.4-2.47-1.68-1.4-3.74-2.49-6.01-1.99-.6.04-1.81.13-2.42.18-1.35.12-2.7.3-4.04.47 2.21-3.23 4.73-6.3 7.93-8.58 7.17-5.16 15.34-8.68 22.63-13.63 1.6-1.04 3.27-2.11 5.2-2.34 13.41-1.83 26.9-3.09 40.43-3.5.7-1.97 1.02-4.29 2.82-5.61 4.01-3.34 8.89-5.39 13.63-7.46 10.84-4.48 22.04-8.05 33.06-12.05 6.07-2.16 12.56 2.5 18.49-.48 23.51-9.86 47.7-18.27 72.64-23.74 3.91-.93 7.9-1.51 11.87-2.14 2.14-.19 2.94-2.43 3.86-4.02zm690.69 26.86c2 1.51 4 3.05 5.82 4.8-2.12-.68-4.23-1.48-6.32-2.2l1.11 2.45c-4.49-.18-8.84-1.81-13.35-1.23-.49-.04-1.47-.11-1.95-.14.9-.79 1.85-1.72 3.18-1.56 3.94-.19 7.9.08 11.85-.23-.08-.48-.26-1.42-.34-1.89zm-51.32 5.54c.68-.2 1.39-.38 2.1-.58l-.17 1.62c9.65.22 19.42-1.76 28.97.27 2.86.52 5.32 2.21 7.22 4.37-.68.02-2.05.05-2.73.06-4.27-.3-8.56-.14-12.53 1.56-3.21-.23-6.2-1.58-9.28-2.39-4.04-1.31-8.13-2.43-12.28-3.3l.52-1.48-2.95.36zm-44.6 1.92c3.42-.9 7-.93 10.49-1.55-1.05.68-2.08 1.38-3.09 2.1 3.17.08 6.31-.44 9.47-.77l.12 1.97-2.54 1.19c-2.34-.49-4.71-1.02-7.1-.81-4.05.52-8.39 1.98-10.21 5.97 6.42-.23 12.87-.22 19.26-.98 3.33-.46 6.66.22 9.96.66-.61.29-1.21.58-1.79.88 1.44.88 2.9 1.78 4.32 2.74-5.03-.51-9.32-4.14-14.53-3.38.83.9 1.68 1.8 2.54 2.71-.9.77-1.79 1.55-2.7 2.3-5.14 2.35-10.62 3.9-15.79 6.19-2.89.65-5.77-.28-8.57-.86-3.14-.8-6.23-1.83-9.46-2.14-3.15.06-5.99 1.61-8.46 3.43l-1.3.04c-.47 0-1.39-.01-1.85-.01-3.18-.21-6.27.56-9.39.87-5.16-.62-10.15 1.13-14.26 4.16 1.06.53 2.14 1.09 3.25 1.57 3.38.67 7 .27 10.17 1.85-2.03 1.51-4.26 2.73-6.51 3.88-.53-2.22-2.78-2.78-4.72-3.08-2.64-.36-5.31-.18-7.95-.24.19-1.58.41-3.14.67-4.7-3.04.73-6.15 1.4-8.94 2.87-3.48 1.73-6.32 4.49-9.79 6.23-3.52 1.71-7.59 1.87-11.39 1.28.61-.22 1.82-.67 2.43-.89 1.69-.59 3.5-.82 5.28-1.13-.01-3.66 2.55-6.75 2.26-10.45-4.66-1.19-9.06 1.16-13.47 2.27 5.32-2.92 12.15-5.07 18.01-2.61 1.43-.77 2.84-1.59 4.25-2.42-.43-.99-.85-1.97-1.27-2.94 2.34-1 4.78-1.72 7.28-2.19l-2.77 3.21c6.61-.95 12.68-3.63 18.99-5.67.41.81.85 1.64 1.32 2.46.3-.02.92-.07 1.22-.09 3.14-.23 6.39-.72 9.09-2.47 4.01-2.45 8.44-4.2 13.04-5.18 2.54.9 4.87 2.51 7.72 2.33.2-.51.62-1.52.83-2.02l-2.34.45-.1-.28c.74-.34 1.49-.68 2.26-1.01 1.52-.3 3.07-.66 4.6-1.04-1.28.67-2.57 1.3-3.86 1.93.37 1.85 2.63.37 3.9.64 2.95.04 5.99-.05 8.22-2.31l.27-.18.11-.32c.82-1.54.68-4.13 2.82-4.46m-34.55 17.14c-2.42.18-4.73-.8-7.11-1.03-3.67-.62-7.19.87-10.59 2.02.13-1 .37-3.01.5-4.02-3.76.37-5.4 4.09-7.6 6.61.02.31.08.94.1 1.25 7.3-3.97 15.79-2.06 23.67-3.29 3.41-.25 7.32-1.24 8.82-4.71-2.62 1.01-5.06 2.5-7.79 3.17m-38.69 5.92c3.73-1.42 7.36-3.21 10.44-5.8-4.4-.05-8.09 2.17-10.44 5.8zm106.22-19.69c1.06-.63 2.11-1.29 3.17-1.95l-.28 2c2.93.98 6.05 1.11 9.13 1.24.67.07 2.03.19 2.71.26l-.25 1.51c-6.38 1.9-13.5 3.88-20.02 1.6.57-2.56 3.67-3.23 5.54-4.66zm20.27.26c1.32-.62 2.66-.64 4.02-.07-.39 1.41-2.98.91-4.05.48zm37.63 17.62c2.48-1.66 4.97-3.32 7.47-4.96-3.12 3.4-5.41 7.45-6.61 11.92.38-2.31 1.9-5.59-.86-6.96z"/><path d="m936.69 651.23c.23.38.68 1.16.9 1.55 4.99.8 10.04.96 15.09.74 3.7-.08 7.43.15 11.14-.21 2.22 1.05 5.43 2.02 4.45 5.27-3.07-.42-6.08-1.09-9.09-1.79l1.01-1.73c-3.5-1.14-7.26-1.68-10.84-.68-3.45.66-6.87 1.43-10.27 2.26-4.81 1.34-12.1 3.24-14.57-2.68 1.93-.32 3.9-.52 5.84-.86 2.18-.36 4.3-1.03 6.34-1.87zm-115.68 16.81c2.73-1.55 5.54-3.1 8.73-3.4.54 1.57.37 3.58 1.54 4.89 1.93.69 4.04.86 5.98 1.61-3.61.68-8.11 2.59-11.27-.15-1.49-1.27-3.19-2.23-4.98-2.95zm45.39 2.07c2.77-.44 5.59-.6 8.4-.84-.77.76-1.52 1.53-2.26 2.31l-.88.89c1.63-.04 3.17.29 4.62.99-4.72.5-9.6 1.48-14.28.37-.26-.25-.79-.76-1.05-1.02l.13-.47c1.72-.84 3.5-1.6 5.32-2.23zm17.55 1.32c2.74-.16 5.48-.26 8.24-.33 2.37 1 .8 2.64-.19 3.99-1.54-4.01-6.42-2.22-9.6-2.59zm145.35 5.76c5.24-2.23 10.14-5.66 15.97-6.14-3.13 9.62-12.91 15.16-16.59 24.53-4.96 1.95-9.06 5.52-13.1 8.87-6.21 7.51-11.61 15.92-14.77 25.19 9.43 2.94 19.45 2.59 29.21 2.17 15.44-1.19 30.73-4.01 45.85-7.37 19.33-4.49 38.43-10.24 56.68-18.08-.23-1.13-.7-3.39-.93-4.52 4.41 1.96 8.69 4.2 12.84 6.68 8.72 5.36 17.29 11.16 24.6 18.39 4.86 4.94 9.59 10.86 10.08 18.06-.08 1.2-.15 2.42-.22 3.64-12.67 2.69-25.49 4.5-38.38 5.69-.3-.28-.91-.85-1.21-1.14-1.17-1.11-2.3-2.23-3.43-3.35-6.12 2.87-12.36 5.59-18.97 7.11-14.4 3.52-29.34 3.76-43.85 6.7-4.67.77-9.2 2.64-14 2.44-8.75-.32-17.37 1.63-26.09 1.93-10.15.81-20.3-.06-30.39-1-5.63-1.63-11.5-2.79-16.57-5.85-6.76-4.08-13.45-9.34-16.21-17.02-3.42-8.96-4.7-19.64-.09-28.41 4.62-9.67 10.81-19.23 20.34-24.66 9.46-5.58 20.86-5.67 30.83-9.94 1.39-.46 2.47-1.49 2.94-2.89 2.7-1.5 5.47-2.89 8.21-4.34-.93 1.09-1.87 2.18-2.75 3.31zm-152.5-4.54c.59-.22 1.76-.65 2.35-.86.78.1 2.35.32 3.13.42-1.12 1.18-4.16 1.45-5.74.74zm-38.91 1.12c4.76-1.84 9.85-.31 14.76-.38 1.01-.03 3.03-.08 4.04-.11 1.44-.39 2.49-.14 3.15.76.01.63.02 1.9.03 2.54-2.72-2-6.38-2.71-9.46-1.11-.24-.26-.72-.77-.96-1.02-5.66.5-11.27 1.51-16.59 3.54 1.61-1.47 3.08-3.17 5.03-4.22zm-59.15 3.63c3.03-1.36 6.13-2.6 9.37-3.39-3.16 3.84-7.35 6.76-12.12 8.23-.88-.54-1.76-1.07-2.63-1.58-.84-.51-1.67-1.01-2.49-1.5 2.63-.51 5.33-.83 7.87-1.76zm-669.42 1.93c4.41-2.06 8.92-4.08 13.86-4.37-3.28 2.02-8.35 3.52-8.66 8.05 1.77 2.75 5.45 3.26 8.46 3.28 2.91.28 3.91-3.06 5.46-4.88l.79-1.19c2.45 1.39 4.79 2.98 7.32 4.24 2.97 1.51 6.37.77 9.56 1.03-5.54.14-11.05.71-16.58 1.01-.24.33-.73.99-.98 1.31l-.43-.16c-2.55-1.22-5.42-.98-8.15-1.15-3.96-.13-7.83-1.1-11.65-2.07-.24.5-.72 1.51-.96 2.01-3 .46-5.99.93-9.01 1.25-3.54.46-8.26-.4-10.32 3.3-.36-1.43-.04-2.82.76-4.03.29-.55.88-1.64 1.17-2.18 2.36.21 4.73.43 7.09.64-.18-1.55-.37-3.1-.55-4.64 4.3.13 8.81.47 12.82-1.45z"/><path d="m793.93 678.38c4.66.07 9.44-.12 13.78-2.01-.95.93-3.38 1.69-2.49 3.41 1.76.96 3.66 1.59 5.51 2.4-2.33 2.41-5.66 3.21-8.72 4.19l-.36-.13c-4.97-2.52-10.36.16-14.87 2.39l-.87.43c.68.9 1.38 1.83 2.05 2.77-1.63 0-3.05-.47-2.96-2.45-.27-.03-.82-.1-1.09-.14-1.19-.17-2.38-.29-3.55-.38-8.2-.65-16.4.61-24.6.43 1.17-.72 2.35-1.42 3.55-2.11.42-1.24.85-2.46 1.28-3.68 1.52-.16 3.04-.32 4.59-.45-.97.6-1.92 1.21-2.86 1.84a5.716 5.716 0 0 0 -2.72 2.81c6.53.03 12.91-1.8 19.45-1.78 1.57-.26 2.86.59 3.98 1.62 1.69-.59 3.38-1.18 5.11-1.7 2.62-.79 5.18-1.75 7.76-2.65 1.39-.39 2.77-.92 3.9-1.85-.89-.54-1.82-.98-2.78-1.29l-.19-.07a89.72 89.72 0 0 1 -2.9-1.6zm-50.87 9.18c3.11-.17 6.17-.74 9.17-1.61-.42.65-1.26 1.93-1.68 2.58-1.3.13-2.59.3-3.87.41-1.25-.36-2.46-.82-3.62-1.38zm-63.12 12.72c2.99.53 5.98 1.09 8.95 1.76-2.45 1.09-4.9 2.18-7.33 3.3-.56-1.69-1.09-3.38-1.62-5.06zm-18.96 1.57c3.46.38 6.75-.93 10.13-1.44-1.77 4.43-6.91 3.08-10.4 4.9 2.76.58 5.55 1.06 8.32 1.71l-1.68 1.24c1.58 2.28-1.58 3.89-3.31 4.17l-.41.13c.32-.86.97-2.58 1.29-3.44l-4.04 1.56c-.23-.64-.68-1.9-.9-2.53-4.04.53-8.16.79-12.17-.07-.25-.49-.75-1.47-.99-1.96.55.03 1.66.09 2.22.11 4.46.62 8.99-.94 11.94-4.38zm42.33 7.49c2.6-1.69 5.77-1.85 8.77-2.11-.63.23-1.88.71-2.51.94 1.24 1.07 2.69 1.92 4.39 1.97 7.01.72 14.06-.32 21.08.36-4.2 3.91-10.07 4.86-14.89 7.71-1.59.81-2.32 2.5-3.21 3.94-2.12-.26-4.23-.5-6.32-.8-6.93-1.18-13.83-2.59-20.59-4.49.99-.29 2.96-.85 3.95-1.13 3.72-1.09 6.03-4.54 9.33-6.39zm-35.55 5.98c5.66-2.13 11.04-4.92 16.43-7.65 2.17 1.54 4.3 3.16 6.24 5.01-2.81 1.23-5.47 2.83-7.51 5.17.51.61 1.53 1.85 2.04 2.46-1.3-.79-2.58-1.61-3.89-2.35-3.78-1.8-8.16-1.46-12.2-1.06-1.68.21-3.36.44-5.02.7.05-.52.16-1.55.21-2.07 1.22-.06 2.46-.13 3.7-.21zm-27.66-2.12c.69-.13 2.06-.38 2.74-.51 2.36 0 4.77-.23 7.08.41 1.87.34 2.01 2.52 2.79 3.91 1.27-.06 2.57-.09 3.86-.17l5.15-.3c.64.49 1.29.98 1.95 1.48-3.96-1.02-4.48 2.79-5.43 5.43-.12.37-.36 1.09-.48 1.46-5.47.25-10.94.26-16.39.66l.05-1c-1.12-.08-2.23-.17-3.33-.27-2.88-.31-5.74-.64-8.61-.96 7.43-.72 14.78-2.29 22.02-4.05-7.94-.79-15.94-.25-23.9-.18-6.3.3-12.68-.09-18.87 1.37 7.58 3.08 15.79 3.83 23.69 5.72-3.75 2.02-7.55 3.91-11.3 5.93-2.66 1.5-5.74.39-8-1.29-2.73-.44-5.51-.3-8.25-.52 3.9-1.72 9.14-.38 12.08-3.88-8.73-.16-17.46.81-26.05 2.27-1.75-1.75-3.65-3.79-6.36-3.51l-.35-.23-1.05-.74c-.81-.23-2.44-.68-3.25-.91 6.3.1 12.65 1.49 18.78-.73-.93-.45-1.85-.88-2.77-1.31 3.93.05 7.85-.29 11.76-.65l-.37-1.27c6.8.74 13.28-1.77 19.8-3.22 4.29-1.18 8.69-1.91 13.01-2.94zm-125.31 11.88c2.99 1.06 2.97 3.86 1.83 6.38-.19.69-.59 2.09-.78 2.78 1.84.28 3.69.56 5.56.66 1.16-.1 2.31-.24 3.47-.42-2.61 1.77-6.03 3.22-7.06 6.46-.23 2.42 2.5 3.36 4.07 4.58 5.16-2.42 10.83-4.4 14.7-8.8-2.6-.04-5.2.1-7.79 0 2.99-.93 6.03-1.68 9.05-2.54 1.96-2.79 4.4-5.23 7.28-7.06 2.35-1.98 5.85-.4 7.86 1.37.22.18.65.54.86.73-2.04 4.14-6.52 6.08-9.94 8.89 2.02.64 4.04 1.32 6 2.17-3.52-.06-7.57-1.27-10.53 1.21.71 1.2 1.44 2.41 2.16 3.64-6.45.86-12.97.22-19.44.81-4.48.05-9.14.72-13.48-.58-.88-.51-1.74-1.02-2.59-1.54-4.09 1.86-7.99 4.27-12.44 5.2-3.8-1.67-7.89-2.45-11.97-2.95-3-.48-5.94-1.19-8.86-1.96-1.46-1.62-1.28-2.74.56-3.37 5.47-.61 10.97-.14 16.44.25 4.08.47 8.2.54 12.31.35-2.36-1.31-4.81-2.44-7.19-3.69 3.38.13 6.74.45 10.11.65 1.77.09 3.53.15 5.31.23.7-2.21 1.4-4.42 2.13-6.62.77-2.29 1.55-4.57 2.37-6.83zm52.31 9.13c.87-.89 1.78-1.75 2.69-2.61 2.89.67 5.79 1.34 8.74 1.77-2.71.86-5.59.74-8.37 1.16-.23 1.69 1.54 2.95 2.24 4.38-2.71.5-5.52.74-8.16-.23-.05-.43-.17-1.29-.22-1.72.25-.21.75-.62 1-.83.74-.58 1.43-1.22 2.08-1.92z"/></g></svg>