<svg viewBox="0 0 1486 294" xmlns="http://www.w3.org/2000/svg"><g fill="#50c6db"><path d="M140.19 0h.39c46.85 46.79 93.68 93.61 140.46 140.46-19.96.09-39.93.01-59.89.05-26.94-26.91-53.85-53.84-80.77-80.76-26.93 26.91-53.83 53.85-80.76 80.76-19.88-.01-39.75-.02-59.62 0v-.33c11.61-11.74 23.35-23.35 35-35.05V63h42.13c21.03-20.99 41.98-42.06 63.06-63zM360.5 71.26c13.84-.02 27.67-.01 41.51-.01 13.87-.16 28.23.86 41 6.75 9.37 4.2 16.91 12.39 19.9 22.27 3.04 10.22 3.41 21.56-.37 31.64-4.4 11.48-14.2 20.12-25.31 24.91 14.71 22.05 29.49 44.04 44.44 65.93h-36.01c-11.99-19.36-24.04-38.67-36.07-58.01-5.61.02-11.22 0-16.83.02-.02 19.33 0 38.66-.01 57.99-10.75 0-21.5.01-32.25 0V71.26m32.25 26.49v40.75c10.26-.15 21.2.76 30.66-3.97 6.42-3.2 9.57-10.62 9.13-17.54.23-6.31-3-12.88-8.91-15.54-9.63-4.49-20.55-3.61-30.88-3.7zM487.75 71.25c29.08-.01 58.16 0 87.24-.01.01 8.84.01 17.68 0 26.51H520c0 11-.01 22 .01 33h51.24v26.5h-51.24c-.02 12.91-.01 25.83-.01 38.75h55c.01 8.47-.03 16.94.02 25.4 17.68-50.3 35.37-100.59 53.04-150.9 12.33-.01 24.65.02 36.98-.02.64.11 1.91.32 2.54.42 17.98 50.58 35.71 101.25 53.64 151.84-11.64.02-23.28 0-34.91.02-3.68-12-7.3-24.02-11-36.01-18.31.02-36.61-.05-54.91.04-3.59 11.99-7.34 23.94-10.9 35.94-40.58.05-81.17.01-121.75.02V71.25m140.87 88.23c12.98.05 25.96 0 38.94.02-6.51-21.54-13.69-42.89-19.66-64.59-5.94 21.67-12.73 43.09-19.28 64.57zM727.25 71.25h32.25v124.74c20.5.02 41 0 61.5.01v26.75c-31.25 0-62.5.01-93.75 0V71.25z"/><path d="M129.63 143.55c10.9-5.41 24.78-4.17 34.41 3.33 5.76 4.25 9.74 10.57 11.85 17.36 31.37.03 62.74.01 94.11.01.01 39.91-.01 79.82 0 119.73.07 3.35.09 6.7-.4 10.02H9.52a16.23 16.23 0 0 1-.53-3.98c.03-40.26 0-80.51.01-120.77 14.09.01 28.17 0 42.25.01 0 27.33-.01 54.66 0 81.99h176.5c0-22.25.01-44.5 0-66.75-17.57.01-35.13-.02-52.69.01-2.18 4.98-5.09 9.75-9.31 13.28-10.38 9.37-26.93 10.66-38.76 3.28-9.03-5.43-15.02-15.44-15.61-25.95-.99-12.94 6.53-25.99 18.25-31.57z"/></g><g fill="#444"><path d="M945.9 80.88c11.23-9.75 26.78-12.24 41.19-11.83 14.64.35 28.78 4.91 42.11 10.68-3.45 8.44-6.97 16.85-10.47 25.27-10.46-4.24-21.25-8.38-32.65-8.94-5.6-.34-11.69.19-16.3 3.7-5.65 4.2-7.16 12.84-3.44 18.78 3.28 4.92 8.72 7.66 13.8 10.35 12.76 6.63 26.54 11.94 37.33 21.75 6.49 5.76 10.65 13.9 11.85 22.47 1.51 11.29-.06 23.61-7.23 32.83-8.43 11.3-22.5 16.74-36.13 18.27-18.6 1.83-38-.13-54.96-8.4 0-10.05-.02-20.1.01-30.15 13.37 5.78 27.19 11.47 41.9 12.31 6.34.27 13.12.09 18.72-3.31 7.27-4.16 8.68-15.29 3.14-21.41-4.82-5.58-11.73-8.59-18.13-11.94-12.06-5.98-25.24-11.19-34.09-21.81-6.6-7.52-10.16-17.51-9.83-27.52-.19-11.58 4.11-23.58 13.18-31.1zM1188.76 70.51c13.14-.03 26.28-.01 39.43 0 17.89 50.75 35.84 101.47 53.69 152.24-11.62.01-23.23-.01-34.84.01-3.73-11.98-7.35-23.99-10.97-36-18.32-.03-36.63.01-54.94-.01-3.67 11.99-7.28 24.01-10.98 36-11.63-.01-23.26.03-34.88-.02 17.81-50.75 35.67-101.47 53.49-152.22m19.86 24.37c-5.95 21.68-12.76 43.11-19.3 64.62h38.95c-6.53-21.55-13.71-42.91-19.65-64.62zM834.25 71.25c29.17 0 58.33-.01 87.5 0v26.5c-18.42.01-36.83-.01-55.24.01-.02 10.99 0 21.98-.01 32.97 17.08.05 34.17-.01 51.25.03 0 8.83.01 17.66 0 26.48-17.08.02-34.17 0-51.25.02V196c18.42.01 36.84-.01 55.26.01-.02 8.91 0 17.82-.01 26.74h-87.5c-.01-50.5-.01-101 0-151.5zM1029.51 71.25h114.48c.01 9 .01 18 0 27h-40.98c-.02 41.5 0 83-.02 124.5-10.83-.01-21.66.01-32.49-.01-.04-41.5.08-83.01-.06-124.52-13.65.07-27.29.02-40.93.02-.01-9-.03-18 0-26.99zM1273.01 71.25c38.24 0 76.49-.01 114.74 0v26.99c-13.75.02-27.5.01-41.24.01-.02 41.5 0 83-.01 124.49-10.75.02-21.5.01-32.25.01-.01-41.5.01-83-.01-124.5-13.75-.01-27.49.01-41.23 0-.02-9-.02-18 0-27zM1398.01 71.25c29.16 0 58.32 0 87.48-.01.02 8.84.01 17.67 0 26.51-18.41.01-36.82-.01-55.24.01v32.99c17.08.01 34.16-.01 51.25.01v26.48c-17.08.02-34.17 0-51.25.01-.01 12.92 0 25.83 0 38.74 18.41.02 36.83 0 55.25.01v26.74c-29.17.03-58.33 0-87.49.01-.01-50.5-.02-101 0-151.5z"/></g></svg>